<svg xmlns="http://www.w3.org/2000/svg" xmlns:xlink="http://www.w3.org/1999/xlink" preserveAspectRatio="xMidYMid" width="20" height="14" viewBox="0 0 20 14">
  <defs>
    <style>
      .youtube {
        fill: #fff;
        fill-rule: evenodd;
      }
    </style>
  </defs>
  <path d="M19.800,10.979 C19.800,10.979 19.605,12.351 19.005,12.955 C18.244,13.748 17.392,13.752 17.001,13.798 C14.202,14.000 10.004,14.000 10.004,14.000 L9.995,14.000 C9.995,14.000 5.797,14.000 2.998,13.798 C2.607,13.752 1.755,13.748 0.994,12.955 C0.395,12.351 0.200,10.979 0.200,10.979 C0.200,10.979 -0.000,9.369 -0.000,7.758 L-0.000,7.000 L-0.000,6.241 C-0.000,4.631 0.200,3.020 0.200,3.020 C0.200,3.020 0.395,1.648 0.994,1.044 C1.755,0.251 2.607,0.247 2.998,0.201 C5.797,-0.000 9.995,-0.000 9.995,-0.000 L10.004,-0.000 C10.004,-0.000 14.202,-0.000 17.001,0.201 C17.392,0.247 18.244,0.251 19.005,1.044 C19.605,1.648 19.800,3.020 19.800,3.020 C19.800,3.020 20.000,4.631 20.000,6.241 L20.000,7.000 L20.000,7.758 C20.000,9.369 19.800,10.979 19.800,10.979 ZM7.934,3.989 L7.934,10.011 L13.333,7.000 L7.934,3.989 Z" class="youtube"/>
</svg>
