<svg xmlns="http://www.w3.org/2000/svg" preserveAspectRatio="xMidYMid" width="20" height="18" viewBox="0 0 20 18"><path d="M19.954 7c0 .323-.156.64-.444.832l-3.548 2.37V13c0 1.42-.703 2.694-1.839 3.606C13.048 17.467 11.58 18 9.974 18c-1.605 0-3.073-.533-4.148-1.394C4.69 15.694 3.987 14.42 3.987 13v-2.798L.439 7.832a1 1 0 0 1 0-1.664L9.405.179a.995.995 0 0 1 1.139 0l8.966 5.989a1 1 0 0 1 .444.832zM2.793 7l7.181 4.798L17.156 7 9.974 2.202 2.793 7zm7.181 6.999a.995.995 0 0 1-.569-.178l-3.422-2.286V13c0 .788.414 1.515 1.083 2.051.731.586 1.759.949 2.908.949 1.15 0 2.178-.363 2.909-.949.669-.536 1.083-1.263 1.083-2.051v-1.465l-3.422 2.286a.999.999 0 0 1-.57.178z" class="academic-cap"/></svg>