<svg xmlns="http://www.w3.org/2000/svg" preserveAspectRatio="xMidYMid" width="120" height="100" viewBox="0 0 120 100"><path d="M119.964 26.462a1 1 0 0 1-1.246.667l-.333-.101c-3.5-1.059-7-2.119-10.449-2.278a4.002 4.002 0 0 1-7.153 1.617c-2.034 1.243-3.999 3.094-5.924 4.907-3.014 2.839-5.937 5.592-9.125 6.177a4.001 4.001 0 0 1-7.48-2.842c-3.618-3.495-5.5-9.206-7.334-14.776-1.919-5.825-3.784-11.484-7.483-13.776a4 4 0 0 1-7.051-.355c-4.124 1.982-6.444 7.803-8.85 13.842-1.752 4.398-3.548 8.905-6.144 12.325A4 4 0 0 1 35.362 37c-2.066 1.166-4.319 2.049-6.661 2.688-2.87.782-5.872 1.198-8.824 1.317a4.001 4.001 0 0 1-7.845-.547c-3.891-.868-7.56-2.623-11.229-4.379l-.228-.11a.996.996 0 1 1 .86-1.796l.227.108c3.506 1.678 7.013 3.356 10.644 4.193a4.003 4.003 0 0 1 7.576.536c2.783-.118 5.606-.51 8.296-1.244 2.13-.581 4.179-1.378 6.059-2.423a4 4 0 0 1 5.692-4.852c2.375-3.196 4.086-7.49 5.755-11.682 2.67-6.701 5.243-13.156 10.338-15.173a4 4 0 0 1 7.984.363l-.001.04c4.614 2.422 6.683 8.701 8.813 15.169 1.714 5.203 3.472 10.538 6.604 13.738a4.001 4.001 0 0 1 6.524 2.356c2.493-.724 4.982-3.067 7.545-5.481 2.092-1.971 4.23-3.984 6.546-5.333a4 4 0 0 1 7.769-1.743c3.754.128 7.456 1.249 11.157 2.37l.333.101a.999.999 0 0 1 .668 1.246zM16.005 37.999a2 2 0 1 0 0 4 2 2 0 0 0 0-4zm22-6a2 2 0 1 0 0 4 2 2 0 0 0 0-4zm22.001-30a2 2 0 1 0-.001 3.999 2 2 0 0 0 .001-3.999zm22 31.999A2 2 0 1 0 82.008 38a2 2 0 0 0-.002-4.002zm22.001-11.999a2 2 0 1 0-.001 3.999 2 2 0 0 0 .001-3.999zM9 93.999a2 2 0 0 1-2-2v-38a2 2 0 0 1 2-2h14a2 2 0 0 1 2 2v38a2 2 0 0 1-2 2H9zm14-40H9v38h14v-38zM31 94a2 2 0 0 1-2-2V58a2 2 0 0 1 2-2h14a2 2 0 0 1 2 2v34a2 2 0 0 1-2 2H31zm14-36H31v34h14V58zm8 36a2 2 0 0 1-2-2V28a2 2 0 0 1 2-2h14a2 2 0 0 1 2 2v64a2 2 0 0 1-2 2H53zm14-66H53v64h14V28zm8 66a2 2 0 0 1-2-2V50a2 2 0 0 1 2-2h14a2 2 0 0 1 2 2v42a2 2 0 0 1-2 2H75zm14-44H75v42h14V50zm8 44a2 2 0 0 1-2-2V38a2 2 0 0 1 2-2h14a2 2 0 0 1 2 2v54a2 2 0 0 1-2 2H97zm14-56H97v54h14V38zM1 98h118a1 1 0 0 1 0 2H1a1 1 0 0 1 0-2z" class="analytics"/></svg>