<svg xmlns="http://www.w3.org/2000/svg" preserveAspectRatio="xMidYMid" width="30" height="23" viewBox="0 0 30 23"><defs><style>.bank-card-1{fill:#d7dada}.bank-card-2{fill:#707277}.bank-card-3{fill:#e7eff1}.bank-card-4,.bank-card-5{fill:#707377;fill-rule:evenodd}.bank-card-5{fill:#ffa000}</style></defs><rect x="4" width="26" height="18" rx="2" ry="2" class="bank-card-1"/><path class="bank-card-2" d="M4 3h26v5H4z"/><rect y="5" width="26" height="18" rx="2" ry="2" class="bank-card-3"/><path d="M23.5 20h-3a.5.5 0 0 1 0-1h3a.5.5 0 0 1 0 1zm-6 0h-3a.5.5 0 0 1 0-1h3a.5.5 0 0 1 0 1zm-6 0h-3a.5.5 0 0 1 0-1h3a.5.5 0 0 1 0 1zm-6 0h-3a.5.5 0 0 1 0-1h3a.5.5 0 0 1 0 1z" class="bank-card-4"/><path d="M3.5 12h1a1.5 1.5 0 0 1 0 3h-1a1.5 1.5 0 1 1 0-3z" class="bank-card-5"/></svg>