<svg xmlns="http://www.w3.org/2000/svg" preserveAspectRatio="xMidYMid" width="120" height="100" viewBox="0 0 120 100"><path d="M116 99.999H4a4 4 0 0 1-4-4v-4a2 2 0 0 1 2-2.001h8V23.999a4 4 0 0 1 4-4h14V1.998a2 2 0 0 1 2-1.999h48.001l13.996 13.997v2.003H92v4h14a4 4 0 0 1 4 4v65.999h8a2 2 0 0 1 2 2.001v4a4 4 0 0 1-4 4zm-88-69v-3H18v5.999h10v-2.999zm0 4.999H18v48.001h10V35.998zM78.005 2.83v11.169h11.168L78.005 2.83zm-.006 13.169a2.007 2.007 0 0 1-1.994-2V1.998H30v82.001h60v-68H77.999zm30.001 8a2 2 0 0 0-2-2H92v4h10a2 2 0 0 1 2 2v56a2 2 0 0 1-2 2H18a2 2 0 0 1-2-2v-56a2 2 0 0 1 2-2h10v-4H14a2 2 0 0 0-2 2v65.999h38a2 2 0 0 1 2 2.001h16a2 2 0 0 1 2-2.001h38V23.999zm-6 9.999v-5.999H92v5.999h10zm-10 2v48.001h10V35.998H92zm26 56.001H70a2 2 0 0 1-2 2H52a2 2 0 0 1-2-2H2v4a2 2 0 0 0 2 2h112a2 2 0 0 0 2-2v-4zm-37-20H39a1 1 0 1 1 0-2h42a1 1 0 0 1 0 2zm0-8H39a1 1 0 1 1 0-2h42a1 1 0 1 1 0 2zm0-8H39a1 1 0 1 1 0-2h42a1 1 0 1 1 0 2zm0-8H39a1 1 0 1 1 0-2h42a1 1 0 0 1 0 2zm0-8H65a1 1 0 0 1 0-2h16a1 1 0 0 1 0 2zm0-8H65a1 1 0 0 1 0-2.001h16a1.001 1.001 0 0 1 0 2.001zm0-8H65a1 1 0 0 1 0-2h16a1 1 0 1 1 0 2zm-25 16H40a2 2 0 0 1-2-2v-20a2 2 0 0 1 2-2h16a2 2 0 0 1 2 2v20a2 2 0 0 1-2 2zm0-22H40v20h16v-20zM21 29.998a1 1 0 1 1-.001 2.001A1 1 0 0 1 21 29.998zm4 0a1 1 0 1 1-.001 2.001A1 1 0 0 1 25 29.998z" class="content"/></svg>