<svg xmlns="http://www.w3.org/2000/svg" preserveAspectRatio="xMidYMid" width="100" height="100" viewBox="0 0 100 100"><path d="M99 94.998H84V99a1.001 1.001 0 0 1-1.555.832L78 96.203l-4.445 3.629A1 1 0 0 1 72 99v-4.002H1a1 1 0 0 1-1-1v-78a1 1 0 0 1 1-1.001h22.07L48.867.133C49.239-.08 50-.003 50-.003s.761-.077 1.132.135l25.904 14.865H99a1 1 0 0 1 1 1.001v78a1 1 0 0 1-1 1zm-25-9.994v12.128l3.429-2.952a.998.998 0 0 1 1.125-.01L82 97.132V85.004l.275-.276-.883.014-2.805 2.045a.997.997 0 0 1-1.187-.011l-2.79-2.034-.886-.014.276.276zm.956-2.248a.99.99 0 0 1 .571.191l2.474 1.803 2.445-1.783a.994.994 0 0 1 .599-.211l3.029-.05.989-2.999.003.001a.984.984 0 0 1 .333-.473l2.456-1.911-.908-3.059a.986.986 0 0 1 0-.562l.908-3.059-2.393-1.863a.994.994 0 0 1-.399-.521l-.989-2.999-3.029-.049a.988.988 0 0 1-.57-.191l-2.474-1.804L75.555 65a.987.987 0 0 1-.599.212l-3.028.049-.989 2.999-.003-.001a.997.997 0 0 1-.333.473l-2.456 1.912.908 3.059a.995.995 0 0 1 0 .562l-.908 3.059 2.393 1.862c.182.12.326.299.399.521l.989 2.999 3.028.05zm-2.896 1.945l-.876-.015a.995.995 0 0 1-.931-.683l-.003.001-1.117-3.388-2.75-2.139a.998.998 0 0 1-.343-1.066l1.017-3.428-1.018-3.426a.997.997 0 0 1 .386-1.098l2.708-2.108 1.117-3.387a1.002 1.002 0 0 1 1.016-.685l3.344-.053 2.805-2.046a.996.996 0 0 1 1.187.012l2.79 2.034 3.425.054a.996.996 0 0 1 .931.685l.003-.001 1.118 3.387 2.749 2.139c.331.26.455.687.343 1.066l-1.016 3.427 1.017 3.427a1 1 0 0 1-.385 1.1l-2.708 2.106-1.118 3.388a.998.998 0 0 1-1.016.684l-.795.013c.03.096.06.192.06.298v3.999h4.079A6.995 6.995 0 0 1 94 83.076V26.918a6.993 6.993 0 0 1-5.921-5.921H11.92A6.992 6.992 0 0 1 6 26.918v56.158a6.994 6.994 0 0 1 5.92 5.922H72v-3.999c0-.106.03-.202.06-.298zM50.007 2.002L50 1.998v.008l.001.002.002-.002-.002.003c.01.018.006.016-.001.009v-.009c-.002.002-.003.003-.005.003-.002.003-.001 0-.001-.001l.001-.002h-.002L27.342 14.997h45.423L50.007 2.002zM98 16.998H2v75.999h70v-1.999H11a1 1 0 0 1-1-.999 5 5 0 0 0-5-5.001 1 1 0 0 1-1-1v-58a1 1 0 0 1 1-1 5 5 0 0 0 5-5 1 1 0 0 1 1-1.001h78c.552 0 1 .449 1 1.001a5 5 0 0 0 5 5 1 1 0 0 1 1 1v58a1 1 0 0 1-1 1 5 5 0 0 0-5 5.001 1 1 0 0 1-1 .999h-5v1.999h14V16.998zM49.996 2.014l.004.004v.001l-.004-.005zM30 55.997a1 1 0 0 1 1-1h38a1 1 0 0 1 0 2.001H31a1 1 0 0 1-1-1.001zm-5-6c0-.551.448-1 1-1h48a1.001 1.001 0 0 1 0 2.001H26a1 1 0 0 1-1-1.001zm39-8.999H36a1 1 0 1 1 0-2.001h28a1 1 0 0 1 0 2.001zM41 68.997h18a1 1 0 0 1 0 2.001H41a1 1 0 0 1 0-2.001zm37-.999a6 6 0 1 1 0 12 6 6 0 0 1 0-12zm0 10a4 4 0 1 0-.002-8.002A4 4 0 0 0 78 77.998z" class="diplom"/></svg>