<svg xmlns="http://www.w3.org/2000/svg" preserveAspectRatio="xMidYMid" width="20" height="18" viewBox="0 0 20 18"><path d="M19.91 9.356c-.009.024-3.235 8.639-9.924 8.64-6.689 0-9.915-8.616-9.924-8.64a.995.995 0 0 1 0-.711C.071 8.62 3.298 0 9.986 0c6.688 0 9.915 8.62 9.924 8.645a.995.995 0 0 1 0 .711zM9.986 2C5.383 2 2.704 7.531 2.073 9c.631 1.47 3.311 7.004 7.913 7.004S17.268 10.47 17.899 9c-.631-1.469-3.31-7-7.913-7zm0 11A3.998 3.998 0 0 1 5.99 9c0-2.209 1.789-4 3.996-4a3.998 3.998 0 0 1 3.996 4c0 2.209-1.789 4-3.996 4zm0-6a2 2 0 0 0 0 4 1.999 1.999 0 0 0 0-4z" class="eyes"/></svg>