<svg xmlns="http://www.w3.org/2000/svg" preserveAspectRatio="xMidYMid" width="120" height="110" viewBox="0 0 120 110"><path d="M119.858 44.444l-6.959 16.916a1 1 0 0 1-.933.639H63.94v46h45a1 1 0 0 1 0 2h-98a1 1 0 0 1 0-2h45v-26H15.967a1 1 0 0 1-.932-.639L8.084 64.445a.994.994 0 0 1 0-.891l6.993-17a.994.994 0 0 1 .89-.551v-.004H55.94v-4H7.967a1 1 0 0 1-.932-.639L.084 24.444a.992.992 0 0 1 0-.89l6.993-17a.994.994 0 0 1 .89-.551v-.004H55.94v-4a2 2 0 0 1 2-2.001h4c1.104 0 2 .897 2 2.001v24h48.026v.004a.997.997 0 0 1 .891.551l7.001 17a.992.992 0 0 1 0 .89zM55.94 7.999H8.58l-6.494 16 6.494 16h47.36v-32zm-39.36 40l-6.494 16 6.494 16h39.36v-32H16.58zm45.36 13v-59h-4v106h4v-47zm49.412-33H63.941v31.999h47.411l6.501-15.999-6.501-16z" class="flag"/><path d="M32.647 61.293l2.293 2.293 2.293-2.293 1.414 1.414-2.707 2.707v2.585h1v-.342a6.002 6.002 0 0 0-2-11.658 6 6 0 0 0-2 11.658v.342h1v-2.585l-2.707-2.707 1.414-1.414zm4.293 8.706h-4v2h4v-2zm-4 4c-1.1 0-2-.9-2-2v-3.07a8 8 0 1 1 12-6.93 7.998 7.998 0 0 1-4 6.93v3.07c0 1.1-.9 2-2 2h-4zm-2-40c-5.523 0-10-4.477-10-9.999 0-5.523 4.477-10 10-10s10 4.477 10 10c0 5.522-4.477 9.999-10 9.999zm0-17.999a8 8 0 1 0 0 16 8 8 0 0 0 0-16z" class="flag"/><path d="M31.94 24.999V25h-2v1h4v1h-4v2h-2v-2h-1v-1h1v-1h-1v-2h1v-4h4a3 3 0 1 1 0 5.999zm0-3.999h-2v2h2a1 1 0 0 0 0-2zm66 24v2.993c0 .451-.129.838-.4 1.199l-3 3.994c-.39.519-.95.799-1.6.799h-11c-1.102 0-2-.897-2-1.997V43c0-1.1.898-1.997 2-1.997h.964l3.492-5.579a3.01 3.01 0 0 1 4.128-.957c1.195.743 1.727 2.265 1.229 3.579l-1.044 2.957L93.94 41a4 4 0 0 1 4 4zm-2 0a2 2 0 0 0-2-2h-6.057l1.994-5.646c.173-.432-.02-.95-.41-1.192a1 1 0 0 0-1.375.321L84.013 43H81.94v8.988h11l3-3.995V45z" class="flag"/></svg>