<svg xmlns="http://www.w3.org/2000/svg" preserveAspectRatio="xMidYMid" width="29" height="30" viewBox="0 0 29 30"><defs><style>.qiwi{fill:#ffa000;fill-rule:evenodd}</style></defs><path d="M28.899 29.496c.271.336-.141.677-.448.405-3.067-2.72-5.647-3.491-8.199-3.598-1.354-.056-2.7.074-4.107.198a69.734 69.734 0 0 1-1.229.101c-.496.054-.999.082-1.509.082a13.58 13.58 0 0 1-6.734-1.751 12.823 12.823 0 0 1-4.902-4.839C.595 18.053 0 15.798 0 13.39c0-2.404.595-4.669 1.768-6.731a12.978 12.978 0 0 1 4.847-4.886A13.072 13.072 0 0 1 13.229 0c2.454 0 4.747.589 6.816 1.751a12.916 12.916 0 0 1 4.918 4.854 13.269 13.269 0 0 1 1.787 6.721 13.882 13.882 0 0 1-.368 3.183c-.034.144-.071.289-.111.432l-.011-.006c-.237.762-.68 1.84-1.503 3.224-.089.146-.138.035-.15-.047-.288-2.036-1.179-3.582-2.75-4.581a6.971 6.971 0 0 0-.904-.48 8.461 8.461 0 0 0-1.213-.425c-.266-.072-.86-.041-.645-.255.089-.088 1.376-.108 2.854-.014l.087.005c.027-.31.041-.628.041-.955 0-2.54-.84-4.612-2.568-6.332-1.73-1.721-3.752-2.559-6.182-2.559-2.489 0-4.508.838-6.17 2.563-1.671 1.732-2.484 3.786-2.484 6.279 0 2.488.836 4.533 2.554 6.253 1.718 1.72 3.713 2.557 6.1 2.557.114 0 .227-.004.34-.007l-.007-.086c-.137-1.754-.166-3.211.194-2.624.127.208.254.405.38.594a12.603 12.603 0 0 0 1.47 1.835c1.696 1.724 3.365 2.148 5.141 2.584l.113.028c.29.072.584.144.881.224 2.109.563 4.394 1.472 7.06 4.78m-5.853-10.605c-.262-.077-.458-.02-.555.157-.146.268-.038.797.257 1.259.3.468.553.705.756.705.069 0 .132-.03.18-.085.113-.129.15-.4.102-.742-.047-.35-.262-1.07-.74-1.294m-2.955 2.183c-.268 0-.491.093-.629.263-.352.434-.193 1.199.346 1.671.235.205.574.329.907.329.338 0 .621-.128.795-.358.314-.421.134-1.018-.459-1.52-.294-.248-.634-.385-.96-.385" class="qiwi"/></svg>