<svg xmlns="http://www.w3.org/2000/svg" preserveAspectRatio="xMidYMid" width="23" height="30" viewBox="0 0 23 30"><defs><style>.yandex-money-1{fill:#ffcd00}.yandex-money-1,.yandex-money-2,.yandex-money-3{fill-rule:evenodd}.yandex-money-2{fill:#e5ad00}.yandex-money-3{fill:#010101}</style></defs><path d="M0 14.887c0-1.685.143-2.755 3.657-5.36C6.567 7.37 15.894 0 15.894 0v12.304h7.093v17.708H2.216A2.215 2.215 0 0 1 0 27.811V14.887z" class="yandex-money-1"/><path d="M15.894 12.304v7.129L2.86 28.249l16.48-5.323V12.304h-3.446z" class="yandex-money-2"/><path d="M9.938 11.935c.762-.902 1.876-1.22 2.487-.711.611.509.489 1.653-.273 2.555-.762.902-1.876 1.22-2.487.711-.611-.51-.489-1.653.273-2.555" class="yandex-money-3"/></svg>