<svg xmlns="http://www.w3.org/2000/svg" xmlns:xlink="http://www.w3.org/1999/xlink" width="60" height="60" preserveAspectRatio="xMidYMid" viewBox="0 0 60 60"><defs><style>.cls-1{fill:#fff;fill-rule:evenodd}</style></defs><path d="M38.993,31.736 L24.992,39.737 C24.355,40.101 23.629,40.098 22.996,39.731 C22.362,39.363 21.999,38.734 21.999,38.001 L21.999,21.998 C21.999,21.265 22.362,20.636 22.996,20.269 C23.629,19.901 24.355,19.898 24.992,20.262 L38.993,28.263 C39.633,28.629 40.000,29.262 40.000,30.000 C40.000,30.737 39.633,31.370 38.993,31.736 L38.993,31.736 ZM30.000,60.000 C46.568,60.000 60.000,46.568 60.000,30.000 C60.000,13.431 46.568,-0.000 30.000,-0.000 C13.431,-0.000 -0.000,13.431 -0.000,30.000 C-0.000,46.568 13.431,60.000 30.000,60.000 L30.000,60.000 ZM30.000,58.000 C45.464,58.000 58.000,45.464 58.000,30.000 C58.000,14.536 45.464,2.000 30.000,2.000 C14.536,2.000 2.000,14.536 2.000,30.000 C2.000,45.464 14.536,58.000 30.000,58.000 L30.000,58.000 ZM38.000,30.000 L23.999,21.998 L23.999,38.001 L38.000,30.000 Z" class="cls-1"/></svg>