<svg xmlns="http://www.w3.org/2000/svg" preserveAspectRatio="xMidYMid" width="120" height="120" viewBox="0 0 120 120"><path d="M119 60.999h-3.025c-.265 15.064-6.462 28.684-16.377 38.598-9.914 9.914-23.533 16.112-38.598 16.377v3.025a1 1 0 0 1-2 0v-3.025c-15.065-.265-28.684-6.463-38.598-16.377-9.915-9.914-16.113-23.534-16.377-38.598H1a1 1 0 0 1 0-2.001h3.025c.265-15.065 6.462-28.684 16.377-38.597C30.316 10.486 43.935 4.288 59 4.023V.999a1 1 0 0 1 2 0v3.024c15.065.265 28.684 6.463 38.598 16.378 9.914 9.913 16.112 23.532 16.377 38.597H119a1.001 1.001 0 0 1 0 2.001zm-8-2.001h2.975c-.265-14.513-6.239-27.632-15.791-37.183C88.632 12.263 75.513 6.288 61 6.023v2.976a1 1 0 0 1-2 0V6.023c-14.514.265-27.633 6.24-37.184 15.792-9.552 9.551-15.527 22.67-15.791 37.183H9a1.001 1.001 0 0 1 0 2.001H6.025c.264 14.514 6.239 27.632 15.791 37.184 9.551 9.552 22.67 15.526 37.184 15.791v-2.975a1 1 0 1 1 2 0v2.975c14.513-.265 27.632-6.239 37.184-15.791 9.552-9.552 15.526-22.67 15.791-37.184H111a1 1 0 1 1 0-2.001zm-51 43.001c-11.598 0-22.098-4.701-29.699-12.302-7.6-7.6-12.302-18.1-12.302-29.698 0-11.598 4.702-22.098 12.302-29.699C37.902 22.7 48.402 17.999 60 17.999c11.598 0 22.098 4.701 29.698 12.301C97.299 37.901 102 48.401 102 59.999c0 11.598-4.701 22.098-12.302 29.698-7.6 7.601-18.1 12.302-29.698 12.302zm28.284-70.285C81.046 24.476 71.046 19.999 60 19.999s-21.047 4.477-28.285 11.715C24.477 38.952 20 48.953 20 59.999s4.477 21.046 11.715 28.285C38.953 95.522 48.954 99.999 60 99.999s21.046-4.477 28.284-11.715C95.523 81.045 100 71.045 100 59.999s-4.477-21.047-11.716-28.285zM74.927 92.356a.995.995 0 0 1-1.842.043L59.086 60.397a.997.997 0 0 1 1.312-1.313l32.003 13.998a.998.998 0 0 1-.096 1.864L79.771 79.77l-4.844 12.586zM61.934 61.933L73.94 89.38l4.131-10.736a.993.993 0 0 1 .574-.574l10.736-4.131-27.447-12.006zm9.38-13.248a.998.998 0 0 1 0 1.413l-4.243 4.244a.999.999 0 1 1-1.414-1.414l4.244-4.243a.998.998 0 0 1 1.413 0zm-16.97 18.384L50.1 71.312a1 1 0 0 1-1.414-1.413l4.244-4.244a1 1 0 0 1 1.414 1.414zm-2.343-7.071a1 1 0 0 1-1 1.001H45a1 1 0 1 1 0-2.001h6.001c.552 0 1 .449 1 1zM50.1 48.685l4.244 4.243a1 1 0 0 1-1.414 1.414l-4.244-4.244a1 1 0 1 1 1.414-1.413zm9.9-4.687a1 1 0 0 1 1.001.999v6.002a1.001 1.001 0 0 1-2.001 0v-6.002a1 1 0 0 1 1-.999zm24.869 23.607A25.995 25.995 0 0 0 86 59.999c0-7.18-2.91-13.681-7.615-18.386A25.922 25.922 0 0 0 60 33.999a25.92 25.92 0 0 0-18.385 7.614A25.921 25.921 0 0 0 34 59.999c0 7.18 2.91 13.68 7.615 18.384A25.914 25.914 0 0 0 60 85.999c2.647 0 5.201-.396 7.608-1.131l.806 1.844A27.978 27.978 0 0 1 60 87.999c-7.732 0-14.732-3.134-19.799-8.201S32 67.731 32 59.999c0-7.732 3.134-14.732 8.201-19.799S52.268 31.998 60 31.998c7.732 0 14.732 3.135 19.799 8.202S88 52.267 88 59.999c0 2.931-.451 5.757-1.286 8.413l-1.845-.807z" class="context-adv"/></svg>