<svg xmlns="http://www.w3.org/2000/svg" preserveAspectRatio="xMidYMid" width="120" height="80" viewBox="0 0 120 80"><path d="M115.999 79.998h-112A4 4 0 0 1 0 75.997v-4a2 2 0 0 1 2-2h8v-66a4 4 0 0 1 4-4h92a4 4 0 0 1 4 4v66h8a2 2 0 0 1 2 2v4a4.001 4.001 0 0 1-4.001 4.001zM108 3.997a2 2 0 0 0-2.001-2H14a2 2 0 0 0-2 2v66h38a2 2 0 0 1 2 2h16a2 2 0 0 1 2-2h38v-66zm10 68H70a2 2 0 0 1-2 2H52a2 2 0 0 1-2-2H2v4a2 2 0 0 0 1.999 2h112a2 2 0 0 0 2.001-2v-4zM16 63.998V7.997a2 2 0 0 1 2-2h84a2 2 0 0 1 2 2v56.001a2 2 0 0 1-2 1.999H18a2 2 0 0 1-2-1.999zm86-56.001H18v6h84v-6zm0 8H18v48.001h84V15.997zM53.992 30.264l14 7.997A1.949 1.949 0 0 1 69 39.996a1.95 1.95 0 0 1-1.008 1.735l-14 7.996a1.954 1.954 0 0 1-1.996-.005 1.953 1.953 0 0 1-.996-1.73V32c0-.733.362-1.362.996-1.73a1.956 1.956 0 0 1 1.996-.006zM53 47.992l14-7.996L53 32v15.992zM21 9.997a1 1 0 1 1 0 2 1 1 0 0 1 0-2zm4 0a1 1 0 1 1 0 2 1 1 0 0 1 0-2zm3.999 0a1 1 0 1 1 0 2.001 1 1 0 0 1 0-2.001z" class="cyber-play"/></svg>