<svg xmlns="http://www.w3.org/2000/svg" preserveAspectRatio="xMidYMid" width="20" height="18" viewBox="0 0 20 18"><path d="M17.994 18H2.001a1.952 1.952 0 0 1-1.729-.996 1.954 1.954 0 0 1-.006-1.996l7.996-14A1.951 1.951 0 0 1 9.998 0c.737 0 1.37.367 1.735 1.008l7.996 14a1.954 1.954 0 0 1-.006 1.996 1.952 1.952 0 0 1-1.729.996zm-8.141-3.488l2.999-5a.996.996 0 0 0-1.71-1.023l-1.144 1.907-1.144-1.907a.996.996 0 0 0-1.71 1.023l1.692 2.821-.693 1.155a.997.997 0 0 0 1.71 1.024zM17.994 16L9.998 2 2.001 16h15.993z" class="edu-sign" fill-rule="evenodd"/></svg>