<svg xmlns="http://www.w3.org/2000/svg" preserveAspectRatio="xMidYMid" width="20" height="18" viewBox="0 0 20 18"><path d="M9.982.004c6.688 0 9.915 8.62 9.924 8.645a.995.995 0 0 1 0 .711c-.005.011-.714 1.906-2.154 3.918l1.221 1.223L17.475 16 16.4 14.925l-1.394-1.395-1.96-1.962-1.424-1.426-2.781-2.783-1.424-1.426-1.954-1.956-1.397-1.398L2.988 1.5 4.487 0 5.75 1.264C6.962.504 8.372.004 9.982.004zm6.351 11.853a17.698 17.698 0 0 0 1.562-2.853c-.631-1.469-3.31-7-7.913-7-1.022 0-1.949.273-2.78.713L9.51 5.028a3.998 3.998 0 0 1 4.44 4.444l2.383 2.385zm-5.064.931l-1.875-1.876a2.003 2.003 0 0 1-1.322-1.323L6.197 7.713a3.998 3.998 0 0 0 5.072 5.075zm3.544 3.548l-1.419-1.42c-.985.657-2.123 1.092-3.412 1.092-4.602 0-7.282-5.534-7.913-7.004.275-.64.939-2.051 1.982-3.44l-1.409-1.41C.913 6.365.063 8.636.058 8.649a.995.995 0 0 0 0 .711C.067 9.384 3.293 18 9.982 18c1.883 0 3.491-.683 4.831-1.664z" class="eyes-cross"/></svg>