<svg xmlns="http://www.w3.org/2000/svg" preserveAspectRatio="xMidYMid" width="120" height="100" viewBox="0 0 120 100"><path d="M116 99.999H4a4 4 0 0 1-4-4v-4.001a2 2 0 0 1 2-2h8V23.999a4 4 0 0 1 4-4h22.003v-18c0-1.101.899-2 1.999-2h31.999l13.996 13.997v6.003H106a4 4 0 0 1 4 4v65.999h8a2 2 0 0 1 2 2v4.001a4 4 0 0 1-4 4zM36.003 27.998H18v6h18.003v-6zm0 8.001H18v47.999h84V35.999H83.997v6.502l5.203 3.901c.52.39.8.949.8 1.6v29.997c0 .361-.097.701-.266.994l.004.007h-.008a2.001 2.001 0 0 1-1.73.999H31.999a2.004 2.004 0 0 1-1.73-.999h-.007l.003-.007a1.984 1.984 0 0 1-.265-.994V48.002c0-.651.279-1.21.8-1.6l5.203-3.901v-6.502zM102 33.998v-6H83.997v6H102zM83.997 45v5.007l2.666-1.999H88v-.006L83.997 45zm1.331 32.999L60 59.007 34.672 77.999h50.656zM36.003 45l-4.004 3.002v.006h1.338l2.666 1.999V45zm-4.004 4.504v27.999L50.67 63.504l-18.671-14zM70.005 2.83V14h11.168L70.005 2.83zm11.993 13.169H70.005c-1.098 0-2-.899-2-1.999V1.999H38.002v49.507l14.334 10.748 6.464-4.847a1.977 1.977 0 0 1 2.4 0l6.464 4.847 14.334-10.748V15.999zM69.33 63.503l18.67 14V49.504L69.33 63.503zM108 23.999a2 2 0 0 0-2-2H83.997v3.999H102a2 2 0 0 1 2 2v56a2 2 0 0 1-2 2H18a2 2 0 0 1-2-2v-56a2 2 0 0 1 2-2h18.003v-3.999H14a2 2 0 0 0-2 2v65.999h38a2 2 0 0 1 2 2h16a2 2 0 0 1 2-2h38V23.999zm10 67.999H70a2 2 0 0 1-2 2.001H52a2 2 0 0 1-2-2.001H2v4.001a2 2 0 0 0 2 1.999h112a2 2 0 0 0 2-1.999v-4.001zM60.644 50.761a.997.997 0 0 1-1.303-.012l-3.769-3.205-4.803.205a.998.998 0 0 1-1.009-.766l-1.312-5.022-4.028-2.899a.997.997 0 0 1-.362-1.129l1.688-4.934-1.69-4.933a1 1 0 0 1 .414-1.165l3.978-2.864 1.317-5.041a1 1 0 0 1 1.024-.746l4.783.204 3.783-3.216a.998.998 0 0 1 1.303.011l3.769 3.205 4.803-.204a.996.996 0 0 1 1.009.765l1.312 5.022 4.029 2.9a.996.996 0 0 1 .362 1.128l-1.688 4.934 1.689 4.933a1 1 0 0 1-.413 1.166l-3.979 2.863-1.317 5.042a.996.996 0 0 1-1.023.745l-4.784-.204-3.783 3.217zm9.069-9.648a.99.99 0 0 1 .383-.559l3.719-2.677-1.561-4.558a.988.988 0 0 1 0-.64l1.561-4.558-3.704-2.665a.987.987 0 0 1-.398-.57l-1.205-4.61-4.351.186a.994.994 0 0 1-.723-.233l-3.435-2.92-3.433 2.92a.993.993 0 0 1-.684.234l-4.391-.187-1.204 4.61a1 1 0 0 1-.383.559l-3.719 2.676 1.561 4.558a.995.995 0 0 1 0 .64l-1.561 4.558 3.704 2.665c.19.132.336.329.398.571l1.204 4.609 4.352-.185a.99.99 0 0 1 .723.232l3.433 2.92 3.435-2.92c.184-.154.424-.244.683-.234l4.391.187 1.205-4.609zM62 36a4 4 0 1 1 8-.002A4 4 0 0 1 62 36zm3.999 2a2 2 0 1 0-.001-4.001A2 2 0 0 0 65.999 38zm-10.233 1.636a.997.997 0 0 1-1.531-1.273l9.999-12.001a.997.997 0 0 1 1.531 1.274l-9.999 12zm-1.765-5.637a4 4 0 1 1 0-8 4 4 0 0 1 0 8zM54 28a2 2 0 1 0 0 3.998A2 2 0 0 0 54 28zm-33 1.998a1 1 0 1 1 0 2 1 1 0 0 1 0-2zm4 0a1 1 0 1 1 0 2 1 1 0 0 1 0-2zM29 30a1 1 0 1 1 0 2 1 1 0 0 1 0-2z" class="online-marketing"/></svg>