<svg xmlns="http://www.w3.org/2000/svg" preserveAspectRatio="xMidYMid" width="120" height="100" viewBox="0 0 120 100"><path d="M116 99.999H4a4 4 0 0 1-4-4v-4a2 2 0 0 1 2-2h8v-66a4 4 0 0 1 4-4.001h20.717c.417-.878.864-1.744 1.372-2.579l-1.875-2.412a1.992 1.992 0 0 1 .164-2.642l5.988-5.987a1.992 1.992 0 0 1 2.642-.166l2.415 1.876a27.95 27.95 0 0 1 7.979-3.306l.379-3.031a1.991 1.991 0 0 1 1.984-1.752h8.469c1.014 0 1.859.745 1.985 1.752l.38 3.032a27.947 27.947 0 0 1 7.98 3.306l2.412-1.877a1.992 1.992 0 0 1 2.642.166l5.988 5.987c.717.718.787 1.842.165 2.642l-1.876 2.415c.508.832.954 1.697 1.372 2.576H106a4 4 0 0 1 4 4.001v66h8a2 2 0 0 1 2 2v4a4 4 0 0 1-4 4zM82.33 16.195l1.877-2.415-5.988-5.988-2.412 1.875a1.968 1.968 0 0 1-2.269.13 25.946 25.946 0 0 0-7.409-3.069 1.968 1.968 0 0 1-1.514-1.696l-.381-3.033h-8.469l-.378 3.029a1.967 1.967 0 0 1-1.513 1.696 26.008 26.008 0 0 0-7.409 3.071c-.723.443-1.6.393-2.269-.127l-2.415-1.876-5.989 5.988 1.876 2.412c.52.669.57 1.544.129 2.268a25.957 25.957 0 0 0-3.069 7.409 1.968 1.968 0 0 1-1.695 1.515L30 27.765v8.468l3.03.379a1.968 1.968 0 0 1 1.696 1.513 25.97 25.97 0 0 0 3.07 7.408c.442.723.393 1.6-.127 2.27l-1.877 2.415 5.989 5.988 2.412-1.876a1.97 1.97 0 0 1 2.268-.129 25.974 25.974 0 0 0 7.409 3.069 1.97 1.97 0 0 1 1.515 1.695l.38 3.034h8.469l.379-3.031a1.966 1.966 0 0 1 1.512-1.695 25.967 25.967 0 0 0 7.409-3.071 1.969 1.969 0 0 1 2.27.127l2.415 1.877 5.988-5.988-1.876-2.412a1.97 1.97 0 0 1-.129-2.269 25.98 25.98 0 0 0 3.069-7.408 1.968 1.968 0 0 1 1.695-1.515L90 36.233v-8.468l-3.031-.379a1.968 1.968 0 0 1-1.696-1.513 25.959 25.959 0 0 0-3.07-7.408 1.969 1.969 0 0 1 .127-2.27zM28 30.999v-3.001H18v6h10v-2.999zm0 5.234v-.235H18v48.001h12.332l1.724-4.162a1.991 1.991 0 0 1 2.378-1.164l2.948.809a27.93 27.93 0 0 1 6.107-6.109l-.81-2.945a1.992 1.992 0 0 1 1.163-2.378l7.824-3.241a1.993 1.993 0 0 1 2.504.859l1.511 2.657A27.766 27.766 0 0 1 60 67.989c1.446 0 2.889.111 4.318.336l1.512-2.657a1.992 1.992 0 0 1 2.504-.859l7.824 3.241a1.992 1.992 0 0 1 1.163 2.378l-.81 2.945a27.951 27.951 0 0 1 6.107 6.109l2.948-.809a1.99 1.99 0 0 1 2.377 1.164l1.725 4.162H102V35.998H92v.235a1.993 1.993 0 0 1-1.752 1.985l-3.033.381a27.967 27.967 0 0 1-3.305 7.979l1.876 2.413c.622.8.552 1.924-.165 2.641l-5.988 5.988a1.991 1.991 0 0 1-2.642.165l-2.415-1.876a27.97 27.97 0 0 1-7.979 3.307l-.378 3.031a1.992 1.992 0 0 1-1.985 1.752h-8.469a1.991 1.991 0 0 1-1.984-1.752l-.381-3.033a27.928 27.928 0 0 1-7.98-3.305l-2.412 1.876c-.8.622-1.924.553-2.642-.165l-5.988-5.988a1.99 1.99 0 0 1-.164-2.641l1.876-2.415a27.961 27.961 0 0 1-3.308-7.98l-3.03-.378A1.992 1.992 0 0 1 28 36.233zm32 47.758c.144 0 .287.003.431.008h27.072l-1.407-3.398-2.95.809a1.966 1.966 0 0 1-2.145-.75 25.94 25.94 0 0 0-5.67-5.672 1.97 1.97 0 0 1-.749-2.146l.81-2.944-7.824-3.241-1.512 2.656a1.967 1.967 0 0 1-2.048.988 25.9 25.9 0 0 0-8.016 0 1.967 1.967 0 0 1-2.048-.988l-1.513-2.656-7.824 3.241.81 2.944a1.968 1.968 0 0 1-.749 2.146 25.983 25.983 0 0 0-5.67 5.672 1.966 1.966 0 0 1-2.145.75l-2.949-.809-1.407 3.398h27.071c.144-.005.288-.008.432-.008zm32-49.993h10v-6H92v6zm16-9.999a2 2 0 0 0-2-2H86.138a28.133 28.133 0 0 1 1.079 3.402l3.031.379a2 2 0 0 1 .752.263v-.044h11a2 2 0 0 1 2 1.999v56.001a2 2 0 0 1-2 2H18a2 2 0 0 1-2-2V27.998a2 2 0 0 1 2-1.999h11v.044a2 2 0 0 1 .752-.263l3.032-.38a27.86 27.86 0 0 1 1.077-3.401H14a2 2 0 0 0-2 2v66h38a2 2 0 0 1 2 2h16a2 2 0 0 1 2-2h38v-66zm10 68H70a2 2 0 0 1-2 2H52a2 2 0 0 1-2-2H2v4a2 2 0 0 0 2 2h112a2 2 0 0 0 2-2v-4zm-97-62a1 1 0 1 1 .001 1.999A1 1 0 0 1 21 29.999zm4 0a1 1 0 1 1 .001 1.999A1 1 0 0 1 25 29.999zm35 14c-6.628 0-12-5.373-12-12 0-6.628 5.372-12 12-12 6.627 0 12 5.372 12 12 0 6.627-5.373 12-12 12zm0-2c4.099 0 7.619-2.47 9.162-6.001H50.837c1.544 3.531 5.063 6.001 9.163 6.001zm0-20c-3.269 0-6.162 1.575-7.987 4h15.973c-1.825-2.425-4.718-4-7.986-4zm9 5.663v.336H50.837a9.975 9.975 0 0 0-.636 6h19.598A9.94 9.94 0 0 0 69 27.662z" class="optimization"/></svg>