<svg xmlns="http://www.w3.org/2000/svg" preserveAspectRatio="xMidYMid" width="112" height="120" viewBox="0 0 112 120"><path d="M102.334 56.334C96.362 62.305 88.112 65.999 79 65.999c-9.113 0-17.363-3.694-23.335-9.665a32.906 32.906 0 0 1-9.416-19.335h-4.248v2c0 .548-.225 1.048-.587 1.41l-.003.003a1.994 1.994 0 0 1-1.41.587H14.004a7.978 7.978 0 0 1-5.654-2.345 7.963 7.963 0 0 1-2.346-5.655c0-2.205.896-4.204 2.344-5.653l.004-.004a7.978 7.978 0 0 1 5.652-2.343h25.997c.548 0 1.047.226 1.41.587l.003.004c.362.362.587.862.587 1.409v2h4.248a32.909 32.909 0 0 1 9.416-19.335C61.637 3.693 69.887-.001 79-.001c9.112 0 17.362 3.694 23.334 9.665C108.306 15.636 112 23.887 112 32.999c0 9.113-3.694 17.363-9.666 23.335zM40.001 26.999H14.004a5.98 5.98 0 0 0-4.242 1.754l-.004.004a5.977 5.977 0 0 0-1.753 4.242c0 1.657.671 3.157 1.757 4.243v.003a5.98 5.98 0 0 0 4.242 1.754h25.997v-2H40v-8h.001v-2zm2 4v4h4.064a33.122 33.122 0 0 1-.066-2c0-.672.026-1.338.066-2h-4.064zm58.919-19.92c-5.609-5.61-13.36-9.08-21.92-9.08-8.561 0-16.312 3.47-21.921 9.08-5.61 5.609-9.08 13.36-9.08 21.92 0 8.56 3.47 16.311 9.08 21.921 5.609 5.609 13.36 9.079 21.921 9.079 8.56 0 16.311-3.47 21.92-9.079 5.61-5.61 9.08-13.361 9.08-21.921 0-8.56-3.47-16.311-9.08-21.92zm-2.829 41.012A26.915 26.915 0 0 1 79 59.999a26.915 26.915 0 0 1-19.092-7.908C55.022 47.204 52 40.454 52 32.999a26.913 26.913 0 0 1 7.908-19.091A26.916 26.916 0 0 1 79 5.999c7.455 0 14.205 3.023 19.091 7.909A26.914 26.914 0 0 1 106 32.999c0 7.455-3.023 14.205-7.909 19.092zm-1.414-36.77A24.924 24.924 0 0 0 79 7.999a24.922 24.922 0 0 0-17.678 7.322A24.922 24.922 0 0 0 54 32.999a24.923 24.923 0 0 0 7.322 17.678A24.926 24.926 0 0 0 79 57.999a24.924 24.924 0 0 0 17.677-7.322 24.923 24.923 0 0 0 7.322-17.678 24.922 24.922 0 0 0-7.322-17.678zM85.006 49.999h-2.99c-1.102 0-2-.899-2-2V39.05l-4.405 9.771a1.964 1.964 0 0 1-1.824 1.178h-3.78a1.948 1.948 0 0 1-1.685-.923 1.948 1.948 0 0 1-.13-1.917l4.946-10.681c-2.853-2.104-4.131-5.264-4.131-9.039 0-6.633 4.406-11.44 11.068-11.44h4.932c1.101 0 2 .898 2 2v30c0 1.101-.899 2-2.001 2zm.001-32h-4.932c-4.8 0-9.068 3.147-9.068 9.44 0 4.49 2.016 6.923 4.692 8.266l-5.692 12.294h3.78l5.184-11.496h3.045v11.496h2.991v-30zm-10.475 9.44c0-4.992 3.108-6.44 5.742-6.44h1.742v12.75h-1.742c-2.846 0-5.742-1.484-5.742-6.31zm5.484-4.435c-2.556.116-3.484 1.959-3.484 4.435 0 2.543.914 4.203 3.484 4.305v-8.74zm-23.681 40.66a32.909 32.909 0 0 1 9.416 19.335h4.248v-2c0-.547.225-1.047.587-1.41l.004-.004a1.993 1.993 0 0 1 1.409-.586h25.997c2.205 0 4.205.897 5.654 2.346a7.957 7.957 0 0 1 2.346 5.654 7.982 7.982 0 0 1-2.343 5.653l-.004.004a7.984 7.984 0 0 1-5.653 2.343H71.999a1.99 1.99 0 0 1-1.409-.587l-.004-.004a1.988 1.988 0 0 1-.587-1.409v-2h-4.248a32.909 32.909 0 0 1-9.416 19.334c-5.972 5.972-14.223 9.665-23.335 9.665s-17.363-3.693-23.334-9.665C3.694 104.361 0 96.111 0 86.998c0-9.111 3.694-17.362 9.666-23.334 5.971-5.971 14.222-9.666 23.334-9.666s17.363 3.695 23.335 9.666zM72 82.999v10h25.996c1.659 0 3.16-.67 4.242-1.754l.004-.003a5.982 5.982 0 0 0 1.754-4.243 5.976 5.976 0 0 0-1.758-4.242v-.004a5.978 5.978 0 0 0-4.242-1.754H72v2zm-2.001 5.999v-3.999h-4.064c.039.662.066 1.327.066 1.999 0 .673-.027 1.338-.066 2h4.064zM2 86.998c0 8.561 3.47 16.311 9.08 21.921 5.609 5.61 13.36 9.08 21.92 9.08 8.56 0 16.311-3.47 21.921-9.08C60.53 103.309 64 95.559 64 86.998c0-8.56-3.47-16.311-9.079-21.92-5.61-5.609-13.361-9.079-21.921-9.079-8.56 0-16.311 3.47-21.92 9.079C5.47 70.687 2 78.438 2 86.998zm50.091-19.091A26.912 26.912 0 0 1 60 86.998a26.912 26.912 0 0 1-7.909 19.092A26.911 26.911 0 0 1 33 113.998a26.915 26.915 0 0 1-19.091-7.908 26.915 26.915 0 0 1-7.908-19.092 26.915 26.915 0 0 1 7.908-19.091A26.915 26.915 0 0 1 33 59.999a26.911 26.911 0 0 1 19.091 7.908zM8.001 86.998a24.922 24.922 0 0 0 7.322 17.678A24.92 24.92 0 0 0 33 111.998a24.922 24.922 0 0 0 17.678-7.322A24.922 24.922 0 0 0 58 86.998a24.925 24.925 0 0 0-7.322-17.677A24.922 24.922 0 0 0 33 61.999a24.921 24.921 0 0 0-17.677 7.322 24.921 24.921 0 0 0-7.322 17.677zm36.04-10.84c.409.389.62.873.624 1.438a1.93 1.93 0 0 1-.605 1.446l-2.564 2.499a1.997 1.997 0 0 1-2.749.04c-1.48-1.36-3.2-2.015-5.213-2.015-4.18 0-7.561 3.242-7.561 7.447s3.381 7.447 7.561 7.447c2.1 0 3.823-.551 5.329-2.028.342-.335.61-.859.815-1.433H34c-1.102 0-2-.898-2-2v-3c0-1.102.898-2 2-2h11.841c.956 0 1.76.653 1.957 1.589.18.856.235 1.761.235 2.635 0 3.565-1.21 7.049-3.768 9.541-2.938 2.972-6.573 4.234-10.731 4.234-8.294 0-15.534-6.577-15.534-15 0-8.421 7.241-14.999 15.534-14.999 4.05 0 7.57 1.376 10.507 4.159zM20 86.998c0 7.165 6.181 13 13.534 13 3.972 0 6.967-1.271 9.309-3.639 2.401-2.341 3.191-5.478 3.191-8.136 0-.823-.06-1.589-.193-2.224H34v3h8.188c-.267 1.993-.887 3.835-1.925 4.861-1.274 1.242-3.261 2.6-6.729 2.6-5.366 0-9.561-4.218-9.561-9.447 0-5.229 4.195-9.446 9.561-9.446 2.89 0 5.01 1.112 6.566 2.542l2.565-2.499c-2.164-2.051-5.07-3.611-9.131-3.611C26.181 73.999 20 79.834 20 86.998z" class="seo"/></svg>