<svg xmlns="http://www.w3.org/2000/svg" preserveAspectRatio="xMidYMid" width="108" height="108" viewBox="0 0 108 108"><path d="M97.054 37.815a45.46 45.46 0 0 1 2.123 7.489c.54 2.822.823 5.729.823 8.695s-.283 5.873-.823 8.694a45.555 45.555 0 0 1-2.122 7.489 20.065 20.065 0 0 1 5.087 3.675A19.937 19.937 0 0 1 108 87.998a19.94 19.94 0 0 1-5.858 14.143A19.941 19.941 0 0 1 88 107.999a19.938 19.938 0 0 1-14.142-5.858 20.052 20.052 0 0 1-3.675-5.088 45.66 45.66 0 0 1-7.489 2.124 46.298 46.298 0 0 1-8.694.822c-2.966 0-5.873-.283-8.694-.822a45.699 45.699 0 0 1-7.49-2.124 20.024 20.024 0 0 1-3.674 5.088A19.938 19.938 0 0 1 20 107.999a19.94 19.94 0 0 1-14.142-5.858A19.94 19.94 0 0 1 0 87.998a19.937 19.937 0 0 1 5.858-14.141 20.065 20.065 0 0 1 5.087-3.675 45.656 45.656 0 0 1-2.123-7.489A46.214 46.214 0 0 1 8 53.999c0-2.966.282-5.873.822-8.695a45.656 45.656 0 0 1 2.123-7.489 20.043 20.043 0 0 1-5.087-3.674A19.94 19.94 0 0 1 0 19.999 19.94 19.94 0 0 1 5.858 5.857 19.94 19.94 0 0 1 20-.001a19.938 19.938 0 0 1 14.142 5.858 20.052 20.052 0 0 1 3.675 5.088A45.432 45.432 0 0 1 54 7.999c2.966 0 5.873.282 8.694.823a45.46 45.46 0 0 1 7.489 2.123 20.052 20.052 0 0 1 3.675-5.088A19.94 19.94 0 0 1 88-.001a19.937 19.937 0 0 1 14.141 5.858A19.936 19.936 0 0 1 108 19.999a19.936 19.936 0 0 1-5.859 14.142 20.026 20.026 0 0 1-5.087 3.674zm.162 24.503c.515-2.687.784-5.469.784-8.319 0-2.851-.269-5.632-.784-8.319a43.602 43.602 0 0 0-1.984-7.051A19.9 19.9 0 0 1 88 39.999c-5.163 0-9.853-1.973-13.401-5.185l-5.784 5.784C72.027 44.146 74 48.837 74 53.999c0 5.162-1.973 9.853-5.185 13.401l5.783 5.784c3.549-3.212 8.239-5.186 13.402-5.186 2.554 0 4.987.498 7.232 1.37a43.533 43.533 0 0 0 1.984-7.05zm-32.243-7.319a34.826 34.826 0 0 1-.883 7h6.008a17.987 17.987 0 0 0 1.851-7h-6.976zm6.976-2a17.996 17.996 0 0 0-1.851-7.001H64.09c.507 2.161.817 4.522.883 7.001h6.976zM63.539 64c-.443 1.42-.972 2.735-1.585 3.899a15.499 15.499 0 0 1-2.148 3.124 18.006 18.006 0 0 0 6.922-4.296c.83-.83 1.568-1.748 2.222-2.727h-5.411zm-3.351 2.969c.472-.897.887-1.898 1.251-2.969H55v7.873c1.975-.459 3.786-2.241 5.188-4.904zM53 64h-6.439a20.723 20.723 0 0 0 1.251 2.969c1.401 2.663 3.213 4.445 5.188 4.904V64zm-6.954 3.899c-.613-1.164-1.142-2.479-1.585-3.899H39.05a17.873 17.873 0 0 0 2.222 2.727 18.01 18.01 0 0 0 6.921 4.296 15.537 15.537 0 0 1-2.147-3.124zm-8.144-5.9h6.008a34.826 34.826 0 0 1-.883-7H36.05a18.005 18.005 0 0 0 1.852 7zm5.125-9c.066-2.479.376-4.84.883-7.001h-6.008a18.015 18.015 0 0 0-1.852 7.001h6.977zm1.434-9.001c.443-1.42.972-2.735 1.585-3.899a15.509 15.509 0 0 1 2.147-3.124 17.985 17.985 0 0 0-6.921 4.296c-.83.83-1.569 1.748-2.222 2.727h5.411zm3.351-2.969a20.675 20.675 0 0 0-1.251 2.969H53v-7.873c-1.975.459-3.787 2.241-5.188 4.904zm-1.841 4.969c-.539 2.134-.874 4.495-.945 7.001H53v-7.001h-7.029zm-.945 9.001c.071 2.505.406 4.867.945 7H53v-7h-7.974zm17.003 7c.539-2.133.874-4.495.945-7H55v7h7.029zm.945-9c-.071-2.506-.406-4.867-.945-7.001H55v7.001h7.974zM55 43.998h6.439a20.675 20.675 0 0 0-1.251-2.969c-1.402-2.663-3.213-4.445-5.188-4.904v7.873zm6.954-3.899c.613 1.164 1.142 2.479 1.585 3.899h5.411a17.933 17.933 0 0 0-2.222-2.727 17.996 17.996 0 0 0-6.922-4.297c.788.882 1.514 1.92 2.148 3.125zm13.318 60.628A17.943 17.943 0 0 0 88 105.998c4.97 0 9.471-2.014 12.728-5.271A17.946 17.946 0 0 0 106 87.998c0-4.97-2.015-9.47-5.272-12.728A17.949 17.949 0 0 0 88 69.999a17.947 17.947 0 0 0-12.728 5.271A17.947 17.947 0 0 0 70 87.998c0 4.971 2.015 9.472 5.272 12.729zm-29.591-3.512c2.687.515 5.468.784 8.319.784 2.85 0 5.632-.269 8.319-.784a43.664 43.664 0 0 0 7.05-1.984A19.93 19.93 0 0 1 68 87.998c0-5.162 1.973-9.852 5.185-13.401l-5.784-5.783c-3.548 3.211-8.239 5.185-13.401 5.185-5.163 0-9.853-1.974-13.401-5.185l-5.784 5.783C38.027 78.146 40 82.836 40 87.998c0 2.554-.497 4.988-1.37 7.233a43.704 43.704 0 0 0 7.051 1.984zM7.272 75.27A17.947 17.947 0 0 0 2 87.998c0 4.971 2.015 9.472 5.272 12.729A17.943 17.943 0 0 0 20 105.998c4.971 0 9.471-2.014 12.728-5.271A17.946 17.946 0 0 0 38 87.998c0-4.97-2.015-9.47-5.272-12.728A17.947 17.947 0 0 0 20 69.999 17.947 17.947 0 0 0 7.272 75.27zm3.511-29.591a44.265 44.265 0 0 0-.783 8.32c0 2.85.269 5.632.783 8.319a43.795 43.795 0 0 0 1.984 7.05A19.93 19.93 0 0 1 20 67.998c5.162 0 9.853 1.974 13.401 5.186l5.784-5.784C35.973 63.852 34 59.161 34 53.999c0-5.162 1.973-9.853 5.185-13.401l-5.784-5.784c-3.548 3.212-8.239 5.185-13.401 5.185-2.554 0-4.987-.497-7.233-1.37a43.795 43.795 0 0 0-1.984 7.05zM32.728 7.271A17.944 17.944 0 0 0 20 1.999 17.944 17.944 0 0 0 7.272 7.271 17.944 17.944 0 0 0 2 19.999c0 4.97 2.015 9.471 5.272 12.728A17.944 17.944 0 0 0 20 37.999c4.971 0 9.471-2.015 12.728-5.272A17.946 17.946 0 0 0 38 19.999c0-4.971-2.015-9.471-5.272-12.728zm29.591 3.512A44.171 44.171 0 0 0 54 9.999c-2.851 0-5.632.269-8.319.784a43.602 43.602 0 0 0-7.051 1.984A19.9 19.9 0 0 1 40 19.999c0 5.162-1.973 9.853-5.185 13.401l5.784 5.784c3.548-3.212 8.238-5.185 13.401-5.185 5.162 0 9.853 1.973 13.401 5.185l5.784-5.784C69.973 29.852 68 25.161 68 19.999c0-2.554.497-4.987 1.369-7.232a43.562 43.562 0 0 0-7.05-1.984zm38.409-3.512A17.946 17.946 0 0 0 88 1.999a17.944 17.944 0 0 0-12.728 5.272A17.944 17.944 0 0 0 70 19.999c0 4.97 2.015 9.471 5.272 12.728A17.944 17.944 0 0 0 88 37.999c4.97 0 9.471-2.015 12.728-5.272A17.946 17.946 0 0 0 106 19.999c0-4.971-2.015-9.471-5.272-12.728zm-8.729 8.728c.609 0 1.133.243 1.526.708.394.464.547 1.02.447 1.621l-.5 2.999a1.988 1.988 0 0 1-1.973 1.672h-.5v6c0 1.102-.898 2-2 2h-3a2.003 2.003 0 0 1-1.999-2v-6h-1.001a2.004 2.004 0 0 1-1.999-2v-3c0-1.102.898-2 1.999-2H84v-1c0-3.588 1.922-6 5.622-6 .849 0 1.809.028 2.652.146a1.988 1.988 0 0 1 1.725 1.98v2.862a2.004 2.004 0 0 1-1.998 2h-1.002v.012h1zm-1.631-2.011l1.631-.001v-2.862a21.002 21.002 0 0 0-2.377-.126c-2.352 0-3.623 1.262-3.623 4v3h-3v3h3v8h3v-8h2.5l.5-3h-3v-2.5c0-.926.09-1.511 1.369-1.511zM29.722 24.522c0 1.408-1.034 2.477-2.436 2.477h-2.209c-1.269 0-1.964-.665-2.674-1.437-.546 1.077-1.845 1.437-3.187 1.437-2.949 0-5.575-1.872-7.282-4.156-1.226-1.64-3.434-5.209-3.434-7.367C8.5 14.084 9.611 13 10.996 13h1.969c.875 0 1.564.28 2.068.81a2.412 2.412 0 0 1 1.825-.81h3.198c1.18 0 1.958.591 2.293 1.508.505-.971 1.376-1.508 2.503-1.508h1.969c1.652 0 2.781 1.376 2.437 2.996-.229 1.08-1.37 2.913-2.219 4.182.191.196.382.396.563.624.916.968 2.12 2.34 2.12 3.72zm-4.915-4.62s2.269-3.279 2.495-4.321c.075-.373-.091-.582-.481-.582h-1.969c-.451 0-.616.194-.751.477 0 0-1.065 2.353-2.36 3.77-.416.459-.704.597-.933.597-.185 0-.271-.153-.271-.567v-3.622c0-.506-.06-.655-.481-.655h-3.198c-.24 0-.391.139-.391.328 0 .477.737.585.737 1.878v2.667c0 .537-.03.745-.286.745-.676 0-2.165-2.309-3.067-4.932-.18-.537-.375-.686-.886-.686h-1.969c-.285 0-.496.194-.496.477 0 .521.616 2.936 3.036 6.17 1.623 2.175 3.757 3.353 5.68 3.353 1.173 0 1.458-.194 1.458-.685v-1.67c0-.417.166-.596.406-.596.27 0 .748.087 1.863 1.177 1.323 1.252 1.413 1.774 2.134 1.774h2.209c.226 0 .436-.104.436-.477 0-.492-.646-1.37-1.638-2.414-.406-.537-1.067-1.118-1.277-1.386-.301-.313-.21-.492 0-.82zm.751 60.849c.179-.074.352-.16.519-.257a1.97 1.97 0 0 1 2.264.169c.486.393.75.953.749 1.543.528.69.557 1.611.065 2.336a8.164 8.164 0 0 1-1.196 1.394c-.289 5.698-4.994 10.063-10.741 10.063-2.052 0-4.049-.575-5.785-1.669a1.981 1.981 0 0 1-.819-2.356 1.979 1.979 0 0 1 1.975-1.334 5.004 5.004 0 0 1-.309-.741 2.075 2.075 0 0 1-.102-.546 4.992 4.992 0 0 1-1.076-3.096c0-.057.002-.114.006-.171.017-.264.081-.51.185-.733a4.989 4.989 0 0 1 .529-3.817 1.948 1.948 0 0 1 1.565-.976 1.946 1.946 0 0 1 1.698.719 6.745 6.745 0 0 0 3.009 2.079 5.083 5.083 0 0 1 4.791-3.359c.953 0 1.876.264 2.673.752zm-5.751 4.277c0 .238.028.469.08.691a8.786 8.786 0 0 1-6.343-3.165 2.984 2.984 0 0 0-.417 1.522c0 1.051.543 1.979 1.37 2.522a3.09 3.09 0 0 1-1.394-.379l-.001.038c0 1.468 1.061 2.693 2.469 2.97a3.094 3.094 0 0 1-1.39.053 3.075 3.075 0 0 0 2.875 2.103 6.233 6.233 0 0 1-3.822 1.297 6.36 6.36 0 0 1-.734-.042 8.815 8.815 0 0 0 4.718 1.361c5.66 0 8.755-4.616 8.755-8.619 0-.132-.002-.262-.008-.392A6.215 6.215 0 0 0 27.5 83.42a6.21 6.21 0 0 1-1.768.476 3.047 3.047 0 0 0 1.354-1.675 6.23 6.23 0 0 1-1.954.735 3.099 3.099 0 0 0-2.247-.957c-1.699 0-3.078 1.357-3.078 3.029zm63.141-3.73a1.949 1.949 0 0 1 1.946-.088l10 5a1.958 1.958 0 0 1 1.105 1.788c0 .777-.411 1.442-1.105 1.789l-10 5.001a1.95 1.95 0 0 1-1.946-.088 1.95 1.95 0 0 1-.949-1.701V82.998c0-.712.342-1.326.949-1.7zm1.051 11.701L94 87.998l-10.001-5v10.001z" class="smm"/></svg>