<svg xmlns="http://www.w3.org/2000/svg" preserveAspectRatio="xMidYMid" width="180" height="124" viewBox="0 0 180 124"><path d="M180 73.999H0v-2h12v-31a1 1 0 0 1 2 0v1h14v-2.424l-.452.271a1.02 1.02 0 0 1-1.395-.321.993.993 0 0 1 .325-1.377L36 32.415l1-.416 1 .416 9.521 5.733a.993.993 0 0 1 .326 1.377 1.02 1.02 0 0 1-1.395.321L46 39.575v2.424h14v-17a1 1 0 0 1 2 0v1h14v-5.424l-.452.271a1.02 1.02 0 0 1-1.395-.321.994.994 0 0 1 .325-1.377L89 10.415V.999a1 1 0 0 1 1-1h7a1 1 0 0 1 1 1v4a1 1 0 0 1-1 1h-6v4.416l14.521 8.733a.993.993 0 0 1 .326 1.377 1.02 1.02 0 0 1-1.395.321l-.452-.271v5.424h14v-1a1 1 0 0 1 2 0v17h14v-2.424l-.452.271a1.02 1.02 0 0 1-1.395-.321.992.992 0 0 1 .325-1.377L142 32.415l1-.416 1 .416 9.522 5.733c.474.291.62.908.324 1.377a1.019 1.019 0 0 1-1.394.321l-.452-.271v2.424h14v-1a1 1 0 0 1 2 0v31h12v2zm-152-30H14v28h14v-28zm16-5.626l-7-4.21-7 4.21v33.626h14V38.373zm16 5.626H46v28h14v-28zm16-16H62v44h10v-3a1 1 0 0 1 1-1h3v-40zm20-24v-2h-5v2h5zm6 15.374l-12-7.211-12 7.211v48.626h4v-10h-1a1 1 0 0 1 0-2h18a1 1 0 0 1 0 2h-1v10h4V19.373zM84 57.999v10h5v-10h-5zm7 0v10h5v-10h-5zm-17 12v2h32v-2H74zm44-26v-16h-14v40h3a1 1 0 0 1 1 1v3h10v-28zm16 0h-14v28h14v-28zm16-5.626l-7-4.21-7 4.21v33.626h14V38.373zm16 5.626h-14v28h14v-28zm-9 4h4a1 1 0 0 1 1 1V55a1 1 0 0 1-1 .999h-4a1 1 0 0 1-1-.999v-6.001a1 1 0 0 1 1-1zm1 6h2v-4h-2v4zm-1 6h4a1 1 0 0 1 1 1v6a1 1 0 0 1-1 1h-4a1 1 0 0 1-1-1v-6a1 1 0 0 1 1-1zm1 6h2v-4h-2v4zm-15-28a3 3 0 1 1 0 6 3 3 0 0 1 0-6zm0 4a1 1 0 1 0 0-2 1 1 0 0 0 0 2zm-2 6h4a1 1 0 0 1 1 1V55a1 1 0 0 1-1 .999h-4a1 1 0 0 1-1-.999v-6.001a1 1 0 0 1 1-1zm1 6h2v-4h-2v4zm-1 6h4a1 1 0 0 1 1 1v6a1 1 0 0 1-1 1h-4a1 1 0 0 1-1-1v-6a1 1 0 0 1 1-1zm1 6h2v-4h-2v4zm-17-18h4a1 1 0 0 1 1 1V55a1 1 0 0 1-1 .999h-4a1 1 0 0 1-1-.999v-6.001a1 1 0 0 1 1-1zm1 6h2v-4h-2v4zm-1 6h4a1 1 0 0 1 1 1v6a1 1 0 0 1-1 1h-4a1 1 0 0 1-1-1v-6a1 1 0 0 1 1-1zm1 6h2v-4h-2v4zm-18-8a1 1 0 0 1 1-1h4a1 1 0 0 1 1 1v6a1 1 0 0 1-1 1h-4a1 1 0 0 1-1-1v-6zm2 5h2V59h-2v3.999zM113 53h-4c-.552 0-1-.449-1-1.001v-6a1 1 0 0 1 1-1h4a1 1 0 0 1 1 1v6c0 .552-.448 1.001-1 1.001zm-1-6.001h-2v4h2v-4zm1-6h-4a1 1 0 0 1-1-1v-6a1 1 0 0 1 1-1h4a1 1 0 0 1 1 1v6a1 1 0 0 1-1 1zm-1-6h-2v4h2v-4zm-15 17h-4a1 1 0 0 1-1-1v-6a1 1 0 0 1 1-1h4a1 1 0 0 1 1 1v6a1 1 0 0 1-1 1zm-1-6h-2v4h2v-4zm1-6h-4a1 1 0 0 1-1-1v-6a1 1 0 0 1 1-1h4a1 1 0 0 1 1 1v6a1 1 0 0 1-1 1zm-1-6h-2v4h2v-4zm1-6h-4a1 1 0 0 1-1-1V21a1 1 0 0 1 1-1.001h4A1 1 0 0 1 98 21v5.999a1 1 0 0 1-1 1zm-1-6h-2v4h2v-4zm-9 30h-4a1 1 0 0 1-1-1v-6a1 1 0 0 1 1-1h4a1 1 0 0 1 1 1v6a1 1 0 0 1-1 1zm-1-6h-2v4h2v-4zm1-6h-4a1 1 0 0 1-1-1v-6a1 1 0 0 1 1-1h4a1 1 0 0 1 1 1v6a1 1 0 0 1-1 1zm-1-6h-2v4h2v-4zm1-6h-4a1 1 0 0 1-1-1V21a1 1 0 0 1 1-1.001h4A1 1 0 0 1 88 21v5.999a1 1 0 0 1-1 1zm-1-6h-2v4h2v-4zm-15 43h-4a1 1 0 0 1-1-1v-6a1 1 0 0 1 1-1h4a1 1 0 0 1 1 1v6a1 1 0 0 1-1 1zM70 59h-2v3.999h2V59zm1-6h-4c-.552 0-1-.449-1-1.001v-6a1 1 0 0 1 1-1h4a1 1 0 0 1 1 1v6c0 .552-.448 1.001-1 1.001zm-1-6.001h-2v4h2v-4zm1-6h-4a1 1 0 0 1-1-1v-6a1 1 0 0 1 1-1h4a1 1 0 0 1 1 1v6a1 1 0 0 1-1 1zm-1-6h-2v4h2v-4zm-19 13h4a1 1 0 0 1 1 1V55a1 1 0 0 1-1 .999h-4A1 1 0 0 1 50 55v-6.001a1 1 0 0 1 1-1zm1 6h2v-4h-2v4zm-1 6h4a1 1 0 0 1 1 1v6a1 1 0 0 1-1 1h-4a1 1 0 0 1-1-1v-6a1 1 0 0 1 1-1zm1 6h2v-4h-2v4zm-15-28a3 3 0 1 1 0 6 3 3 0 0 1 0-6zm0 4a1 1 0 1 0 0-2 1 1 0 0 0 0 2zm-2 6h4a1 1 0 0 1 1 1V55a1 1 0 0 1-1 .999h-4A1 1 0 0 1 34 55v-6.001a1 1 0 0 1 1-1zm1 6h2v-4h-2v4zm-1 6h4a1 1 0 0 1 1 1v6a1 1 0 0 1-1 1h-4a1 1 0 0 1-1-1v-6a1 1 0 0 1 1-1zm1 6h2v-4h-2v4zm-17-18h4a1 1 0 0 1 1 1V55a1 1 0 0 1-1 .999h-4A1 1 0 0 1 18 55v-6.001a1 1 0 0 1 1-1zm1 6h2v-4h-2v4zm-1 6h4a1 1 0 0 1 1 1v6a1 1 0 0 1-1 1h-4a1 1 0 0 1-1-1v-6a1 1 0 0 1 1-1zm1 6h2v-4h-2v4zm-6 18.587l1.707 1.706a2.986 2.986 0 0 1 3.41.585l.004.004c.543.543.878 1.292.878 2.118 0 .825-.335 1.574-.878 2.117v.004a2.993 2.993 0 0 1-2.122.879 2.99 2.99 0 0 1-2.121-.879 2.99 2.99 0 0 1-.879-2.121c0-.463.105-.902.293-1.294l-1.999-1.998A.997.997 0 0 1 12 85v-9h2v8.586zm2.292 5.12a.997.997 0 0 0 1.415 0l.001.002a1 1 0 0 0 .291-.709.999.999 0 0 0-.291-.709.999.999 0 0 0-.709-.291 1 1 0 0 0-.709.291l.002.001a1 1 0 0 0 0 1.415zM30 78.085l3.695 3.696a.994.994 0 0 1 .305.718v3.672c.424.15.805.395 1.117.707h.004A2.99 2.99 0 0 1 36 88.999a2.99 2.99 0 0 1-.879 2.121 2.99 2.99 0 0 1-2.121.879 2.995 2.995 0 0 1-2.122-.879v-.004a2.988 2.988 0 0 1 0-4.234l.004-.004A3 3 0 0 1 32 86.171v-3.258l-3.707-3.707a.997.997 0 0 1-.293-.707V76h2v2.085zm2.291 11.623l.001-.002a.997.997 0 0 0 1.415 0 .997.997 0 0 0 0-1.414l.002-.002a1 1 0 0 0-.709-.291.999.999 0 0 0-.709.291 1 1 0 0 0-.291.709c0 .278.111.529.291.709zM46 86.586l5.707 5.706a2.99 2.99 0 0 1 3.41.585l.004.004a2.99 2.99 0 0 1 0 4.235v.004a2.993 2.993 0 0 1-2.122.879 2.99 2.99 0 0 1-2.121-.879 2.99 2.99 0 0 1-.879-2.121c0-.463.105-.901.293-1.294l-5.999-5.998A.997.997 0 0 1 44 87V76h2v10.586zm6.292 9.12a.997.997 0 0 0 1.415 0l.001.001c.18-.18.291-.43.291-.708a.999.999 0 0 0-.291-.709.999.999 0 0 0-.709-.291 1 1 0 0 0-.709.291l.002.001a1 1 0 0 0 0 1.415zM62 86.085l7.695 7.696a.994.994 0 0 1 .305.718v7.672c.424.15.805.394 1.117.707h.004a2.99 2.99 0 0 1 .879 2.121c0 .829-.336 1.579-.879 2.121a2.996 2.996 0 0 1-4.243 0v-.004a2.988 2.988 0 0 1 0-4.234l.004-.004a2.988 2.988 0 0 1 1.118-.707v-7.258l-7.707-7.706a1.001 1.001 0 0 1-.293-.708V76h2v10.085zm6.291 19.623l.001-.002a.997.997 0 0 0 1.415 0 .997.997 0 0 0 0-1.414l.002-.002a1.005 1.005 0 0 0-.709-.291c-.278 0-.529.112-.709.291a1 1 0 0 0-.291.709c0 .278.111.529.291.709zM78 86.085l5.695 5.696a.996.996 0 0 1 .305.718v25.672a3.01 3.01 0 0 1 1.117.707h.004a2.99 2.99 0 0 1 .879 2.121c0 .829-.336 1.578-.879 2.121a2.99 2.99 0 0 1-2.121.879 2.993 2.993 0 0 1-2.122-.879v-.003a2.992 2.992 0 0 1 0-4.235l.004-.004a3.013 3.013 0 0 1 1.118-.707V92.913l-5.707-5.706a1.001 1.001 0 0 1-.293-.708V76h2v10.085zm4.291 35.623l.001-.002a.997.997 0 0 0 1.415 0 .997.997 0 0 0 0-1.414l.002-.002a1 1 0 0 0-.709-.291.999.999 0 0 0-.709.291 1 1 0 0 0-.291.709c0 .278.111.529.291.709zm12.592-8.83A3 3 0 0 1 96 112.17V92.499c0-.282.117-.536.305-.718L102 86.085V76h2v10.499c0 .256-.098.512-.293.708L98 92.913v19.257c.424.151.805.395 1.118.708l.003.003a2.987 2.987 0 0 1 0 4.235v.004a2.99 2.99 0 0 1-2.121.879 2.99 2.99 0 0 1-2.121-.879 2.99 2.99 0 0 1-.879-2.121c0-.829.336-1.579.879-2.121h.004zm1.41 2.828a.997.997 0 0 0 1.414 0l.002.002a1 1 0 0 0 .291-.709c0-.278-.111-.529-.291-.71a1.002 1.002 0 0 0-.709-.29c-.278 0-.528.111-.709.29l.002.003a.997.997 0 0 0 0 1.414zm12.59-12.828a2.983 2.983 0 0 1 2.118-.879c.462 0 .901.105 1.292.293L118 96.586V76h2v20.999a.998.998 0 0 1-.293.708l-5.999 5.999a2.99 2.99 0 0 1-.586 3.414 2.99 2.99 0 0 1-2.121.879 2.993 2.993 0 0 1-2.122-.879v-.004a2.987 2.987 0 0 1 0-4.235l.004-.003zm1.408 2.83l.002-.002a.997.997 0 0 0 1.415 0 1 1 0 0 0 0-1.415l.002-.001a1.004 1.004 0 0 0-1.419 0c-.179.18-.29.431-.29.709 0 .278.111.528.29.709zm16.592-12.83a2.997 2.997 0 0 1 1.117-.707v-3.672c0-.282.117-.536.305-.718L134 82.085V76h2v6.499a.997.997 0 0 1-.293.707L130 88.913v3.258c.424.15.805.395 1.118.707l.003.004a2.985 2.985 0 0 1 0 4.234v.004a2.99 2.99 0 0 1-2.121.879 2.99 2.99 0 0 1-2.121-.879 2.99 2.99 0 0 1-.879-2.121c0-.828.336-1.578.879-2.121h.004zm1.41 2.828a.997.997 0 0 0 1.414 0l.002.002a.999.999 0 0 0 .291-.709 1 1 0 0 0-.291-.709.999.999 0 0 0-.709-.291 1 1 0 0 0-.709.291l.002.002a.997.997 0 0 0 0 1.414zm14.59-8.829a2.986 2.986 0 0 1 3.41-.585L150 82.586V76h2v7a.997.997 0 0 1-.293.707l-3.999 3.998A2.999 2.999 0 0 1 145 91.999a2.99 2.99 0 0 1-2.121-.879v-.004a2.987 2.987 0 0 1 0-4.235l.004-.004zm1.408 2.831l.002-.002a.997.997 0 0 0 1.415 0 .996.996 0 0 0 .292-.707.998.998 0 0 0-.292-.708l.002-.001a1.003 1.003 0 0 0-.71-.291c-.277 0-.528.111-.709.291-.179.18-.29.431-.29.709 0 .278.111.528.29.709zm16.592-2.831a2.986 2.986 0 0 1 3.41-.585L166 84.586V76h2v9a.997.997 0 0 1-.293.707l-1.999 1.998c.188.392.293.831.293 1.294a2.99 2.99 0 0 1-.879 2.121 2.99 2.99 0 0 1-2.121.879 2.993 2.993 0 0 1-2.122-.879v-.004a2.987 2.987 0 0 1 0-4.235l.004-.004zm1.408 2.831l.002-.002a.997.997 0 0 0 1.415 0 .997.997 0 0 0 0-1.415l.002-.001a1.002 1.002 0 0 0-.709-.291c-.278 0-.529.111-.71.291-.179.18-.29.431-.29.709 0 .278.111.528.29.709z" class="university"/></svg>