<svg xmlns="http://www.w3.org/2000/svg" preserveAspectRatio="xMidYMid" width="18" height="18" viewBox="0 0 18 18"><path d="M8.998 0a6.003 6.003 0 0 1 6.007 6 5.989 5.989 0 0 1-2.281 4.707 10.062 10.062 0 0 1 5.007 4.292 1.94 1.94 0 0 1 .001 2A1.973 1.973 0 0 1 15.985 18H2.01c-.74 0-1.376-.364-1.746-1.001a1.938 1.938 0 0 1 .001-2 10.058 10.058 0 0 1 5.007-4.292A5.987 5.987 0 0 1 2.99 6c0-3.314 2.69-6 6.008-6zm0 12a8.077 8.077 0 0 0-6.988 4h13.975a8.075 8.075 0 0 0-6.987-4zm0-10a4.003 4.003 0 0 0-4.005 4c0 2.209 1.793 4 4.005 4a4.003 4.003 0 0 0 4.005-4c0-2.209-1.793-4-4.005-4z" class="user"/></svg>