<svg xmlns="http://www.w3.org/2000/svg" preserveAspectRatio="xMidYMid" width="25" height="25" viewBox="0 0 25 25"><defs><style>.webmoney{fill:#006cb9;fill-rule:evenodd}</style></defs><path d="M23.518 14.472l-1.333-1.486 1.481-1.339 1.333 1.487-1.481 1.338zM20.292 8.57l1.48-1.338 1.334 1.486-1.481 1.338-1.333-1.486zM18.4 4.154l1.481-1.338 1.333 1.486-1.481 1.338L18.4 4.154zM15.815.919l-2.907 2.603-1.727-1.891L5.765 6.53l3.472 3.841-1.364 1.204 3.42 3.846-1.357 1.202 4.887 5.459 2.901-2.68 2.508 2.872c-.499.389-1.043.756-1.641 1.094A12.326 12.326 0 0 1 12.451 25C5.591 25-.003 19.384-.003 12.5-.003 5.615 5.591 0 12.451 0c1.955 0 3.807.457 5.457 1.268.259.123.517.259.776.409l-1.146 1.03L15.815.919zm3.629 15.698l-2.001-2.23 2.222-2.007 2 2.23-2.221 2.007zm.321-6.719l-2.221 2.007-2-2.228 2.221-2.008 2 2.229zm-2.048-4.482l-2.221 2.008-2-2.231 2.222-2.006 1.999 2.229zm-6.694-1.458L13.69 6.93l-2.962 2.676-2.666-2.972 2.961-2.676zm6.893 13.185l-2.962 2.677-2.667-2.974 2.962-2.676 2.667 2.973zm-4.773-8.11l2.666 2.973-2.961 2.676-2.667-2.972 2.962-2.677zm8.475 7.85l2 2.229-2.221 2.007-2-2.229 2.221-2.007z" class="webmoney"/></svg>