<svg xmlns="http://www.w3.org/2000/svg" xmlns:xlink="http://www.w3.org/1999/xlink" width="20" height="18" preserveAspectRatio="xMidYMid" viewBox="0 0 20 18"><path d="M19.954,7.000 C19.954,7.323 19.798,7.640 19.510,7.832 L15.962,10.202 L15.962,13.000 C15.962,14.420 15.259,15.694 14.123,16.606 C13.048,17.467 11.580,18.000 9.974,18.000 C8.369,18.000 6.901,17.467 5.826,16.606 C4.690,15.694 3.987,14.420 3.987,13.000 L3.987,10.202 L0.439,7.832 C0.151,7.640 -0.005,7.323 -0.005,7.000 C-0.005,6.677 0.151,6.361 0.439,6.168 C3.428,4.172 6.416,2.175 9.405,0.179 C9.573,0.062 9.772,0.001 9.974,0.001 C10.176,0.001 10.376,0.062 10.544,0.179 C13.533,2.175 16.521,4.172 19.510,6.168 C19.798,6.361 19.954,6.677 19.954,7.000 L19.954,7.000 ZM2.793,7.000 L9.974,11.798 L17.156,7.000 L9.974,2.202 L2.793,7.000 L2.793,7.000 ZM9.974,13.999 C9.772,13.999 9.573,13.938 9.405,13.821 L5.983,11.535 L5.983,13.000 C5.983,13.788 6.397,14.515 7.066,15.051 C7.797,15.637 8.825,16.000 9.974,16.000 C11.124,16.000 12.152,15.637 12.883,15.051 C13.552,14.515 13.966,13.788 13.966,13.000 L13.966,11.535 L10.544,13.821 C10.376,13.938 10.176,13.999 9.974,13.999 Z" class="academic-cap"/></svg>