<svg xmlns="http://www.w3.org/2000/svg" xmlns:xlink="http://www.w3.org/1999/xlink" preserveAspectRatio="xMidYMid" width="120" height="100" viewBox="0 0 120 100">
  <path d="M119.964,26.462 C119.805,26.990 119.246,27.289 118.718,27.129 L118.385,27.028 C114.885,25.969 111.385,24.909 107.936,24.750 C107.584,26.600 105.959,27.999 104.007,27.999 C102.684,27.999 101.511,27.356 100.783,26.367 C98.749,27.610 96.784,29.461 94.859,31.274 C91.845,34.113 88.922,36.866 85.734,37.451 C85.153,38.942 83.703,39.999 82.006,39.999 C79.797,39.999 78.006,38.207 78.006,35.999 C78.006,35.511 78.094,35.042 78.254,34.609 C74.636,31.114 72.754,25.403 70.920,19.833 C69.001,14.008 67.136,8.349 63.437,6.057 C62.737,7.220 61.463,7.999 60.006,7.999 C58.406,7.999 57.026,7.059 56.386,5.702 C52.262,7.684 49.942,13.505 47.536,19.544 C45.784,23.942 43.988,28.449 41.392,31.869 C41.781,32.486 42.006,33.216 42.006,33.998 C42.006,36.208 40.215,37.999 38.006,37.999 C36.993,37.999 36.067,37.622 35.362,37.000 C33.296,38.166 31.043,39.049 28.701,39.688 C25.831,40.470 22.829,40.886 19.877,41.005 C19.431,42.727 17.867,43.999 16.005,43.999 C13.952,43.999 12.259,42.451 12.032,40.458 C8.141,39.590 4.472,37.835 0.803,36.079 L0.575,35.969 C0.079,35.732 -0.131,35.137 0.106,34.641 C0.343,34.145 0.939,33.935 1.435,34.173 L1.662,34.281 C5.168,35.959 8.675,37.637 12.306,38.474 C12.906,37.022 14.336,35.999 16.005,35.999 C17.873,35.999 19.442,37.279 19.882,39.010 C22.665,38.892 25.488,38.500 28.178,37.766 C30.308,37.185 32.357,36.388 34.237,35.343 C34.087,34.923 34.006,34.471 34.006,33.998 C34.006,31.790 35.797,29.999 38.006,29.999 C38.703,29.999 39.358,30.178 39.929,30.491 C42.304,27.295 44.015,23.001 45.684,18.809 C48.354,12.108 50.927,5.653 56.022,3.636 C56.206,1.597 57.919,-0.001 60.006,-0.001 C62.215,-0.001 64.006,1.789 64.006,3.999 L64.005,4.039 C68.619,6.461 70.688,12.740 72.818,19.208 C74.532,24.411 76.290,29.746 79.422,32.946 C80.119,32.356 81.021,31.999 82.006,31.999 C83.978,31.999 85.616,33.425 85.946,35.302 C88.439,34.578 90.928,32.235 93.491,29.821 C95.583,27.850 97.721,25.837 100.037,24.488 C100.017,24.328 100.007,24.165 100.007,23.999 C100.007,21.790 101.798,19.999 104.007,19.999 C105.778,19.999 107.279,21.150 107.806,22.745 C111.560,22.873 115.262,23.994 118.963,25.115 L119.296,25.216 C119.825,25.375 120.124,25.934 119.964,26.462 ZM16.005,37.999 C14.901,37.999 14.005,38.894 14.005,39.999 C14.005,41.103 14.901,41.999 16.005,41.999 C17.109,41.999 18.005,41.103 18.005,39.999 C18.005,38.894 17.109,37.999 16.005,37.999 ZM38.005,31.999 C36.901,31.999 36.005,32.894 36.005,33.998 C36.005,35.103 36.901,35.998 38.005,35.998 C39.110,35.998 40.005,35.103 40.005,33.998 C40.005,32.894 39.110,31.999 38.005,31.999 ZM60.006,1.999 C58.901,1.999 58.006,2.894 58.006,3.999 C58.006,5.103 58.901,5.998 60.006,5.998 C61.110,5.998 62.006,5.103 62.006,3.999 C62.006,2.894 61.110,1.999 60.006,1.999 ZM82.006,33.998 C80.902,33.998 80.006,34.894 80.006,35.999 C80.006,37.103 80.902,37.998 82.006,37.998 C83.110,37.998 84.006,37.103 84.006,35.999 C84.006,34.894 83.110,33.998 82.006,33.998 ZM104.007,21.999 C102.902,21.999 102.007,22.894 102.007,23.999 C102.007,25.103 102.902,25.999 104.007,25.999 C105.111,25.999 106.006,25.103 106.006,23.999 C106.006,22.894 105.111,21.999 104.007,21.999 ZM9.000,93.999 C7.895,93.999 7.000,93.103 7.000,91.999 L7.000,53.999 C7.000,52.894 7.895,51.999 9.000,51.999 L23.000,51.999 C24.104,51.999 25.000,52.894 25.000,53.999 L25.000,91.999 C25.000,93.103 24.104,93.999 23.000,93.999 L9.000,93.999 ZM23.000,53.999 L9.000,53.999 L9.000,91.999 L23.000,91.999 L23.000,53.999 ZM31.000,94.000 C29.895,94.000 29.000,93.104 29.000,92.000 L29.000,58.000 C29.000,56.895 29.895,56.000 31.000,56.000 L45.000,56.000 C46.105,56.000 47.000,56.895 47.000,58.000 L47.000,92.000 C47.000,93.104 46.105,94.000 45.000,94.000 L31.000,94.000 ZM45.000,58.000 L31.000,58.000 L31.000,92.000 L45.000,92.000 L45.000,58.000 ZM53.000,94.000 C51.895,94.000 51.000,93.104 51.000,92.000 L51.000,28.000 C51.000,26.895 51.895,26.000 53.000,26.000 L67.000,26.000 C68.105,26.000 69.000,26.895 69.000,28.000 L69.000,92.000 C69.000,93.104 68.105,94.000 67.000,94.000 L53.000,94.000 ZM67.000,28.000 L53.000,28.000 L53.000,92.000 L67.000,92.000 L67.000,28.000 ZM75.000,94.000 C73.895,94.000 73.000,93.104 73.000,92.000 L73.000,50.000 C73.000,48.895 73.895,48.000 75.000,48.000 L89.000,48.000 C90.104,48.000 91.000,48.895 91.000,50.000 L91.000,92.000 C91.000,93.104 90.104,94.000 89.000,94.000 L75.000,94.000 ZM89.000,50.000 L75.000,50.000 L75.000,92.000 L89.000,92.000 L89.000,50.000 ZM97.000,94.000 C95.895,94.000 95.000,93.104 95.000,92.000 L95.000,38.000 C95.000,36.895 95.895,36.000 97.000,36.000 L111.000,36.000 C112.105,36.000 113.000,36.895 113.000,38.000 L113.000,92.000 C113.000,93.104 112.105,94.000 111.000,94.000 L97.000,94.000 ZM111.000,38.000 L97.000,38.000 L97.000,92.000 L111.000,92.000 L111.000,38.000 ZM1.000,98.000 L119.000,98.000 C119.552,98.000 120.000,98.448 120.000,99.000 C120.000,99.552 119.552,100.000 119.000,100.000 L1.000,100.000 C0.448,100.000 -0.000,99.552 -0.000,99.000 C-0.000,98.448 0.448,98.000 1.000,98.000 Z" class="analytics"/>
</svg>
