<svg xmlns="http://www.w3.org/2000/svg" xmlns:xlink="http://www.w3.org/1999/xlink" width="16" height="20" preserveAspectRatio="xMidYMid" viewBox="0 0 16 20"><path d="M-0.000,18.000 L-0.000,2.000 C-0.000,0.900 0.900,-0.000 2.000,-0.000 L14.000,-0.000 C15.100,-0.000 16.000,0.900 16.000,2.000 L16.000,18.000 C16.000,19.100 15.100,20.000 14.000,20.000 L2.000,20.000 C0.900,20.000 -0.000,19.100 -0.000,18.000 L-0.000,18.000 ZM4.000,12.000 L4.000,14.000 L11.000,14.000 L11.000,12.000 L4.000,12.000 L4.000,12.000 ZM4.000,8.000 L4.000,10.000 L10.000,10.000 L10.000,8.000 L4.000,8.000 L4.000,8.000 ZM4.000,4.000 L4.000,6.000 L12.000,6.000 L12.000,4.000 L4.000,4.000 L4.000,4.000 ZM2.000,18.000 L14.000,18.000 L14.000,2.000 L2.000,2.000 L2.000,18.000 Z" class="article"/></svg>