<svg xmlns="http://www.w3.org/2000/svg" xmlns:xlink="http://www.w3.org/1999/xlink" width="30" height="23" preserveAspectRatio="xMidYMid" viewBox="0 0 30 23"><defs><style>.bank-card-1{fill:#d7dada}.bank-card-2{fill:#707277}.bank-card-3{fill:#e7eff1}.bank-card-4,.bank-card-5{fill:#707377;fill-rule:evenodd}.bank-card-5{fill:#ffa000}</style></defs><g><rect width="26" height="18" x="4" class="bank-card-1" rx="2" ry="2"/><rect width="26" height="5" x="4" y="3" class="bank-card-2"/><rect width="26" height="18" y="5" class="bank-card-3" rx="2" ry="2"/><path d="M23.500,20.000 L20.500,20.000 C20.224,20.000 20.000,19.776 20.000,19.500 C20.000,19.224 20.224,19.000 20.500,19.000 L23.500,19.000 C23.776,19.000 24.000,19.224 24.000,19.500 C24.000,19.776 23.776,20.000 23.500,20.000 ZM17.500,20.000 L14.500,20.000 C14.224,20.000 14.000,19.776 14.000,19.500 C14.000,19.224 14.224,19.000 14.500,19.000 L17.500,19.000 C17.776,19.000 18.000,19.224 18.000,19.500 C18.000,19.776 17.776,20.000 17.500,20.000 ZM11.500,20.000 L8.500,20.000 C8.224,20.000 8.000,19.776 8.000,19.500 C8.000,19.224 8.224,19.000 8.500,19.000 L11.500,19.000 C11.776,19.000 12.000,19.224 12.000,19.500 C12.000,19.776 11.776,20.000 11.500,20.000 ZM5.500,20.000 L2.500,20.000 C2.224,20.000 2.000,19.776 2.000,19.500 C2.000,19.224 2.224,19.000 2.500,19.000 L5.500,19.000 C5.776,19.000 6.000,19.224 6.000,19.500 C6.000,19.776 5.776,20.000 5.500,20.000 Z" class="bank-card-4"/><path d="M3.500,12.000 L4.500,12.000 C5.328,12.000 6.000,12.672 6.000,13.500 C6.000,14.328 5.328,15.000 4.500,15.000 L3.500,15.000 C2.671,15.000 2.000,14.328 2.000,13.500 C2.000,12.672 2.671,12.000 3.500,12.000 Z" class="bank-card-5"/></g></svg>