<svg xmlns="http://www.w3.org/2000/svg" xmlns:xlink="http://www.w3.org/1999/xlink" width="16" height="20" preserveAspectRatio="xMidYMid" viewBox="0 0 16 20"><path d="M14.000,20.000 L2.000,20.000 C0.900,20.000 -0.000,19.100 -0.000,18.000 L-0.000,2.000 C-0.000,0.900 0.900,-0.000 2.000,-0.000 L14.000,-0.000 C15.100,-0.000 16.000,0.900 16.000,2.000 L16.000,18.000 C16.000,19.100 15.100,20.000 14.000,20.000 ZM11.000,2.000 L9.000,2.000 L9.000,5.386 L10.001,4.886 L11.000,5.386 L11.000,2.000 ZM14.000,2.000 L13.000,2.000 L13.000,8.613 L10.000,7.113 L7.000,8.613 L7.000,2.000 L6.000,2.000 L6.000,2.000 L2.000,2.000 L2.000,2.000 L2.000,2.000 L2.000,18.000 L2.000,18.000 L2.000,18.000 L6.000,18.000 L6.000,18.000 L14.000,18.000 L14.000,2.000 Z" class="book"/></svg>