<svg xmlns="http://www.w3.org/2000/svg" xmlns:xlink="http://www.w3.org/1999/xlink" preserveAspectRatio="xMidYMid" width="100" height="120" viewBox="0 0 100 120">
  <path d="M100.000,107.999 L100.000,109.999 L24.000,109.999 L24.000,118.997 C24.000,119.549 23.552,119.997 23.000,119.997 C22.794,119.997 22.604,119.935 22.445,119.829 L17.000,116.199 L11.555,119.829 C11.095,120.136 10.474,120.011 10.168,119.551 C10.054,119.381 10.000,119.188 10.000,118.997 L10.000,109.999 L10.000,109.999 C4.477,109.999 -0.000,104.627 -0.000,98.000 C-0.000,91.372 4.477,85.999 10.000,85.999 L66.000,85.999 L66.000,87.999 L10.000,87.999 C5.582,87.999 2.000,92.476 2.000,98.000 C2.000,103.522 5.582,107.999 10.000,107.999 L10.000,107.999 L10.000,107.998 L10.000,107.998 L10.000,100.997 C10.000,100.445 10.448,99.997 11.000,99.997 L23.000,99.997 C23.552,99.997 24.000,100.445 24.000,100.997 L24.000,107.998 L24.000,107.999 L94.000,107.999 L94.000,103.999 L78.000,103.999 L78.000,101.999 L94.000,101.999 L94.000,98.000 L86.000,98.000 L86.000,95.999 L94.000,95.999 L94.000,87.999 L80.000,87.999 L80.000,85.999 L100.000,85.999 L100.000,87.999 L96.000,87.999 L96.000,107.999 L100.000,107.999 ZM22.000,101.997 L12.000,101.997 L12.000,117.128 L16.429,114.176 C16.756,113.948 17.203,113.931 17.554,114.165 L22.000,117.128 L22.000,101.997 ZM80.000,83.999 L80.000,83.999 L80.000,90.997 C80.000,91.188 79.945,91.381 79.832,91.552 C79.526,92.011 78.904,92.135 78.445,91.829 L73.000,88.199 L67.555,91.829 C67.396,91.936 67.205,91.997 67.000,91.997 C66.448,91.997 66.000,91.549 66.000,90.997 L66.000,83.999 L10.000,83.999 L10.000,81.999 L14.000,81.999 L14.000,62.000 L10.000,62.000 L10.000,59.999 L80.000,59.999 C85.523,59.999 90.000,65.372 90.000,72.000 C90.000,78.627 85.523,83.999 80.000,83.999 ZM68.000,89.128 L72.445,86.165 C72.797,85.931 73.244,85.948 73.571,86.176 L78.000,89.128 L78.000,73.997 L68.000,73.997 L68.000,89.128 ZM80.000,62.000 L16.000,62.000 L16.000,66.000 L24.000,66.000 L24.000,68.000 L16.000,68.000 L16.000,75.999 L32.000,75.999 L32.000,78.000 L16.000,78.000 L16.000,81.999 L66.000,81.999 L66.000,81.998 L66.000,81.998 L66.000,79.998 L66.000,79.998 L66.000,72.997 C66.000,72.445 66.448,71.996 67.000,71.996 L79.000,71.996 C79.552,71.996 80.000,72.445 80.000,72.997 L80.000,81.998 L80.000,81.998 L80.000,81.999 L80.000,81.999 C84.418,81.999 88.000,77.522 88.000,72.000 C88.000,66.476 84.418,62.000 80.000,62.000 ZM20.000,47.999 C20.000,42.477 23.134,38.000 27.000,38.000 L80.000,38.000 L80.000,40.000 L76.000,40.000 L76.000,55.999 L80.000,55.999 L80.000,57.999 L27.000,57.999 C23.134,57.999 20.000,53.522 20.000,47.999 ZM74.000,52.000 L62.000,52.000 L62.000,50.000 L74.000,50.000 L74.000,46.000 L66.000,46.000 L66.000,44.000 L74.000,44.000 L74.000,40.000 L27.000,40.000 C24.238,40.000 22.000,43.581 22.000,47.999 C22.000,52.418 24.238,55.999 27.000,55.999 L74.000,55.999 L74.000,52.000 ZM54.333,35.999 C52.863,35.999 51.291,35.478 50.000,34.623 C48.709,35.478 47.136,35.999 45.666,35.999 C43.070,35.999 40.312,33.519 38.795,31.615 C36.346,28.544 35.000,24.730 35.000,20.799 C35.000,17.738 35.752,14.595 37.958,12.356 C39.251,11.044 41.187,9.999 43.067,9.999 C45.438,9.999 48.150,10.863 50.000,12.532 C51.850,10.863 54.562,9.999 56.933,9.999 C58.812,9.999 60.749,11.044 62.042,12.356 C64.247,14.595 65.000,17.738 65.000,20.799 C65.000,24.958 63.942,29.173 61.142,32.351 C59.521,34.190 56.880,35.999 54.333,35.999 ZM56.933,11.999 C54.333,11.999 50.867,13.359 50.000,15.999 C49.133,13.359 45.666,11.999 43.067,11.999 C41.333,11.999 37.000,13.759 37.000,20.799 C37.000,28.719 43.067,33.999 45.666,33.999 C48.266,33.999 50.000,31.999 50.000,31.999 C50.000,31.999 51.733,33.999 54.333,33.999 C56.933,33.999 63.000,30.479 63.000,20.799 C63.000,13.759 58.666,11.999 56.933,11.999 ZM55.998,6.997 C54.762,8.234 53.053,8.999 51.167,8.999 C50.983,8.999 50.772,8.988 50.538,8.966 C50.327,8.948 50.127,8.920 49.938,8.886 C49.535,8.820 49.197,8.509 49.117,8.084 C49.081,7.890 49.053,7.681 49.032,7.461 C49.011,7.227 49.000,7.016 49.000,6.833 C49.000,4.976 49.742,3.292 50.947,2.060 L51.001,2.000 C52.238,0.764 53.947,-0.001 55.833,-0.001 C56.017,-0.001 56.228,0.010 56.462,0.031 C56.672,0.050 56.873,0.077 57.062,0.112 C57.465,0.178 57.803,0.488 57.883,0.913 C57.919,1.108 57.947,1.316 57.968,1.537 C57.989,1.771 58.000,1.981 58.000,2.165 C58.000,4.021 57.258,5.705 56.054,6.938 L55.998,6.997 ZM55.998,2.000 L55.833,1.999 C54.499,1.999 53.290,2.540 52.415,3.414 L52.367,3.460 C51.521,4.330 51.000,5.519 51.000,6.833 L51.002,6.997 L51.167,6.999 C52.501,6.999 53.710,6.458 54.584,5.583 L54.633,5.539 C55.479,4.668 56.000,3.478 56.000,2.165 L55.998,2.000 Z" class="books"/>
</svg>
