<svg xmlns="http://www.w3.org/2000/svg" xmlns:xlink="http://www.w3.org/1999/xlink" preserveAspectRatio="xMidYMid" width="100" height="100" viewBox="0 0 100 100">
  <g>
    <path d="M96.198,74.432 L99.708,77.943 C100.096,78.330 100.096,78.959 99.708,79.347 L96.198,82.857 L99.708,86.368 C100.096,86.756 100.096,87.384 99.708,87.772 L87.773,99.708 C87.385,100.095 86.757,100.095 86.369,99.708 L82.858,96.197 L79.348,99.708 C78.960,100.095 78.331,100.095 77.944,99.708 L74.433,96.197 L70.923,99.708 C70.535,100.095 69.906,100.095 69.519,99.708 L65.306,95.495 C64.918,95.107 64.918,94.478 65.306,94.091 L76.882,82.515 L69.166,74.799 C69.886,74.635 70.555,74.352 71.180,73.997 L78.290,81.106 L81.107,78.290 L73.997,71.179 C74.352,70.554 74.636,69.885 74.800,69.165 L82.516,76.881 L94.092,65.305 C94.479,64.917 95.108,64.917 95.496,65.305 L99.708,69.518 C100.096,69.905 100.096,70.534 99.708,70.922 L96.198,74.432 ZM87.071,97.601 L97.602,87.070 L94.794,84.261 L84.262,94.793 L87.071,97.601 ZM78.646,97.601 L97.602,78.645 L94.794,75.836 L75.837,94.793 L78.646,97.601 ZM94.794,67.412 L67.412,94.793 L70.221,97.601 L97.602,70.220 L94.794,67.412 ZM99.708,30.480 L95.496,34.693 C95.108,35.081 94.479,35.081 94.092,34.693 L82.516,23.117 L74.800,30.834 C74.636,30.113 74.352,29.444 73.997,28.819 L81.107,21.709 L78.290,18.891 L71.180,26.001 C70.555,25.646 69.886,25.363 69.166,25.199 L76.882,17.483 L65.306,5.907 C64.918,5.519 64.918,4.890 65.306,4.503 L69.519,0.290 C69.906,-0.097 70.535,-0.097 70.923,0.290 L74.433,3.801 L77.944,0.290 C78.331,-0.097 78.960,-0.097 79.348,0.290 L82.858,3.801 L86.369,0.290 C86.757,-0.097 87.385,-0.097 87.773,0.290 L99.708,12.226 C100.096,12.614 100.096,13.243 99.708,13.630 L96.198,17.141 L99.708,20.651 C100.096,21.039 100.096,21.668 99.708,22.055 L96.198,25.566 L99.708,29.076 C100.096,29.464 100.096,30.092 99.708,30.480 ZM97.602,12.928 L87.071,2.397 L84.262,5.205 L94.794,15.737 L97.602,12.928 ZM97.602,21.353 L78.646,2.397 L75.837,5.205 L94.794,24.162 L97.602,21.353 ZM70.221,2.397 L67.412,5.205 L94.794,32.586 L97.602,29.778 L70.221,2.397 ZM23.118,17.483 L30.834,25.199 C30.114,25.363 29.445,25.646 28.820,26.001 L21.710,18.891 L18.892,21.709 L26.002,28.819 C25.647,29.444 25.364,30.113 25.200,30.834 L17.484,23.117 L5.908,34.693 C5.520,35.081 4.892,35.081 4.504,34.693 L0.291,30.480 C-0.096,30.092 -0.096,29.464 0.291,29.076 L3.802,25.566 L0.291,22.055 C-0.096,21.668 -0.096,21.039 0.291,20.651 L3.802,17.141 L0.291,13.630 C-0.096,13.243 -0.096,12.614 0.291,12.226 L12.227,0.290 C12.615,-0.097 13.243,-0.097 13.631,0.290 L17.142,3.801 L20.652,0.290 C21.040,-0.097 21.668,-0.097 22.056,0.290 L25.567,3.801 L29.077,0.290 C29.465,-0.097 30.093,-0.097 30.481,0.290 L34.694,4.503 C35.082,4.890 35.082,5.519 34.694,5.907 L23.118,17.483 ZM12.929,2.397 L2.398,12.928 L5.206,15.737 L15.737,5.205 L12.929,2.397 ZM21.354,2.397 L2.398,21.353 L5.206,24.162 L24.162,5.205 L21.354,2.397 ZM29.779,2.397 L2.398,29.778 L5.206,32.586 L32.587,5.205 L29.779,2.397 ZM3.802,82.857 L0.291,79.347 C-0.096,78.959 -0.096,78.330 0.291,77.943 L3.802,74.432 L0.291,70.922 C-0.096,70.534 -0.096,69.905 0.291,69.518 L4.504,65.305 C4.892,64.917 5.520,64.917 5.908,65.305 L17.484,76.881 L25.200,69.165 C25.364,69.885 25.647,70.554 26.002,71.179 L18.892,78.290 L21.710,81.106 L28.820,73.997 C29.445,74.352 30.114,74.635 30.834,74.799 L23.118,82.515 L34.694,94.091 C35.082,94.478 35.082,95.107 34.694,95.495 L30.481,99.708 C30.093,100.095 29.465,100.095 29.077,99.708 L25.567,96.197 L22.056,99.708 C21.668,100.095 21.040,100.095 20.652,99.708 L17.142,96.197 L13.631,99.708 C13.243,100.095 12.615,100.095 12.227,99.708 L0.291,87.772 C-0.096,87.384 -0.096,86.756 0.291,86.368 L3.802,82.857 ZM29.779,97.601 L32.587,94.793 L5.206,67.412 L2.398,70.220 L29.779,97.601 ZM21.354,97.601 L24.162,94.793 L5.206,75.836 L2.398,78.645 L21.354,97.601 ZM12.929,97.601 L15.737,94.793 L5.206,84.261 L2.398,87.070 L12.929,97.601 Z" class="brains"/>
    <path d="M77.141,44.355 C77.428,44.566 77.698,44.798 77.950,45.049 L77.950,45.053 C79.216,46.320 80.000,48.069 80.000,49.999 C80.000,51.929 79.216,53.679 77.950,54.945 L77.950,54.949 C77.698,55.199 77.428,55.432 77.141,55.643 C77.333,55.992 77.495,56.360 77.625,56.742 C77.868,57.453 78.000,58.213 78.000,58.999 C78.000,60.927 77.217,62.676 75.947,63.947 L75.944,63.951 C75.131,64.762 74.120,65.375 72.992,65.710 L73.000,65.999 C73.000,67.928 72.217,69.676 70.947,70.946 L70.944,70.950 C69.676,72.216 67.927,72.999 66.000,72.999 C65.560,72.999 65.121,72.956 64.689,72.873 L64.409,72.814 C64.056,73.613 63.559,74.334 62.947,74.946 L62.944,74.950 C61.676,76.216 59.927,76.999 58.000,76.999 C56.071,76.999 54.323,76.216 53.052,74.946 L53.049,74.943 C51.783,73.675 51.000,71.926 51.000,69.999 L51.004,69.909 L51.004,62.088 L51.000,61.999 L51.004,61.766 L51.004,38.232 L51.000,37.999 L51.004,37.910 L51.004,30.089 L51.000,30.000 C51.000,28.071 51.782,26.324 53.050,25.053 L53.054,25.050 C54.323,23.782 56.071,22.999 58.000,22.999 C59.927,22.999 61.676,23.781 62.946,25.050 L62.949,25.053 C63.559,25.664 64.056,26.385 64.409,27.184 L64.689,27.124 C65.121,27.042 65.560,26.999 66.000,26.999 C67.927,26.999 69.675,27.782 70.945,29.049 L70.949,29.053 C72.217,30.322 73.000,32.071 73.000,33.999 L72.992,34.288 C74.120,34.623 75.131,35.236 75.946,36.050 L75.949,36.053 C77.217,37.322 78.000,39.071 78.000,40.999 C78.000,41.785 77.868,42.545 77.625,43.257 C77.495,43.638 77.333,44.006 77.141,44.355 ZM73.000,43.002 C73.836,43.003 74.637,43.149 75.380,43.417 C75.521,43.163 75.640,42.895 75.735,42.616 C75.906,42.112 76.000,41.568 76.000,40.999 C76.000,39.616 75.441,38.365 74.539,37.463 L74.535,37.460 C73.633,36.557 72.383,35.999 71.000,35.999 C70.316,35.999 69.669,36.133 69.084,36.375 C68.475,36.628 67.925,36.999 67.464,37.460 C67.076,37.850 66.444,37.851 66.054,37.463 C65.664,37.075 65.662,36.444 66.050,36.053 C66.695,35.408 67.467,34.887 68.326,34.532 C69.154,34.189 70.058,33.999 71.000,33.999 C71.000,32.616 70.441,31.365 69.539,30.463 L69.535,30.460 C68.633,29.558 67.383,28.999 66.000,28.999 C65.669,28.999 65.354,29.029 65.056,29.085 L64.943,29.108 C64.981,29.400 65.000,29.697 65.000,30.000 C65.000,31.927 64.217,33.675 62.949,34.945 L62.946,34.949 C61.677,36.216 59.928,37.000 58.000,37.000 C57.448,37.000 57.000,36.551 57.000,35.999 C57.000,35.447 57.448,34.999 58.000,34.999 C59.383,34.999 60.633,34.441 61.536,33.539 L61.539,33.534 C62.441,32.633 63.000,31.383 63.000,30.000 C63.000,28.616 62.441,27.366 61.539,26.463 L61.536,26.460 C60.633,25.558 59.383,24.999 58.000,24.999 C56.617,24.999 55.366,25.558 54.464,26.460 L54.461,26.463 C53.558,27.366 53.000,28.616 53.000,30.000 L52.996,30.089 L52.996,37.909 L53.000,37.999 C53.000,39.383 53.559,40.633 54.461,41.535 L54.465,41.538 C55.366,42.441 56.617,42.999 58.000,42.999 C58.552,42.999 59.000,43.447 59.000,43.999 C59.000,44.551 58.552,44.999 58.000,44.999 C56.072,44.999 54.323,44.216 53.053,42.947 L52.996,42.890 L52.996,57.108 L53.054,57.049 C54.323,55.782 56.072,54.998 58.000,54.998 C58.552,54.998 59.000,55.446 59.000,55.999 C59.000,56.551 58.552,56.999 58.000,56.999 C56.617,56.999 55.366,57.557 54.465,58.459 L54.461,58.464 C53.559,59.365 53.000,60.616 53.000,61.999 L52.996,62.089 L52.996,69.909 L53.000,69.999 C53.000,71.382 53.558,72.632 54.461,73.535 L54.464,73.538 C55.366,74.440 56.617,74.999 58.000,74.999 C59.383,74.999 60.633,74.440 61.536,73.538 L61.539,73.535 C62.441,72.632 63.000,71.382 63.000,69.999 C63.000,68.615 62.441,67.365 61.539,66.463 L61.536,66.459 C60.633,65.557 59.383,64.999 58.000,64.999 C57.448,64.999 57.000,64.551 57.000,63.999 C57.000,63.447 57.448,62.999 58.000,62.999 C59.928,62.999 61.677,63.782 62.947,65.051 L62.951,65.054 C64.217,66.323 65.000,68.071 65.000,69.999 C65.000,70.301 64.981,70.598 64.943,70.890 L65.056,70.912 C65.354,70.969 65.669,70.999 66.000,70.999 C67.383,70.999 68.633,70.441 69.535,69.538 L69.539,69.535 C70.441,68.633 71.000,67.382 71.000,65.999 C70.058,65.999 69.154,65.810 68.326,65.467 C67.467,65.111 66.695,64.590 66.050,63.945 C65.662,63.555 65.664,62.923 66.054,62.535 C66.444,62.146 67.076,62.148 67.464,62.538 C67.925,62.999 68.475,63.371 69.084,63.623 C69.669,63.865 70.316,63.999 71.000,63.999 C72.383,63.999 73.633,63.440 74.535,62.538 L74.539,62.535 C75.441,61.632 76.000,60.383 76.000,58.999 C76.000,58.430 75.906,57.886 75.735,57.382 C75.640,57.103 75.521,56.835 75.380,56.581 C74.638,56.849 73.836,56.995 73.000,56.995 C72.450,56.995 72.004,56.549 72.004,55.999 C72.004,55.449 72.450,55.003 73.000,55.003 C74.378,55.003 75.629,54.441 76.537,53.537 C77.441,52.632 78.000,51.382 78.000,49.999 C78.000,48.617 77.441,47.366 76.536,46.463 C75.629,45.557 74.378,44.995 73.000,44.995 C72.450,44.995 72.004,44.549 72.004,43.999 C72.004,43.449 72.450,43.002 73.000,43.002 ZM67.000,59.999 C66.448,59.999 66.000,59.551 66.000,58.999 C66.000,57.616 65.442,56.366 64.540,55.463 L64.536,55.460 C63.634,54.558 62.383,53.999 61.000,53.999 C60.448,53.999 60.000,53.551 60.000,52.999 C60.000,52.447 60.448,52.000 61.000,52.000 C62.929,52.000 64.677,52.782 65.948,54.051 L65.952,54.055 C67.217,55.323 68.000,57.072 68.000,58.999 C68.000,59.551 67.553,59.999 67.000,59.999 ZM65.946,45.948 C64.677,47.216 62.929,47.999 61.000,47.999 C60.448,47.999 60.000,47.551 60.000,46.999 C60.000,46.447 60.448,45.999 61.000,45.999 C62.383,45.999 63.634,45.441 64.536,44.538 L64.540,44.534 C65.442,43.633 66.000,42.382 66.000,40.999 C66.000,40.447 66.448,39.999 67.000,39.999 C67.553,39.999 68.000,40.447 68.000,40.999 C68.000,42.927 67.218,44.675 65.950,45.945 L65.946,45.948 ZM49.000,69.999 C49.000,71.926 48.217,73.675 46.951,74.943 L46.947,74.946 C45.677,76.216 43.928,76.999 42.000,76.999 C40.073,76.999 38.324,76.216 37.056,74.950 L37.052,74.946 C36.441,74.334 35.943,73.613 35.591,72.814 L35.311,72.873 C34.879,72.956 34.440,72.999 34.000,72.999 C32.073,72.999 30.324,72.216 29.056,70.950 L29.053,70.946 C27.783,69.676 27.000,67.928 27.000,65.999 L27.008,65.710 C25.880,65.375 24.869,64.762 24.056,63.951 L24.053,63.947 C22.783,62.676 22.000,60.927 22.000,58.999 C22.000,58.213 22.132,57.453 22.374,56.742 C22.505,56.360 22.667,55.992 22.859,55.643 C22.572,55.432 22.301,55.199 22.050,54.949 L22.050,54.945 C20.784,53.679 20.000,51.929 20.000,49.999 C20.000,48.069 20.784,46.320 22.050,45.053 L22.050,45.049 C22.301,44.798 22.572,44.566 22.859,44.355 C22.667,44.006 22.505,43.638 22.374,43.257 C22.132,42.545 22.000,41.785 22.000,40.999 C22.000,39.071 22.783,37.322 24.051,36.053 L24.054,36.050 C24.869,35.236 25.879,34.623 27.008,34.288 L27.000,33.999 C27.000,32.071 27.783,30.322 29.051,29.053 L29.054,29.049 C30.324,27.782 32.073,26.999 34.000,26.999 C34.440,26.999 34.879,27.042 35.311,27.124 L35.591,27.184 C35.943,26.385 36.441,25.664 37.050,25.053 L37.054,25.050 C38.324,23.781 40.072,22.999 42.000,22.999 C43.928,22.999 45.677,23.782 46.946,25.050 L46.949,25.053 C48.217,26.324 49.000,28.071 49.000,30.000 L48.996,30.089 L48.996,37.910 L49.000,37.999 L48.996,38.232 L48.996,61.766 L49.000,61.999 L48.996,62.088 L48.996,69.909 L49.000,69.999 ZM42.000,54.998 C43.928,54.998 45.677,55.782 46.945,57.049 L47.003,57.108 L47.003,42.890 L46.947,42.947 C45.677,44.216 43.928,44.999 42.000,44.999 C41.447,44.999 41.000,44.551 41.000,43.999 C41.000,43.447 41.447,42.999 42.000,42.999 C43.383,42.999 44.633,42.441 45.535,41.538 L45.539,41.535 C46.441,40.633 47.000,39.383 47.000,37.999 L47.003,37.909 L47.004,30.089 L47.000,30.000 C47.000,28.616 46.441,27.366 45.539,26.463 L45.535,26.460 C44.633,25.558 43.383,24.999 42.000,24.999 C40.617,24.999 39.366,25.558 38.464,26.460 L38.461,26.463 C37.558,27.366 37.000,28.616 37.000,30.000 C37.000,31.383 37.558,32.633 38.461,33.534 L38.464,33.539 C39.366,34.441 40.617,34.999 42.000,34.999 C42.552,34.999 43.000,35.447 43.000,35.999 C43.000,36.551 42.552,37.000 42.000,37.000 C40.071,37.000 38.323,36.216 37.054,34.949 L37.050,34.945 C35.782,33.675 35.000,31.927 35.000,30.000 C35.000,29.697 35.019,29.400 35.056,29.108 L34.944,29.085 C34.646,29.029 34.331,28.999 34.000,28.999 C32.617,28.999 31.367,29.558 30.464,30.460 L30.461,30.463 C29.558,31.365 29.000,32.616 29.000,33.999 C29.942,33.999 30.845,34.189 31.674,34.532 C32.532,34.887 33.305,35.408 33.950,36.053 C34.338,36.444 34.336,37.075 33.946,37.463 C33.556,37.851 32.924,37.850 32.536,37.460 C32.075,36.999 31.525,36.628 30.916,36.375 C30.331,36.133 29.684,35.999 29.000,35.999 C27.617,35.999 26.366,36.557 25.464,37.460 L25.461,37.463 C24.559,38.365 24.000,39.616 24.000,40.999 C24.000,41.568 24.094,42.112 24.265,42.616 C24.360,42.895 24.479,43.163 24.619,43.417 C25.362,43.149 26.164,43.003 27.000,43.002 C27.550,43.002 27.996,43.449 27.996,43.999 C27.996,44.549 27.550,44.995 27.000,44.995 C25.622,44.995 24.371,45.557 23.464,46.463 C22.559,47.366 22.000,48.617 22.000,49.999 C22.000,51.382 22.559,52.632 23.462,53.537 C24.371,54.441 25.622,55.003 27.000,55.003 C27.550,55.003 27.996,55.449 27.996,55.999 C27.996,56.549 27.550,56.995 27.000,56.995 C26.164,56.995 25.362,56.849 24.619,56.581 C24.479,56.835 24.360,57.103 24.265,57.382 C24.094,57.886 24.000,58.430 24.000,58.999 C24.000,60.383 24.559,61.632 25.461,62.535 L25.464,62.538 C26.366,63.440 27.617,63.999 29.000,63.999 C29.684,63.999 30.331,63.865 30.916,63.623 C31.525,63.371 32.075,62.999 32.536,62.538 C32.924,62.148 33.556,62.146 33.946,62.535 C34.336,62.923 34.338,63.555 33.950,63.945 C33.305,64.590 32.532,65.111 31.674,65.467 C30.845,65.810 29.942,65.999 29.000,65.999 C29.000,67.382 29.558,68.633 30.461,69.535 L30.464,69.538 C31.367,70.441 32.617,70.999 34.000,70.999 C34.331,70.999 34.646,70.969 34.944,70.912 L35.056,70.890 C35.019,70.598 35.000,70.301 35.000,69.999 C35.000,68.071 35.783,66.323 37.049,65.054 L37.052,65.051 C38.323,63.782 40.071,62.999 42.000,62.999 C42.552,62.999 43.000,63.447 43.000,63.999 C43.000,64.551 42.552,64.999 42.000,64.999 C40.617,64.999 39.366,65.557 38.464,66.459 L38.461,66.463 C37.558,67.365 37.000,68.615 37.000,69.999 C37.000,71.382 37.558,72.632 38.461,73.535 L38.464,73.538 C39.366,74.440 40.617,74.999 42.000,74.999 C43.383,74.999 44.633,74.440 45.535,73.538 L45.539,73.535 C46.441,72.632 47.000,71.382 47.000,69.999 L47.004,69.909 L47.003,62.089 L47.000,61.999 C47.000,60.616 46.441,59.365 45.539,58.464 L45.535,58.459 C44.633,57.557 43.383,56.999 42.000,56.999 C41.447,56.999 41.000,56.551 41.000,55.999 C41.000,55.446 41.447,54.998 42.000,54.998 ZM39.999,52.999 C39.999,53.551 39.552,53.999 38.999,53.999 C37.616,53.999 36.366,54.558 35.464,55.460 L35.460,55.463 C34.558,56.366 34.000,57.616 34.000,58.999 C34.000,59.551 33.552,59.999 32.999,59.999 C32.447,59.999 31.999,59.551 31.999,58.999 C31.999,57.072 32.783,55.323 34.048,54.055 L34.052,54.051 C35.156,52.948 37.375,52.215 39.204,52.041 C39.655,52.138 39.999,52.519 39.999,52.999 ZM38.999,52.000 L40.000,52.000 C39.747,52.000 39.479,52.015 39.204,52.041 C39.136,52.026 39.072,52.000 38.999,52.000 ZM38.999,47.999 C37.071,47.999 35.322,47.216 34.054,45.948 L34.050,45.945 C32.782,44.675 31.999,42.927 31.999,40.999 C31.999,40.447 32.447,39.999 32.999,39.999 C33.552,39.999 34.000,40.447 34.000,40.999 C34.000,42.382 34.558,43.633 35.460,44.534 L35.464,44.538 C36.366,45.441 37.616,45.999 38.999,45.999 C39.552,45.999 39.999,46.447 39.999,46.999 C39.999,47.551 39.552,47.999 38.999,47.999 Z" class="brains"/>
  </g>
</svg>
