<svg xmlns="http://www.w3.org/2000/svg" xmlns:xlink="http://www.w3.org/1999/xlink" width="18" height="20" preserveAspectRatio="xMidYMid" viewBox="0 0 18 20"><path d="M16.000,20.000 L2.000,20.000 C0.895,20.000 -0.000,19.105 -0.000,18.000 L-0.000,4.000 C-0.000,2.895 0.895,2.000 2.000,2.000 L4.000,2.000 L4.000,-0.000 L6.000,-0.000 L6.000,2.000 L12.000,2.000 L12.000,-0.000 L14.000,-0.000 L14.000,2.000 L16.000,2.000 C17.105,2.000 18.000,2.895 18.000,4.000 L18.000,18.000 C18.000,19.105 17.105,20.000 16.000,20.000 ZM16.000,18.000 L16.000,10.000 L2.000,10.000 L2.000,18.000 L16.000,18.000 ZM14.000,4.000 L14.000,6.000 L12.000,6.000 L12.000,4.000 L6.000,4.000 L6.000,6.000 L4.000,6.000 L4.000,4.000 L2.000,4.000 L2.000,8.000 L16.000,8.000 L16.000,4.000 L14.000,4.000 Z" class="calendar"/></svg>