<svg xmlns="http://www.w3.org/2000/svg" xmlns:xlink="http://www.w3.org/1999/xlink" preserveAspectRatio="xMidYMid" width="120" height="100" viewBox="0 0 120 100">
  <path d="M116.000,99.999 L4.000,99.999 C1.791,99.999 -0.000,98.208 -0.000,95.999 L-0.000,91.999 C-0.000,90.894 0.895,89.998 2.000,89.998 L10.000,89.998 L10.000,23.999 C10.000,21.790 11.791,19.999 14.000,19.999 L28.000,19.999 L28.000,1.998 C28.000,0.894 28.895,-0.001 30.000,-0.001 L76.000,-0.001 L78.001,-0.001 L91.997,13.996 L91.997,15.999 L92.000,15.999 L92.000,19.999 L106.000,19.999 C108.209,19.999 110.000,21.790 110.000,23.999 L110.000,89.998 L118.000,89.998 C119.104,89.998 120.000,90.894 120.000,91.999 L120.000,95.999 C120.000,98.208 118.209,99.999 116.000,99.999 ZM28.000,30.999 L28.000,30.999 C28.000,30.998 28.000,30.998 28.000,30.998 L28.000,27.999 L18.000,27.999 L18.000,33.998 L28.000,33.998 L28.000,30.999 ZM28.000,35.998 L18.000,35.998 L18.000,83.999 L28.000,83.999 L28.000,35.998 ZM78.005,2.830 L78.005,13.999 L89.173,13.999 L78.005,2.830 ZM77.999,15.999 C76.904,15.995 76.005,15.098 76.005,13.999 L76.005,1.998 L76.000,1.998 L30.000,1.998 L30.000,83.999 L90.000,83.999 L90.000,15.999 L77.999,15.999 ZM108.000,23.999 C108.000,22.894 107.104,21.999 106.000,21.999 L92.000,21.999 L92.000,25.999 L102.000,25.999 C103.104,25.999 104.000,26.894 104.000,27.999 L104.000,33.998 L104.000,35.998 L104.000,83.999 C104.000,85.103 103.104,85.999 102.000,85.999 L18.000,85.999 C16.895,85.999 16.000,85.103 16.000,83.999 L16.000,35.998 L16.000,33.998 L16.000,27.999 C16.000,26.894 16.895,25.999 18.000,25.999 L28.000,25.999 L28.000,21.999 L14.000,21.999 C12.895,21.999 12.000,22.894 12.000,23.999 L12.000,89.998 L50.000,89.998 C51.104,89.998 52.000,90.894 52.000,91.999 L68.000,91.999 C68.000,90.894 68.895,89.998 70.000,89.998 L108.000,89.998 L108.000,23.999 ZM102.000,33.998 L102.000,27.999 L92.000,27.999 L92.000,33.998 L102.000,33.998 ZM92.000,35.998 L92.000,83.999 L102.000,83.999 L102.000,35.998 L92.000,35.998 ZM118.000,91.999 L110.000,91.999 L108.000,91.999 L70.000,91.999 C70.000,93.103 69.104,93.999 68.000,93.999 L52.000,93.999 C50.895,93.999 50.000,93.103 50.000,91.999 L12.000,91.999 L10.000,91.999 L2.000,91.999 L2.000,95.999 C2.000,97.103 2.895,97.999 4.000,97.999 L116.000,97.999 C117.104,97.999 118.000,97.103 118.000,95.999 L118.000,91.999 ZM81.000,71.999 L39.000,71.999 C38.447,71.999 38.000,71.551 38.000,70.999 C38.000,70.447 38.447,69.999 39.000,69.999 L81.000,69.999 C81.552,69.999 82.000,70.447 82.000,70.999 C82.000,71.551 81.552,71.999 81.000,71.999 ZM81.000,63.999 L39.000,63.999 C38.447,63.999 38.000,63.551 38.000,62.999 C38.000,62.446 38.447,61.999 39.000,61.999 L81.000,61.999 C81.552,61.999 82.000,62.446 82.000,62.999 C82.000,63.551 81.552,63.999 81.000,63.999 ZM81.000,55.999 L39.000,55.999 C38.447,55.999 38.000,55.551 38.000,54.999 C38.000,54.446 38.447,53.999 39.000,53.999 L81.000,53.999 C81.552,53.999 82.000,54.446 82.000,54.999 C82.000,55.551 81.552,55.999 81.000,55.999 ZM81.000,47.999 L39.000,47.999 C38.447,47.999 38.000,47.551 38.000,46.999 C38.000,46.447 38.447,45.999 39.000,45.999 L81.000,45.999 C81.552,45.999 82.000,46.447 82.000,46.999 C82.000,47.551 81.552,47.999 81.000,47.999 ZM81.000,39.999 L65.000,39.999 C64.448,39.999 64.000,39.551 64.000,38.999 C64.000,38.447 64.448,37.999 65.000,37.999 L81.000,37.999 C81.552,37.999 82.000,38.447 82.000,38.999 C82.000,39.551 81.552,39.999 81.000,39.999 ZM81.000,31.999 L65.000,31.999 C64.448,31.999 64.000,31.551 64.000,30.999 C64.000,30.447 64.448,29.998 65.000,29.998 L81.000,29.998 C81.552,29.998 82.000,30.447 82.000,30.999 C82.000,31.551 81.552,31.999 81.000,31.999 ZM81.000,23.999 L65.000,23.999 C64.448,23.999 64.000,23.551 64.000,22.999 C64.000,22.446 64.448,21.999 65.000,21.999 L81.000,21.999 C81.552,21.999 82.000,22.446 82.000,22.999 C82.000,23.551 81.552,23.999 81.000,23.999 ZM56.000,39.999 L40.000,39.999 C38.895,39.999 38.000,39.103 38.000,37.999 L38.000,17.999 C38.000,16.894 38.895,15.999 40.000,15.999 L56.000,15.999 C57.104,15.999 58.000,16.894 58.000,17.999 L58.000,37.999 C58.000,39.103 57.104,39.999 56.000,39.999 ZM56.000,17.999 L40.000,17.999 L40.000,37.999 L56.000,37.999 L56.000,17.999 ZM21.000,29.998 C21.552,29.998 22.000,30.446 22.000,30.999 C22.000,31.551 21.552,31.999 21.000,31.999 C20.447,31.999 20.000,31.551 20.000,30.999 C20.000,30.446 20.447,29.998 21.000,29.998 ZM25.000,29.998 C25.552,29.998 26.000,30.446 26.000,30.999 C26.000,31.551 25.552,31.999 25.000,31.999 C24.447,31.999 24.000,31.551 24.000,30.999 C24.000,30.446 24.447,29.998 25.000,29.998 Z" class="content"/>
</svg>
