<svg xmlns="http://www.w3.org/2000/svg" xmlns:xlink="http://www.w3.org/1999/xlink" width="120" height="120" preserveAspectRatio="xMidYMid" viewBox="0 0 120 120"><path d="M119.000,60.999 L115.975,60.999 C115.710,76.063 109.513,89.683 99.598,99.597 C89.684,109.511 76.065,115.709 61.000,115.974 L61.000,118.999 C61.000,119.551 60.552,119.998 60.000,119.998 C59.448,119.998 59.000,119.551 59.000,118.999 L59.000,115.974 C43.935,115.709 30.316,109.511 20.402,99.597 C10.487,89.683 4.289,76.063 4.025,60.999 L1.000,60.999 C0.448,60.999 -0.000,60.551 -0.000,59.999 C-0.000,59.447 0.448,58.998 1.000,58.998 L4.025,58.998 C4.290,43.933 10.487,30.314 20.402,20.401 C30.316,10.486 43.935,4.288 59.000,4.023 L59.000,0.999 C59.000,0.447 59.448,-0.001 60.000,-0.001 C60.552,-0.001 61.000,0.447 61.000,0.999 L61.000,4.023 C76.065,4.288 89.684,10.486 99.598,20.401 C109.512,30.314 115.710,43.933 115.975,58.998 L119.000,58.998 C119.552,58.998 120.000,59.447 120.000,59.999 C120.000,60.551 119.552,60.999 119.000,60.999 ZM111.000,58.998 L113.975,58.998 C113.710,44.485 107.736,31.366 98.184,21.815 C88.632,12.263 75.513,6.288 61.000,6.023 L61.000,8.999 C61.000,9.551 60.552,9.999 60.000,9.999 C59.448,9.999 59.000,9.551 59.000,8.999 L59.000,6.023 C44.486,6.288 31.367,12.263 21.816,21.815 C12.264,31.366 6.289,44.485 6.025,58.998 L9.000,58.998 C9.552,58.998 10.000,59.447 10.000,59.999 C10.000,60.551 9.552,60.999 9.000,60.999 L6.025,60.999 C6.289,75.513 12.264,88.631 21.816,98.183 C31.367,107.735 44.486,113.709 59.000,113.974 L59.000,110.999 C59.000,110.446 59.448,109.998 60.000,109.998 C60.552,109.998 61.000,110.446 61.000,110.999 L61.000,113.974 C75.513,113.709 88.632,107.735 98.184,98.183 C107.736,88.631 113.710,75.513 113.975,60.999 L111.000,60.999 C110.447,60.999 109.999,60.551 109.999,59.999 C109.999,59.447 110.447,58.998 111.000,58.998 ZM60.000,101.999 C48.402,101.999 37.902,97.298 30.301,89.697 C22.701,82.097 17.999,71.597 17.999,59.999 C17.999,48.401 22.701,37.901 30.301,30.300 C37.902,22.700 48.402,17.999 60.000,17.999 C71.598,17.999 82.098,22.700 89.698,30.300 C97.299,37.901 102.000,48.401 102.000,59.999 C102.000,71.597 97.299,82.097 89.698,89.697 C82.098,97.298 71.598,101.999 60.000,101.999 ZM88.284,31.714 C81.046,24.476 71.046,19.999 60.000,19.999 C48.954,19.999 38.953,24.476 31.715,31.714 C24.477,38.952 20.000,48.953 20.000,59.999 C20.000,71.045 24.477,81.045 31.715,88.284 C38.953,95.522 48.954,99.999 60.000,99.999 C71.046,99.999 81.046,95.522 88.284,88.284 C95.523,81.045 100.000,71.045 100.000,59.999 C100.000,48.953 95.523,38.952 88.284,31.714 ZM74.927,92.356 C74.731,92.870 74.155,93.127 73.642,92.931 C73.382,92.832 73.188,92.635 73.085,92.399 L59.086,60.397 C58.866,59.892 59.096,59.304 59.601,59.084 C59.866,58.969 60.153,58.978 60.398,59.084 L92.401,73.082 C92.906,73.302 93.137,73.890 92.917,74.395 C92.797,74.669 92.569,74.862 92.305,74.946 L79.771,79.770 L74.927,92.356 ZM61.934,61.933 L73.940,89.380 L78.071,78.644 C78.169,78.389 78.370,78.175 78.645,78.070 L89.381,73.939 L61.934,61.933 ZM71.314,48.685 C71.705,49.075 71.705,49.708 71.314,50.098 L67.071,54.342 C66.681,54.733 66.047,54.733 65.657,54.342 C65.267,53.951 65.267,53.318 65.657,52.928 L69.901,48.685 C70.291,48.294 70.924,48.294 71.314,48.685 ZM54.344,67.069 L50.100,71.312 C49.710,71.702 49.077,71.702 48.686,71.312 C48.296,70.922 48.296,70.289 48.686,69.899 L52.930,65.655 C53.320,65.265 53.954,65.265 54.344,65.655 C54.734,66.046 54.734,66.679 54.344,67.069 ZM52.001,59.998 C52.001,60.551 51.553,60.999 51.001,60.999 L45.000,60.999 C44.447,60.999 44.000,60.551 44.000,59.998 C44.000,59.447 44.447,58.998 45.000,58.998 L51.001,58.998 C51.553,58.998 52.001,59.447 52.001,59.998 ZM50.100,48.685 L54.344,52.928 C54.734,53.318 54.734,53.951 54.344,54.342 C53.954,54.733 53.320,54.733 52.930,54.342 L48.686,50.098 C48.296,49.708 48.296,49.075 48.686,48.685 C49.077,48.294 49.710,48.294 50.100,48.685 ZM60.000,43.998 C60.553,43.998 61.001,44.446 61.001,44.997 L61.001,50.999 C61.001,51.551 60.553,52.000 60.000,52.000 C59.448,52.000 59.000,51.551 59.000,50.999 L59.000,44.997 C59.000,44.446 59.448,43.998 60.000,43.998 ZM84.869,67.605 C85.604,65.199 86.000,62.645 86.000,59.999 C86.000,52.819 83.090,46.318 78.385,41.613 C73.680,36.909 67.180,33.999 60.000,33.999 C52.820,33.999 46.319,36.909 41.615,41.613 C36.910,46.318 34.000,52.819 34.000,59.999 C34.000,67.179 36.910,73.679 41.615,78.383 C46.319,83.089 52.820,85.999 60.000,85.999 C62.647,85.999 65.201,85.603 67.608,84.868 L68.414,86.712 C65.758,87.548 62.932,87.999 60.000,87.999 C52.268,87.999 45.268,84.865 40.201,79.798 C35.134,74.731 32.000,67.731 32.000,59.999 C32.000,52.267 35.134,45.267 40.201,40.200 C45.268,35.133 52.268,31.998 60.000,31.998 C67.732,31.998 74.732,35.133 79.799,40.200 C84.866,45.267 88.000,52.267 88.000,59.999 C88.000,62.930 87.549,65.756 86.714,68.412 L84.869,67.605 Z" class="context-adv"/></svg>