<svg xmlns="http://www.w3.org/2000/svg" xmlns:xlink="http://www.w3.org/1999/xlink" width="80" height="100" preserveAspectRatio="xMidYMid" viewBox="0 0 80 100"><path d="M80.000,97.998 C80.000,99.104 79.105,99.999 78.000,99.999 L2.000,99.999 C0.895,99.999 -0.000,99.104 -0.000,97.998 L-0.000,1.998 C-0.000,0.892 0.895,-0.002 2.000,-0.002 L64.000,-0.002 L66.002,-0.002 L79.997,13.995 L79.997,15.998 L80.000,15.998 L80.000,97.998 ZM66.005,2.829 L66.005,13.999 L77.173,13.999 L66.005,2.829 ZM78.000,15.998 L65.999,15.998 C64.904,15.994 64.005,15.097 64.005,13.999 L64.005,1.998 L64.000,1.998 L2.000,1.998 L2.000,97.998 L78.000,97.998 L78.000,15.998 ZM12.000,15.998 L28.000,15.998 C29.104,15.998 30.000,16.892 30.000,17.997 L30.000,37.998 C30.000,39.102 29.104,39.997 28.000,39.997 L12.000,39.997 C10.895,39.997 10.000,39.102 10.000,37.998 L10.000,17.997 C10.000,16.892 10.895,15.998 12.000,15.998 ZM12.000,37.998 L28.000,37.998 L28.000,17.997 L12.000,17.997 L12.000,37.998 ZM11.000,45.998 L69.000,45.998 C69.552,45.998 70.000,46.445 70.000,46.997 C70.000,47.550 69.552,47.997 69.000,47.997 L11.000,47.997 C10.447,47.997 10.000,47.550 10.000,46.997 C10.000,46.445 10.447,45.998 11.000,45.998 ZM11.000,53.997 L69.000,53.997 C69.552,53.997 70.000,54.445 70.000,54.997 C70.000,55.550 69.552,55.997 69.000,55.997 L11.000,55.997 C10.447,55.997 10.000,55.550 10.000,54.997 C10.000,54.445 10.447,53.997 11.000,53.997 ZM11.000,61.997 L69.000,61.997 C69.552,61.997 70.000,62.445 70.000,62.997 C70.000,63.550 69.552,63.997 69.000,63.997 L11.000,63.997 C10.447,63.997 10.000,63.550 10.000,62.997 C10.000,62.445 10.447,61.997 11.000,61.997 ZM11.000,69.997 L69.000,69.997 C69.552,69.997 70.000,70.445 70.000,70.997 C70.000,71.550 69.552,71.997 69.000,71.997 L11.000,71.997 C10.447,71.997 10.000,71.550 10.000,70.997 C10.000,70.445 10.447,69.997 11.000,69.997 ZM69.000,39.997 L37.000,39.997 C36.448,39.997 36.000,39.550 36.000,38.997 C36.000,38.445 36.448,37.998 37.000,37.998 L69.000,37.998 C69.552,37.998 70.000,38.445 70.000,38.997 C70.000,39.550 69.552,39.997 69.000,39.997 ZM69.000,31.997 L37.000,31.997 C36.448,31.997 36.000,31.550 36.000,30.998 C36.000,30.445 36.448,29.997 37.000,29.997 L69.000,29.997 C69.552,29.997 70.000,30.445 70.000,30.998 C70.000,31.550 69.552,31.997 69.000,31.997 ZM69.000,23.998 L37.000,23.998 C36.448,23.998 36.000,23.550 36.000,22.998 C36.000,22.445 36.448,21.998 37.000,21.998 L69.000,21.998 C69.552,21.998 70.000,22.445 70.000,22.998 C70.000,23.550 69.552,23.998 69.000,23.998 Z" class="cls-1"/></svg>