<svg xmlns="http://www.w3.org/2000/svg" xmlns:xlink="http://www.w3.org/1999/xlink" preserveAspectRatio="xMidYMid" width="120" height="80" viewBox="0 0 120 80">
  <defs>
    <style>
      .cls-1 {
        fill: #21aa00;
        fill-rule: evenodd;
      }
    </style>
  </defs>
  <path d="M115.999,79.998 L3.999,79.998 C1.791,79.998 -0.000,78.206 -0.000,75.997 L-0.000,71.997 C-0.000,70.892 0.895,69.997 2.000,69.997 L10.000,69.997 L10.000,3.997 C10.000,1.787 11.791,-0.003 14.000,-0.003 L106.000,-0.003 C108.209,-0.003 110.000,1.787 110.000,3.997 L110.000,69.997 L118.000,69.997 C119.104,69.997 120.000,70.892 120.000,71.997 L120.000,75.997 C120.000,78.206 118.209,79.998 115.999,79.998 ZM108.000,3.997 C108.000,2.893 107.104,1.997 105.999,1.997 L14.000,1.997 C12.895,1.997 12.000,2.893 12.000,3.997 L12.000,69.997 L50.000,69.997 C51.104,69.997 52.000,70.892 52.000,71.997 L68.000,71.997 C68.000,70.892 68.895,69.997 70.000,69.997 L108.000,69.997 L108.000,3.997 ZM118.000,71.997 L110.000,71.997 L108.000,71.997 L70.000,71.997 C70.000,73.101 69.104,73.997 68.000,73.997 L52.000,73.997 C50.895,73.997 50.000,73.101 50.000,71.997 L12.000,71.997 L10.000,71.997 L2.000,71.997 L2.000,75.997 C2.000,77.101 2.895,77.997 3.999,77.997 L115.999,77.997 C117.104,77.997 118.000,77.101 118.000,75.997 L118.000,71.997 ZM16.000,63.998 L16.000,15.997 L16.000,13.997 L16.000,7.997 C16.000,6.892 16.895,5.997 18.000,5.997 L102.000,5.997 C103.104,5.997 104.000,6.892 104.000,7.997 L104.000,13.997 L104.000,15.997 L104.000,63.998 C104.000,65.102 103.104,65.997 102.000,65.997 L18.000,65.997 C16.895,65.997 16.000,65.102 16.000,63.998 ZM102.000,7.997 L18.000,7.997 L18.000,13.997 L102.000,13.997 L102.000,7.997 ZM102.000,15.997 L18.000,15.997 L18.000,63.998 L102.000,63.998 L102.000,15.997 ZM53.992,30.264 L67.992,38.261 C68.633,38.625 69.000,39.259 69.000,39.996 C69.000,40.733 68.633,41.366 67.992,41.731 L53.992,49.727 C53.356,50.091 52.630,50.089 51.996,49.722 C51.362,49.354 51.000,48.725 51.000,47.992 L51.000,32.000 C51.000,31.267 51.362,30.638 51.996,30.270 C52.630,29.903 53.356,29.901 53.992,30.264 ZM53.000,47.992 L67.000,39.996 L53.000,32.000 L53.000,47.992 ZM21.000,9.997 C21.552,9.997 22.000,10.445 22.000,10.997 C22.000,11.549 21.552,11.997 21.000,11.997 C20.447,11.997 20.000,11.549 20.000,10.997 C20.000,10.445 20.447,9.997 21.000,9.997 ZM25.000,9.997 C25.552,9.997 26.000,10.445 26.000,10.997 C26.000,11.549 25.552,11.997 25.000,11.997 C24.447,11.997 24.000,11.549 24.000,10.997 C24.000,10.445 24.447,9.997 25.000,9.997 ZM28.999,9.997 C29.552,9.997 30.000,10.445 30.000,10.997 C30.000,11.549 29.552,11.997 28.999,11.997 C28.447,11.997 28.000,11.549 28.000,10.997 C28.000,10.445 28.447,9.997 28.999,9.997 Z" class="cls-1"/>
</svg>
