<svg xmlns="http://www.w3.org/2000/svg" xmlns:xlink="http://www.w3.org/1999/xlink" preserveAspectRatio="xMidYMid" width="100" height="100" viewBox="0 0 100 100">
  <path d="M99.000,94.998 L84.000,94.998 L84.000,99.000 C84.000,99.551 83.552,100.000 83.000,100.000 C82.795,100.000 82.604,99.938 82.445,99.832 L78.000,96.203 L73.555,99.832 C73.095,100.138 72.474,100.014 72.168,99.554 C72.054,99.384 72.000,99.190 72.000,99.000 L72.000,94.998 L1.000,94.998 C0.447,94.998 -0.000,94.550 -0.000,93.998 L-0.000,15.998 C-0.000,15.445 0.447,14.997 1.000,14.997 L23.070,14.997 L48.867,0.133 C49.239,-0.080 50.000,-0.003 50.000,-0.003 C50.000,-0.003 50.761,-0.080 51.132,0.132 L77.036,14.997 L99.000,14.997 C99.552,14.997 100.000,15.445 100.000,15.998 L100.000,93.998 C100.000,94.550 99.552,94.998 99.000,94.998 ZM74.000,85.004 L74.000,89.060 L74.000,89.060 L74.000,97.132 L77.429,94.180 C77.756,93.953 78.203,93.934 78.554,94.170 L82.000,97.132 L82.000,89.060 L82.000,89.060 L82.000,85.004 L82.275,84.728 L81.392,84.742 L78.587,86.787 C78.224,87.051 77.741,87.034 77.400,86.776 L74.610,84.742 L73.724,84.728 L74.000,85.004 ZM74.956,82.756 C75.155,82.760 75.354,82.820 75.527,82.947 L78.001,84.750 L80.446,82.967 C80.612,82.838 80.819,82.759 81.045,82.756 L84.074,82.706 L85.063,79.707 L85.066,79.708 C85.125,79.527 85.237,79.361 85.399,79.235 L87.855,77.324 L86.947,74.265 C86.894,74.088 86.891,73.893 86.947,73.703 L87.855,70.644 L85.462,68.781 C85.280,68.661 85.136,68.482 85.063,68.260 L84.074,65.261 L81.045,65.212 C80.847,65.209 80.647,65.147 80.475,65.021 L78.001,63.217 L75.555,65.000 C75.390,65.130 75.182,65.209 74.956,65.212 L71.928,65.261 L70.939,68.260 L70.936,68.259 C70.876,68.440 70.764,68.606 70.603,68.732 L68.147,70.644 L69.055,73.703 C69.107,73.881 69.111,74.074 69.055,74.265 L68.147,77.324 L70.540,79.186 C70.722,79.306 70.866,79.485 70.939,79.707 L71.928,82.706 L74.956,82.756 ZM72.060,84.701 L71.184,84.686 C70.748,84.680 70.382,84.394 70.253,84.003 L70.250,84.004 L69.133,80.616 L66.383,78.477 C66.052,78.218 65.929,77.792 66.040,77.411 L67.057,73.983 L66.039,70.557 C65.916,70.135 66.083,69.697 66.425,69.459 L69.133,67.351 L70.250,63.964 C70.396,63.521 70.822,63.250 71.266,63.279 L74.610,63.226 L77.415,61.180 C77.778,60.915 78.261,60.934 78.602,61.192 L81.392,63.226 L84.817,63.280 C85.253,63.287 85.619,63.572 85.748,63.965 L85.751,63.964 L86.869,67.351 L89.618,69.490 C89.949,69.750 90.073,70.177 89.961,70.556 L88.945,73.983 L89.962,77.410 C90.086,77.833 89.918,78.271 89.577,78.510 L86.869,80.616 L85.751,84.004 C85.606,84.446 85.180,84.719 84.735,84.688 L83.940,84.701 C83.970,84.797 84.000,84.893 84.000,84.999 L84.000,88.998 L88.079,88.998 C88.519,85.934 90.936,83.516 94.000,83.076 L94.000,26.918 C90.936,26.479 88.519,24.061 88.079,20.997 L11.920,20.997 C11.481,24.061 9.063,26.479 6.000,26.918 L6.000,83.076 C9.063,83.516 11.481,85.934 11.920,88.998 L72.000,88.998 L72.000,84.999 C72.000,84.893 72.030,84.797 72.060,84.701 ZM50.007,2.002 L50.000,1.998 L50.000,2.006 C50.001,2.007 50.000,2.006 50.001,2.008 C50.002,2.006 50.002,2.006 50.003,2.006 C50.002,2.007 50.003,2.006 50.001,2.009 C50.011,2.027 50.007,2.025 50.000,2.018 L50.000,2.009 L50.000,2.009 C49.998,2.011 49.997,2.012 49.995,2.012 C49.993,2.015 49.994,2.012 49.994,2.011 C49.994,2.011 49.995,2.009 49.995,2.009 L49.993,2.009 L27.342,14.997 L72.765,14.997 L50.007,2.002 ZM98.000,16.998 L2.000,16.998 L2.000,92.997 L72.000,92.997 L72.000,90.998 L12.000,90.998 L11.000,90.998 C10.447,90.998 10.000,90.550 10.000,89.999 C10.000,87.236 7.761,84.998 5.000,84.998 C4.448,84.998 4.000,84.550 4.000,83.998 L4.000,25.998 C4.000,25.446 4.448,24.998 5.000,24.998 C7.761,24.998 10.000,22.759 10.000,19.998 C10.000,19.446 10.447,18.997 11.000,18.997 L12.000,18.997 L88.000,18.997 L89.000,18.997 C89.552,18.997 90.000,19.446 90.000,19.998 C90.000,22.759 92.238,24.998 95.000,24.998 C95.552,24.998 96.000,25.446 96.000,25.998 L96.000,83.998 C96.000,84.550 95.552,84.998 95.000,84.998 C92.238,84.998 90.000,87.236 90.000,89.999 C90.000,90.550 89.552,90.998 89.000,90.998 L88.000,90.998 L84.000,90.998 L84.000,92.997 L98.000,92.997 L98.000,16.998 ZM49.996,2.014 C49.998,2.016 49.998,2.016 50.000,2.018 L50.000,2.019 C49.997,2.015 49.998,2.017 49.996,2.014 ZM30.000,55.997 C30.000,55.445 30.448,54.997 31.000,54.997 L69.000,54.997 C69.552,54.997 70.000,55.445 70.000,55.997 C70.000,56.550 69.552,56.998 69.000,56.998 L31.000,56.998 C30.448,56.998 30.000,56.550 30.000,55.997 ZM25.000,49.997 C25.000,49.446 25.448,48.997 26.000,48.997 L74.000,48.997 C74.552,48.997 75.000,49.446 75.000,49.997 C75.000,50.550 74.552,50.998 74.000,50.998 L26.000,50.998 C25.448,50.998 25.000,50.550 25.000,49.997 ZM64.000,40.998 L36.000,40.998 C35.448,40.998 35.000,40.551 35.000,39.997 C35.000,39.445 35.448,38.997 36.000,38.997 L64.000,38.997 C64.552,38.997 65.000,39.445 65.000,39.997 C65.000,40.551 64.552,40.998 64.000,40.998 ZM41.000,68.997 L59.000,68.997 C59.552,68.997 60.000,69.445 60.000,69.997 C60.000,70.550 59.552,70.998 59.000,70.998 L41.000,70.998 C40.448,70.998 40.000,70.550 40.000,69.997 C40.000,69.445 40.448,68.997 41.000,68.997 ZM78.000,67.998 C81.314,67.998 84.000,70.684 84.000,73.998 C84.000,77.312 81.314,79.998 78.000,79.998 C74.686,79.998 72.000,77.312 72.000,73.998 C72.000,70.684 74.686,67.998 78.000,67.998 ZM78.000,77.998 C80.209,77.998 82.000,76.206 82.000,73.998 C82.000,71.789 80.209,69.997 78.000,69.997 C75.791,69.997 74.000,71.789 74.000,73.998 C74.000,76.206 75.791,77.998 78.000,77.998 Z" class="diplom"/>
</svg>
