<svg xmlns="http://www.w3.org/2000/svg" xmlns:xlink="http://www.w3.org/1999/xlink" preserveAspectRatio="xMidYMid" width="20" height="18" viewBox="0 0 20 18">
  <path d="M17.994,18.000 L2.001,18.000 C1.269,18.000 0.640,17.638 0.272,17.004 C-0.095,16.370 -0.098,15.644 0.266,15.008 L8.262,1.008 C8.628,0.367 9.260,-0.000 9.998,-0.000 C10.735,-0.000 11.368,0.367 11.733,1.008 L19.729,15.008 C20.093,15.644 20.090,16.370 19.723,17.004 C19.355,17.638 18.726,18.000 17.994,18.000 L17.994,18.000 ZM9.853,14.512 L12.852,9.512 C13.134,9.040 12.980,8.427 12.508,8.145 C12.036,7.863 11.424,8.017 11.142,8.489 L9.998,10.396 L8.854,8.489 C8.572,8.017 7.959,7.863 7.487,8.145 C7.015,8.427 6.861,9.040 7.144,9.512 L8.836,12.333 L8.143,13.488 C7.861,13.961 8.015,14.573 8.487,14.855 C8.959,15.138 9.571,14.984 9.853,14.512 L9.853,14.512 ZM17.994,16.000 L9.998,2.000 L2.001,16.000 L17.994,16.000 Z" class="edu-sign" fill-rule="evenodd"/>
</svg>
