<svg xmlns="http://www.w3.org/2000/svg" xmlns:xlink="http://www.w3.org/1999/xlink" width="20" height="18" preserveAspectRatio="xMidYMid" viewBox="0 0 20 18"><path d="M9.982,0.004 C16.670,0.004 19.897,8.624 19.906,8.649 C19.997,8.887 19.990,9.139 19.906,9.360 C19.901,9.371 19.192,11.266 17.752,13.278 L18.973,14.501 L17.475,16.000 L16.400,14.925 L15.006,13.530 L13.046,11.568 L11.622,10.142 L8.841,7.359 L7.417,5.933 L5.463,3.977 L4.066,2.579 L2.988,1.500 L4.487,-0.000 L5.750,1.264 C6.962,0.504 8.372,0.004 9.982,0.004 L9.982,0.004 ZM16.333,11.857 C17.136,10.672 17.659,9.554 17.895,9.004 C17.264,7.535 14.585,2.004 9.982,2.004 C8.960,2.004 8.033,2.277 7.202,2.717 L9.510,5.028 C9.665,5.010 9.822,5.000 9.982,5.000 C12.189,5.000 13.978,6.791 13.978,9.000 C13.978,9.160 13.968,9.318 13.950,9.472 L16.333,11.857 L16.333,11.857 ZM11.269,12.788 L9.394,10.912 C8.763,10.718 8.266,10.220 8.072,9.589 L6.197,7.713 C6.060,8.117 5.986,8.550 5.986,9.000 C5.986,11.209 7.775,13.000 9.982,13.000 C10.432,13.000 10.865,12.926 11.269,12.788 L11.269,12.788 ZM14.813,16.336 L13.394,14.916 C12.409,15.573 11.271,16.008 9.982,16.008 C5.380,16.008 2.700,10.474 2.069,9.004 C2.344,8.364 3.008,6.953 4.051,5.564 L2.642,4.154 C0.913,6.365 0.063,8.636 0.058,8.649 C-0.026,8.870 -0.033,9.121 0.058,9.360 C0.067,9.384 3.293,18.000 9.982,18.000 C11.865,18.000 13.473,17.317 14.813,16.336 Z" class="eyes-cross"/></svg>