<svg xmlns="http://www.w3.org/2000/svg" xmlns:xlink="http://www.w3.org/1999/xlink" width="20" height="18" preserveAspectRatio="xMidYMid" viewBox="0 0 20 18"><path d="M19.910,9.356 C19.901,9.380 16.675,17.995 9.986,17.996 C3.297,17.996 0.071,9.380 0.062,9.356 C-0.029,9.117 -0.022,8.866 0.062,8.645 C0.071,8.620 3.298,0.000 9.986,0.000 C16.674,0.000 19.901,8.620 19.910,8.645 C20.001,8.883 19.994,9.135 19.910,9.356 ZM9.986,2.000 C5.383,2.000 2.704,7.531 2.073,9.000 C2.704,10.470 5.384,16.004 9.986,16.004 C14.588,16.004 17.268,10.470 17.899,9.000 C17.268,7.531 14.589,2.000 9.986,2.000 ZM9.986,13.000 C7.779,13.000 5.990,11.209 5.990,9.000 C5.990,6.791 7.779,5.000 9.986,5.000 C12.193,5.000 13.982,6.791 13.982,9.000 C13.982,11.209 12.193,13.000 9.986,13.000 ZM9.986,7.000 C8.883,7.000 7.988,7.896 7.988,9.000 C7.988,10.105 8.883,11.000 9.986,11.000 C11.089,11.000 11.984,10.105 11.984,9.000 C11.984,7.896 11.089,7.000 9.986,7.000 Z" class="eyes"/></svg>