<svg xmlns="http://www.w3.org/2000/svg" xmlns:xlink="http://www.w3.org/1999/xlink" width="120" height="110" preserveAspectRatio="xMidYMid" viewBox="0 0 120 110"><g><path d="M119.858,44.444 L112.899,61.360 C112.754,61.734 112.391,61.999 111.966,61.999 L63.940,61.999 L63.940,107.999 L63.940,107.999 L108.940,107.999 C109.492,107.999 109.940,108.447 109.940,108.999 C109.940,109.551 109.492,109.999 108.940,109.999 L10.940,109.999 C10.388,109.999 9.940,109.551 9.940,108.999 C9.940,108.447 10.388,107.999 10.940,107.999 L55.940,107.999 L55.940,107.999 L55.940,81.999 L15.967,81.999 C15.543,81.999 15.180,81.734 15.035,81.360 L8.084,64.445 C7.938,64.153 7.949,63.824 8.084,63.554 L15.077,46.554 C15.251,46.205 15.602,46.003 15.967,46.003 L15.967,45.999 L55.940,45.999 L55.940,41.999 L7.967,41.999 C7.543,41.999 7.180,41.734 7.035,41.360 L0.084,24.444 C-0.062,24.153 -0.051,23.824 0.084,23.554 L7.077,6.554 C7.251,6.205 7.602,6.003 7.967,6.003 L7.967,5.999 L55.940,5.999 L55.940,1.999 C55.940,0.895 56.835,-0.002 57.940,-0.002 L61.940,-0.002 C63.044,-0.002 63.940,0.895 63.940,1.999 L63.940,25.999 L111.966,25.999 L111.966,26.003 C112.331,26.004 112.683,26.205 112.857,26.554 L119.858,43.554 C119.993,43.824 120.004,44.152 119.858,44.444 ZM55.940,7.999 L8.580,7.999 L2.086,23.999 L8.580,39.999 L55.940,39.999 L55.940,7.999 ZM16.580,47.999 L10.086,63.999 L16.580,79.999 L55.940,79.999 L55.940,47.999 L16.580,47.999 ZM61.940,60.999 L61.940,26.999 L61.940,1.999 L57.940,1.999 L57.940,6.999 L57.940,40.999 L57.940,46.999 L57.940,80.999 L57.940,107.999 L61.940,107.999 L61.940,60.999 ZM111.352,27.999 L63.941,27.999 L63.941,59.998 L111.352,59.998 L117.853,43.999 L111.352,27.999 Z" class="flag"/><path d="M32.647,61.293 L34.940,63.586 L37.233,61.293 L38.647,62.707 L35.940,65.414 L35.940,67.999 L36.940,67.999 L36.940,67.657 C39.270,66.833 40.940,64.612 40.940,61.999 C40.940,58.685 38.254,55.999 34.940,55.999 C31.626,55.999 28.940,58.685 28.940,61.999 C28.940,64.612 30.609,66.834 32.940,67.657 L32.940,67.999 L33.940,67.999 L33.940,65.414 L31.233,62.707 L32.647,61.293 L32.647,61.293 ZM36.940,69.999 L32.940,69.999 L32.940,71.999 L36.940,71.999 L36.940,69.999 L36.940,69.999 ZM32.940,73.999 C31.840,73.999 30.940,73.099 30.940,71.999 L30.940,68.929 C28.549,67.546 26.940,64.960 26.940,61.999 C26.940,57.581 30.521,53.999 34.940,53.999 C39.358,53.999 42.940,57.581 42.940,61.999 C42.940,64.960 41.331,67.546 38.940,68.929 L38.940,71.999 C38.940,73.099 38.040,73.999 36.940,73.999 L32.940,73.999 Z" class="flag"/><path d="M30.940,33.999 C25.417,33.999 20.940,29.522 20.940,24.000 C20.940,18.477 25.417,14.000 30.940,14.000 C36.463,14.000 40.940,18.477 40.940,24.000 C40.940,29.522 36.463,33.999 30.940,33.999 ZM30.940,16.000 C26.522,16.000 22.940,19.581 22.940,24.000 C22.940,28.418 26.522,32.000 30.940,32.000 C35.358,32.000 38.940,28.418 38.940,24.000 C38.940,19.581 35.358,16.000 30.940,16.000 Z" class="flag"/><path d="M31.940,24.999 L31.940,25.000 L29.940,25.000 L29.940,26.000 L33.940,26.000 L33.940,27.000 L29.940,27.000 L29.940,29.000 L27.940,29.000 L27.940,27.000 L26.940,27.000 L26.940,26.000 L27.940,26.000 L27.940,25.000 L26.940,25.000 L26.940,23.000 L27.940,23.000 L27.940,19.000 L28.940,19.000 L29.940,19.000 L31.940,19.000 L31.940,19.000 C33.597,19.000 34.940,20.343 34.940,22.000 C34.940,23.657 33.597,24.999 31.940,24.999 ZM31.940,21.000 L29.940,21.000 L29.940,23.000 L31.940,23.000 L31.940,23.000 C32.492,23.000 32.940,22.552 32.940,22.000 C32.940,21.447 32.492,21.000 31.940,21.000 Z" class="flag"/><path d="M97.940,45.000 L97.940,47.993 C97.940,48.444 97.811,48.831 97.540,49.192 L94.540,53.186 C94.150,53.705 93.590,53.985 92.940,53.985 L81.940,53.985 C80.838,53.985 79.940,53.088 79.940,51.988 L79.940,43.000 C79.940,41.900 80.838,41.003 81.940,41.003 L82.904,41.003 L86.396,35.424 C87.270,34.029 89.124,33.597 90.524,34.467 C91.719,35.210 92.251,36.732 91.753,38.046 L90.709,41.003 L93.940,41.000 C96.149,41.000 97.940,42.791 97.940,45.000 L97.940,45.000 ZM95.940,45.000 L95.940,45.000 C95.940,43.895 95.044,43.000 93.940,43.000 L87.883,43.000 L89.877,37.354 C90.050,36.922 89.857,36.404 89.467,36.162 C88.999,35.872 88.383,36.015 88.092,36.483 L84.013,43.000 L81.940,43.000 L81.940,51.988 L92.940,51.988 L95.940,47.993 L95.940,45.000 Z" class="flag"/></g></svg>