<svg xmlns="http://www.w3.org/2000/svg" xmlns:xlink="http://www.w3.org/1999/xlink" preserveAspectRatio="xMidYMid" width="18" height="20" viewBox="0 0 18 20">
  <path d="M9.000,17.544 C11.713,15.505 16.000,11.626 16.000,9.000 C16.000,5.133 12.867,2.000 9.000,2.000 C5.133,2.000 2.000,5.133 2.000,9.000 C2.000,11.626 6.287,15.505 9.000,17.544 L9.000,17.544 ZM9.000,6.000 C10.656,6.000 12.000,7.343 12.000,9.000 C12.000,10.657 10.656,12.000 9.000,12.000 C7.343,12.000 6.000,10.657 6.000,9.000 C6.000,7.343 7.343,6.000 9.000,6.000 L9.000,6.000 ZM9.000,8.000 C9.552,8.000 10.000,8.448 10.000,9.000 C10.000,9.552 9.552,10.000 9.000,10.000 C8.448,10.000 8.000,9.552 8.000,9.000 C8.000,8.448 8.448,8.000 9.000,8.000 L9.000,8.000 ZM9.000,-0.000 C13.970,-0.000 18.000,4.029 18.000,9.000 C18.000,13.971 9.000,20.000 9.000,20.000 C9.000,20.000 -0.000,13.971 -0.000,9.000 C-0.000,4.029 4.029,-0.000 9.000,-0.000 Z" class="cls-1"/>
</svg>
