<svg xmlns="http://www.w3.org/2000/svg" xmlns:xlink="http://www.w3.org/1999/xlink" width="19" height="18" preserveAspectRatio="xMidYMid" viewBox="0 0 19 18"><path d="M-0.000,11.001 L5.154,11.001 L5.821,7.000 L1.000,7.000 L1.000,5.000 L6.154,5.000 L6.991,-0.000 L9.015,-0.000 L8.178,5.000 L12.155,5.000 L12.992,-0.000 L15.016,-0.000 L14.179,5.000 L19.000,5.000 L19.000,7.000 L13.845,7.000 L13.179,11.001 L18.000,11.001 L18.000,13.001 L12.845,13.001 L12.038,18.000 L10.016,18.000 L10.822,13.001 L6.844,13.001 L6.037,18.000 L4.015,18.000 L4.821,13.001 L-0.000,13.001 L-0.000,11.001 L-0.000,11.001 ZM7.178,11.001 L11.155,11.001 L11.822,7.000 L7.844,7.000 L7.178,11.001 Z" class="hashtag"/></svg>