<svg xmlns="http://www.w3.org/2000/svg" xmlns:xlink="http://www.w3.org/1999/xlink" width="120" height="110" preserveAspectRatio="xMidYMid" viewBox="0 0 120 110"><path d="M116.000,109.999 L4.000,109.999 C1.791,109.999 -0.000,108.207 -0.000,105.998 L-0.000,101.998 C-0.000,100.893 0.895,99.998 2.000,99.998 L10.000,99.998 L10.000,33.998 C10.000,31.789 11.791,29.998 14.000,29.998 L93.000,29.998 L93.000,17.618 L86.000,19.410 L86.000,29.997 L86.000,29.998 L84.000,29.998 L84.000,29.997 C84.000,28.340 73.255,26.998 60.000,26.998 C46.745,26.998 36.000,28.340 36.000,29.997 L36.000,29.998 L34.000,29.998 L34.000,29.997 L34.000,19.410 L16.504,14.933 C15.607,14.703 15.000,13.921 15.000,12.995 C15.000,12.069 15.607,11.287 16.504,11.057 L59.504,0.055 C59.845,-0.032 60.155,-0.032 60.496,0.055 L103.496,11.057 C104.393,11.287 105.000,12.069 105.000,12.995 C105.000,13.921 104.393,14.703 103.496,14.933 L95.000,17.106 L95.000,29.998 L106.000,29.998 C108.209,29.998 110.000,31.789 110.000,33.998 L110.000,99.998 L118.000,99.998 C119.104,99.998 120.000,100.893 120.000,101.998 L120.000,105.998 C120.000,108.207 118.209,109.999 116.000,109.999 ZM36.000,12.996 L36.000,28.071 C39.922,26.266 49.190,24.998 60.000,24.998 C70.810,24.998 80.078,26.266 84.000,28.071 L84.000,12.996 L84.000,12.995 C84.000,11.339 73.255,9.996 60.000,9.996 C46.745,9.996 36.000,11.339 36.000,12.995 L36.000,12.996 ZM103.000,12.995 L60.000,1.992 L17.000,12.995 L34.000,17.345 L34.000,12.996 L34.000,12.995 C34.000,10.234 45.641,7.996 60.000,7.996 C74.359,7.996 86.000,10.234 86.000,12.995 L86.000,12.996 L86.000,17.345 L103.000,12.995 ZM108.000,33.998 C108.000,32.894 107.104,31.998 106.000,31.998 L95.000,31.998 L95.000,35.999 L102.000,35.999 C103.104,35.999 104.000,36.894 104.000,37.998 L104.000,43.998 L104.000,45.998 L104.000,93.999 C104.000,95.103 103.104,95.998 102.000,95.998 L18.000,95.998 C16.895,95.998 16.000,95.103 16.000,93.999 L16.000,45.998 L16.000,43.998 L16.000,37.998 C16.000,36.894 16.895,35.999 18.000,35.999 L93.000,35.999 L93.000,31.998 L14.000,31.998 C12.895,31.998 12.000,32.894 12.000,33.998 L12.000,99.998 L50.000,99.998 C51.104,99.998 52.000,100.893 52.000,101.998 L68.000,101.998 C68.000,100.893 68.895,99.998 70.000,99.998 L108.000,99.998 L108.000,33.998 ZM98.000,45.998 L98.000,50.000 C98.000,51.104 97.104,52.000 96.000,52.000 L91.999,52.000 C90.895,52.000 90.000,51.104 90.000,50.000 L90.000,45.998 L18.000,45.998 L18.000,93.999 L102.000,93.999 L102.000,45.998 L98.000,45.998 ZM96.000,50.000 L96.000,43.999 C96.000,42.894 95.104,41.999 94.000,41.999 C92.895,41.999 92.000,42.894 92.000,43.999 L92.000,50.000 L96.000,50.000 ZM90.000,43.998 C90.001,42.135 91.275,40.569 93.000,40.124 L93.000,37.998 L18.000,37.998 L18.000,43.998 L90.000,43.998 ZM95.000,40.124 C96.725,40.569 97.999,42.135 98.000,43.998 L102.000,43.998 L102.000,37.998 L95.000,37.998 L95.000,40.124 ZM118.000,101.998 L110.000,101.998 L108.000,101.998 L70.000,101.998 C70.000,103.103 69.104,103.999 68.000,103.999 L52.000,103.999 C50.895,103.999 50.000,103.103 50.000,101.998 L12.000,101.998 L10.000,101.998 L2.000,101.998 L2.000,105.998 C2.000,107.103 2.895,107.999 4.000,107.999 L116.000,107.999 C117.104,107.999 118.000,107.103 118.000,105.998 L118.000,101.998 ZM21.000,39.998 C21.552,39.998 22.000,40.446 22.000,40.998 C22.000,41.551 21.552,41.998 21.000,41.998 C20.447,41.998 20.000,41.551 20.000,40.998 C20.000,40.446 20.447,39.998 21.000,39.998 ZM25.000,39.998 C25.552,39.998 26.000,40.446 26.000,40.998 C26.000,41.551 25.552,41.998 25.000,41.998 C24.447,41.998 24.000,41.551 24.000,40.998 C24.000,40.446 24.447,39.998 25.000,39.998 ZM29.000,39.998 C29.552,39.998 30.000,40.446 30.000,40.998 C30.000,41.551 29.552,41.998 29.000,41.998 C28.447,41.998 28.000,41.551 28.000,40.998 C28.000,40.446 28.447,39.998 29.000,39.998 ZM67.992,71.733 L53.992,79.729 C53.356,80.093 52.630,80.090 51.996,79.722 C51.362,79.355 51.000,78.726 51.000,77.994 L51.000,62.001 C51.000,61.268 51.362,60.640 51.996,60.272 C52.630,59.904 53.356,59.902 53.992,60.266 L67.992,68.262 C68.633,68.627 69.000,69.260 69.000,69.997 C69.000,70.735 68.633,71.367 67.992,71.733 ZM53.000,62.001 L53.000,77.994 L67.000,69.997 L53.000,62.001 Z" class="institute"/></svg>