<svg xmlns="http://www.w3.org/2000/svg" xmlns:xlink="http://www.w3.org/1999/xlink" preserveAspectRatio="xMidYMid" width="18" height="20" viewBox="0 0 18 20">
  <path d="M18.000,10.969 L18.000,13.963 C18.000,14.413 17.871,14.800 17.600,15.161 L14.600,19.155 C14.210,19.675 13.650,19.954 13.000,19.954 L2.000,19.954 C0.898,19.954 0.000,19.057 0.000,17.957 L0.000,8.970 C0.000,7.870 0.898,6.973 2.000,6.973 L2.965,6.973 L6.456,1.394 C7.330,-0.002 9.184,-0.433 10.584,0.436 C11.779,1.179 12.311,2.701 11.813,4.016 L10.769,6.973 L14.000,6.969 C16.209,6.969 18.000,8.760 18.000,10.969 L18.000,10.969 ZM16.000,10.969 L16.000,10.969 C16.000,9.864 15.105,8.969 14.000,8.969 L7.943,8.970 L9.937,3.324 C10.110,2.891 9.917,2.374 9.527,2.132 C9.059,1.841 8.443,1.985 8.152,2.452 L4.073,8.970 L2.000,8.970 L2.000,17.957 L13.000,17.957 L16.000,13.963 L16.000,10.969 Z" class="like"/>
</svg>
