<svg xmlns="http://www.w3.org/2000/svg" xmlns:xlink="http://www.w3.org/1999/xlink" preserveAspectRatio="xMidYMid" width="150" height="15" viewBox="0 0 150 15">
  <defs>
    <style>
      .cls-1 {
        fill: #000;
      }

      .cls-1, .cls-2 {
        fill-rule: evenodd;
      }

      .cls-2 {
        fill: #21aa00;
      }
    </style>
  </defs>
  <g>
    <path d="M54.500,15.000 L56.500,15.000 L56.500,4.947 L59.467,13.000 L60.533,13.000 L61.599,13.000 L64.500,5.126 L64.500,15.000 L66.500,15.000 L66.500,-0.000 C65.752,-0.000 65.005,-0.000 64.257,-0.000 L60.533,10.107 L56.809,-0.000 C56.039,-0.000 55.269,-0.000 54.500,-0.000 L54.500,15.000 L54.500,15.000 ZM130.748,-0.000 L136.500,11.133 L136.500,-0.000 L138.500,-0.000 L138.500,15.000 C137.751,15.000 137.002,15.000 136.252,15.000 L130.500,3.866 L130.500,15.000 L128.500,15.000 L128.500,-0.000 C129.249,-0.000 129.998,-0.000 130.748,-0.000 L130.748,-0.000 ZM148.000,5.000 C148.000,4.171 147.664,3.421 147.121,2.878 C146.579,2.336 145.829,2.000 145.000,2.000 C144.171,2.000 143.421,2.336 142.879,2.878 C142.336,3.421 142.000,4.171 142.000,5.000 L142.000,10.000 C142.000,10.828 142.336,11.578 142.879,12.121 C143.424,12.666 144.174,13.003 145.000,13.003 L145.582,13.004 L148.004,10.582 L148.004,8.500 L145.500,8.500 L145.500,6.500 L149.996,6.500 L149.996,11.418 L146.418,14.996 L145.000,14.996 C143.617,14.996 142.367,14.437 141.465,13.535 C140.560,12.630 140.000,11.380 140.000,10.000 L140.000,5.000 C140.000,3.619 140.560,2.369 141.465,1.465 C142.370,0.560 143.620,-0.000 145.000,-0.000 C146.380,-0.000 147.630,0.560 148.535,1.465 C149.440,2.369 150.000,3.619 150.000,5.000 L148.000,5.000 L148.000,5.000 ZM125.000,-0.000 L127.000,-0.000 L127.000,15.000 L125.000,15.000 L125.000,-0.000 L125.000,-0.000 ZM113.500,-0.000 L123.500,-0.000 L123.500,2.000 L119.500,2.000 L119.500,14.999 L117.500,14.999 L117.500,2.000 L113.500,2.000 L113.500,-0.000 L113.500,-0.000 ZM103.500,15.000 C106.333,15.000 109.167,15.000 112.000,15.000 L112.000,13.000 L105.500,13.000 L105.500,8.500 L111.000,8.500 L111.000,6.500 L105.500,6.500 L105.500,2.000 L112.000,2.000 L112.000,-0.000 C109.167,-0.000 106.333,-0.000 103.500,-0.000 L103.500,15.000 L103.500,15.000 ZM92.000,15.000 L94.000,15.000 L94.000,8.500 L97.471,8.494 L99.868,15.000 L102.000,15.000 L101.256,12.979 L99.237,7.500 L101.256,2.021 L102.000,0.000 L99.868,0.000 L97.471,6.506 L94.000,6.500 L94.000,0.000 L92.000,0.000 C92.000,5.000 92.000,10.000 92.000,15.000 L92.000,15.000 ZM90.000,4.250 C90.000,1.903 88.097,-0.000 85.750,-0.000 C84.000,-0.000 82.250,-0.000 80.500,-0.000 C80.500,5.000 80.500,10.000 80.500,15.000 L82.500,15.000 L82.500,8.500 L85.750,8.500 C85.824,8.500 85.898,8.498 85.971,8.494 L88.368,15.000 L90.500,15.000 L87.892,7.921 C89.153,7.184 90.000,5.816 90.000,4.250 L90.000,4.250 ZM82.500,2.000 L85.750,2.000 C86.993,2.000 88.000,3.007 88.000,4.250 C88.000,5.492 86.993,6.500 85.750,6.500 L82.500,6.500 L82.500,2.000 L82.500,2.000 ZM70.890,11.000 L76.110,11.000 L77.368,15.000 L79.500,15.000 L74.781,-0.000 C73.927,-0.000 73.073,-0.000 72.219,-0.000 L67.500,15.000 L69.632,15.000 L70.890,11.000 L70.890,11.000 ZM75.481,9.000 L71.519,9.000 L73.500,2.704 L75.481,9.000 Z" class="cls-1"/>
    <path d="M8.000,5.000 C8.000,4.172 7.664,3.421 7.121,2.879 C6.576,2.334 5.825,1.996 5.000,1.996 L4.418,1.996 L2.000,4.414 L2.000,10.000 C2.000,10.828 2.336,11.579 2.879,12.121 C3.421,12.664 4.171,13.000 5.000,13.000 C5.828,13.000 6.579,12.664 7.121,12.121 C7.664,11.579 8.000,10.828 8.000,10.000 L10.000,10.000 C10.000,11.380 9.440,12.630 8.535,13.535 C7.630,14.440 6.380,15.000 5.000,15.000 C3.619,15.000 2.369,14.440 1.465,13.535 C0.560,12.630 -0.000,11.380 -0.000,10.000 L-0.000,3.586 L3.582,0.004 L5.000,0.004 C6.382,0.004 7.633,0.562 8.535,1.465 C9.440,2.370 10.000,3.620 10.000,5.000 L8.000,5.000 L8.000,5.000 ZM52.500,4.250 C52.500,1.903 50.597,-0.000 48.250,-0.000 C46.500,-0.000 44.750,-0.000 43.000,-0.000 C43.000,5.000 43.000,10.000 43.000,15.000 L45.000,15.000 L45.000,8.500 L48.250,8.500 C48.324,8.500 48.398,8.498 48.471,8.494 L50.868,15.000 L53.000,15.000 L50.392,7.921 C51.653,7.184 52.500,5.816 52.500,4.250 L52.500,4.250 ZM45.000,2.000 L48.250,2.000 C49.493,2.000 50.500,3.007 50.500,4.250 C50.500,5.492 49.493,6.500 48.250,6.500 L45.000,6.500 L45.000,2.000 L45.000,2.000 ZM33.000,15.000 L34.000,15.000 L35.000,15.000 L41.500,15.000 L41.500,13.000 L35.000,13.000 L35.000,8.500 L40.500,8.500 L40.500,6.500 L35.000,6.500 L35.000,2.000 L41.500,2.000 L41.500,-0.000 C38.666,-0.000 35.833,-0.000 33.000,-0.000 L33.000,15.000 L33.000,15.000 ZM22.000,15.000 C23.750,15.000 25.500,15.000 27.250,15.000 C29.597,15.000 31.500,13.097 31.500,10.750 C31.500,9.323 30.797,8.061 29.719,7.290 C30.509,6.519 31.000,5.442 31.000,4.250 C31.000,1.903 29.097,-0.000 26.750,-0.000 C25.167,0.000 23.583,0.000 22.000,0.000 L22.000,15.000 L22.000,15.000 ZM24.000,6.500 L24.000,2.000 L26.750,2.000 C27.993,2.000 29.000,3.007 29.000,4.250 C29.000,5.492 27.993,6.500 26.750,6.500 L24.000,6.500 L24.000,6.500 ZM24.000,13.000 L24.000,8.500 L26.750,8.500 L27.250,8.500 C28.492,8.500 29.500,9.507 29.500,10.750 C29.500,11.992 28.492,13.000 27.250,13.000 L24.000,13.000 L24.000,13.000 ZM14.500,9.499 L14.500,15.000 L16.500,15.000 L16.500,9.499 L21.000,-0.000 L18.787,-0.000 L15.500,6.939 L12.213,-0.000 L10.000,-0.000 L14.500,9.499 Z" class="cls-2"/>
  </g>
</svg>
