<svg xmlns="http://www.w3.org/2000/svg" xmlns:xlink="http://www.w3.org/1999/xlink" preserveAspectRatio="xMidYMid" width="20" height="20" viewBox="0 0 20 20">
  <path d="M9.007,0.007 C13.979,0.007 18.009,4.031 18.009,8.995 C18.009,11.118 17.272,13.069 16.040,14.606 L19.717,18.277 C20.107,18.667 20.107,19.299 19.717,19.689 C19.327,20.078 18.693,20.078 18.302,19.689 L14.626,16.018 C13.085,17.248 11.133,17.984 9.007,17.984 C4.035,17.984 0.004,13.960 0.004,8.995 C0.004,4.031 4.035,0.007 9.007,0.007 L9.007,0.007 ZM9.007,2.004 C5.140,2.004 2.005,5.135 2.005,8.995 C2.005,12.857 5.140,15.986 9.007,15.986 C12.874,15.986 16.008,12.857 16.008,8.995 C16.008,5.135 12.874,2.004 9.007,2.004 Z" class="loupe"/>
</svg>
