<svg xmlns="http://www.w3.org/2000/svg" xmlns:xlink="http://www.w3.org/1999/xlink" preserveAspectRatio="xMidYMid" width="60" height="50" viewBox="0 0 60 50">
  <path d="M58.000,48.000 L33.445,48.000 C32.752,49.190 31.477,50.000 30.000,50.000 C28.523,50.000 27.248,49.190 26.555,48.000 L2.000,48.000 C0.895,48.000 -0.000,47.104 -0.000,46.000 L-0.000,6.000 C-0.000,4.895 0.895,4.000 2.000,4.000 L4.000,4.000 L4.000,2.000 C4.000,0.895 4.895,-0.000 6.000,-0.000 L27.000,-0.000 C28.201,-0.000 29.267,0.541 30.000,1.379 C30.733,0.541 31.798,-0.000 33.000,-0.000 L54.000,-0.000 C55.104,-0.000 56.000,0.895 56.000,2.000 L56.000,4.000 L58.000,4.000 C59.104,4.000 60.000,4.895 60.000,6.000 L60.000,46.000 C60.000,47.104 59.104,48.000 58.000,48.000 ZM27.000,2.000 L6.000,2.000 L6.000,42.000 L27.000,42.000 C27.737,42.000 28.411,42.221 29.000,42.572 L29.000,4.000 C29.000,2.895 28.104,2.000 27.000,2.000 ZM54.000,2.000 L33.000,2.000 C31.895,2.000 31.000,2.895 31.000,4.000 L31.000,42.572 C31.589,42.221 32.263,42.000 33.000,42.000 L54.000,42.000 L54.000,2.000 ZM58.000,6.000 L56.000,6.000 L56.000,42.000 C56.000,43.104 55.104,44.000 54.000,44.000 L33.000,44.000 C31.895,44.000 31.000,44.895 31.000,46.000 L29.000,46.000 C29.000,44.895 28.104,44.000 27.000,44.000 L6.000,44.000 C4.895,44.000 4.000,43.104 4.000,42.000 L4.000,6.000 L2.000,6.000 L2.000,46.000 L26.000,46.000 L27.000,46.000 L28.000,46.000 C28.000,47.104 28.895,48.000 30.000,48.000 C31.104,48.000 32.000,47.104 32.000,46.000 L33.000,46.000 L34.000,46.000 L58.000,46.000 L58.000,6.000 Z" class="manual"/>
</svg>
