<svg xmlns="http://www.w3.org/2000/svg" xmlns:xlink="http://www.w3.org/1999/xlink" width="16" height="20" preserveAspectRatio="xMidYMid" viewBox="0 0 16 20"><path fill-rule="evenodd" d="M14.000,8.000 C14.000,11.313 11.314,14.000 8.000,14.000 C4.686,14.000 2.000,11.313 2.000,8.000 L-0.000,8.000 C-0.000,12.080 3.054,15.446 7.000,15.938 L7.000,18.000 L3.000,18.000 L3.000,20.000 L7.000,20.000 L9.000,20.000 L13.000,20.000 L13.000,18.000 L9.000,18.000 L9.000,15.938 C12.946,15.446 16.000,12.079 16.000,8.000 L14.000,8.000 L14.000,8.000 ZM12.000,8.000 C12.000,10.209 10.209,12.000 8.000,12.000 C5.791,12.000 4.000,10.209 4.000,8.000 L4.000,4.000 C4.000,1.791 5.791,-0.000 8.000,-0.000 C10.209,-0.000 12.000,1.791 12.000,4.000 L12.000,8.000 L12.000,8.000 ZM6.000,8.000 L6.000,4.000 C6.000,2.895 6.895,2.000 8.000,2.000 C9.104,2.000 10.000,2.895 10.000,4.000 L10.000,8.000 C10.000,9.104 9.104,10.000 8.000,10.000 C6.895,10.000 6.000,9.104 6.000,8.000 Z" class="cls-1"/></svg>