<svg xmlns="http://www.w3.org/2000/svg" xmlns:xlink="http://www.w3.org/1999/xlink" width="40" height="40" preserveAspectRatio="xMidYMid" viewBox="0 0 40 40"><path d="M20.000,39.999 C8.954,39.999 -0.000,31.045 -0.000,19.999 C-0.000,8.954 8.954,-0.001 20.000,-0.001 C31.046,-0.001 40.000,8.954 40.000,19.999 C40.000,31.045 31.046,39.999 20.000,39.999 ZM20.000,2.000 C10.059,2.000 2.000,10.058 2.000,19.999 C2.000,29.941 10.059,38.000 20.000,38.000 C29.941,38.000 38.000,29.941 38.000,19.999 C38.000,10.058 29.941,2.000 20.000,2.000 ZM18.417,26.999 L17.005,25.586 L22.586,19.999 L17.005,14.413 L18.417,13.000 L24.703,19.293 C25.093,19.683 25.093,20.316 24.703,20.707 L18.417,26.999 Z" class="nav-right"/></svg>