<svg xmlns="http://www.w3.org/2000/svg" xmlns:xlink="http://www.w3.org/1999/xlink" width="16" height="20" preserveAspectRatio="xMidYMid" viewBox="0 0 16 20"><path d="M14.944,19.739 C14.276,20.096 13.520,20.059 12.891,19.640 L8.000,16.382 L3.109,19.640 C2.479,20.059 1.723,20.096 1.056,19.739 C0.389,19.382 -0.000,18.734 -0.000,17.977 L-0.000,1.989 C-0.000,0.889 0.898,-0.009 2.000,-0.009 L14.000,-0.009 C15.102,-0.009 16.000,0.889 16.000,1.989 L16.000,17.977 C16.000,18.734 15.611,19.382 14.944,19.739 ZM14.000,15.962 L14.000,15.962 L14.000,13.480 L14.000,13.480 L14.000,10.966 L14.000,10.966 L14.000,8.484 L14.000,8.484 L14.000,1.989 L2.000,1.989 L2.000,8.484 L2.000,8.484 L2.000,10.966 L2.000,10.966 L2.000,13.480 L2.000,13.480 L2.000,15.962 L2.000,15.962 L2.000,17.977 L8.000,13.980 L14.000,17.977 L14.000,15.962 ZM5.724,12.002 C5.506,11.975 5.351,11.775 5.378,11.556 L5.687,9.164 L4.101,7.421 C4.052,7.368 4.018,7.301 4.004,7.225 C3.963,7.009 4.106,6.800 4.323,6.759 L6.565,6.332 L7.648,4.217 C7.716,4.084 7.854,4.000 8.004,4.000 C8.153,4.000 8.291,4.084 8.359,4.217 L9.442,6.332 L11.685,6.759 C11.902,6.800 12.045,7.009 12.004,7.225 C11.990,7.301 11.955,7.368 11.907,7.421 L10.321,9.164 L10.629,11.556 C10.657,11.775 10.502,11.975 10.283,12.002 C10.201,12.013 10.122,11.997 10.053,11.963 L8.004,10.926 L5.954,11.963 C5.886,11.997 5.806,12.013 5.724,12.002 Z" class="officer"/></svg>