<svg xmlns="http://www.w3.org/2000/svg" xmlns:xlink="http://www.w3.org/1999/xlink" width="120" height="100" preserveAspectRatio="xMidYMid" viewBox="0 0 120 100"><path d="M116.000,99.999 L4.000,99.999 C1.791,99.999 -0.000,98.208 -0.000,95.999 L-0.000,91.998 C-0.000,90.894 0.895,89.998 2.000,89.998 L10.000,89.998 L10.000,23.999 C10.000,21.790 11.791,19.999 14.000,19.999 L36.003,19.999 L36.003,1.999 C36.003,0.898 36.902,-0.001 38.002,-0.001 L70.001,-0.001 L83.997,13.996 L83.997,19.999 L106.000,19.999 C108.209,19.999 110.000,21.790 110.000,23.999 L110.000,89.998 L118.000,89.998 C119.104,89.998 120.000,90.894 120.000,91.998 L120.000,95.999 C120.000,98.208 118.209,99.999 116.000,99.999 ZM36.003,27.998 L18.000,27.998 L18.000,33.998 L36.003,33.998 L36.003,27.998 ZM36.003,35.999 L18.000,35.999 L18.000,83.998 L102.000,83.998 L102.000,35.999 L83.997,35.999 L83.997,42.501 L89.200,46.402 C89.720,46.792 90.000,47.351 90.000,48.002 L90.000,77.999 C90.000,78.360 89.903,78.700 89.734,78.993 L89.738,79.000 L89.730,79.000 C89.384,79.596 88.738,79.999 88.000,79.999 L31.999,79.999 C31.262,79.999 30.616,79.596 30.269,79.000 L30.262,79.000 L30.265,78.993 C30.096,78.700 30.000,78.360 30.000,77.999 L30.000,48.002 C30.000,47.351 30.279,46.792 30.800,46.402 L36.003,42.501 L36.003,35.999 ZM102.000,33.998 L102.000,27.998 L83.997,27.998 L83.997,33.998 L102.000,33.998 ZM83.997,45.000 L83.997,50.007 L86.663,48.008 L88.000,48.008 L88.000,48.002 L83.997,45.000 ZM85.328,77.999 L60.000,59.007 L34.672,77.999 L85.328,77.999 ZM36.003,45.000 L31.999,48.002 L31.999,48.008 L33.337,48.008 L36.003,50.007 L36.003,45.000 ZM31.999,49.504 L31.999,77.503 L50.670,63.504 L31.999,49.504 ZM70.005,2.830 L70.005,14.000 L81.173,14.000 L70.005,2.830 ZM81.998,15.999 L70.005,15.999 C68.907,15.999 68.005,15.100 68.005,14.000 L68.005,1.999 L38.002,1.999 L38.002,51.506 L52.336,62.254 L58.800,57.407 C59.522,56.866 60.477,56.866 61.200,57.407 L67.664,62.254 L81.998,51.506 L81.998,15.999 ZM69.330,63.503 L88.000,77.503 L88.000,49.504 L69.330,63.503 ZM108.000,23.999 C108.000,22.894 107.104,21.999 106.000,21.999 L83.997,21.999 L83.997,25.998 L102.000,25.998 C103.104,25.998 104.000,26.894 104.000,27.998 L104.000,33.998 L104.000,35.999 L104.000,83.998 C104.000,85.103 103.104,85.998 102.000,85.998 L18.000,85.998 C16.895,85.998 16.000,85.103 16.000,83.998 L16.000,35.999 L16.000,33.998 L16.000,27.998 C16.000,26.894 16.895,25.998 18.000,25.998 L36.003,25.998 L36.003,21.999 L14.000,21.999 C12.895,21.999 12.000,22.894 12.000,23.999 L12.000,89.998 L50.000,89.998 C51.104,89.998 52.000,90.894 52.000,91.998 L68.000,91.998 C68.000,90.894 68.895,89.998 70.000,89.998 L108.000,89.998 L108.000,23.999 ZM118.000,91.998 L110.000,91.998 L108.000,91.998 L70.000,91.998 C70.000,93.103 69.104,93.999 68.000,93.999 L52.000,93.999 C50.895,93.999 50.000,93.103 50.000,91.998 L12.000,91.998 L10.000,91.998 L2.000,91.998 L2.000,95.999 C2.000,97.103 2.895,97.998 4.000,97.998 L116.000,97.998 C117.104,97.998 118.000,97.103 118.000,95.999 L118.000,91.998 ZM60.644,50.761 C60.262,51.085 59.706,51.071 59.341,50.749 L55.572,47.544 L50.769,47.749 C50.285,47.768 49.868,47.438 49.760,46.983 L48.448,41.961 L44.420,39.062 C44.055,38.799 43.921,38.337 44.058,37.933 L45.746,32.999 L44.056,28.066 C43.905,27.620 44.088,27.141 44.470,26.901 L48.448,24.037 L49.765,18.996 C49.887,18.527 50.323,18.223 50.789,18.250 L55.572,18.454 L59.355,15.238 C59.737,14.914 60.293,14.928 60.658,15.249 L64.427,18.454 L69.230,18.250 C69.715,18.231 70.132,18.561 70.239,19.015 L71.551,24.037 L75.580,26.937 C75.944,27.199 76.079,27.661 75.942,28.065 L74.254,32.999 L75.943,37.932 C76.095,38.378 75.912,38.857 75.530,39.098 L71.551,41.961 L70.234,47.003 C70.113,47.472 69.677,47.776 69.211,47.748 L64.427,47.544 L60.644,50.761 ZM69.713,41.113 C69.769,40.895 69.899,40.696 70.096,40.554 L73.815,37.877 L72.254,33.319 C72.186,33.119 72.180,32.895 72.254,32.679 L73.815,28.121 L70.111,25.456 C69.921,25.325 69.775,25.128 69.713,24.886 L68.508,20.276 L64.157,20.462 C63.904,20.482 63.643,20.406 63.434,20.229 L59.999,17.309 L56.566,20.229 C56.382,20.384 56.142,20.474 55.882,20.463 L51.491,20.276 L50.287,24.886 C50.230,25.104 50.100,25.303 49.904,25.445 L46.185,28.121 L47.746,32.679 C47.814,32.880 47.819,33.104 47.746,33.319 L46.185,37.877 L49.889,40.542 C50.079,40.674 50.225,40.871 50.287,41.113 L51.491,45.722 L55.843,45.537 C56.096,45.516 56.357,45.592 56.566,45.769 L59.999,48.689 L63.434,45.769 C63.618,45.615 63.858,45.525 64.117,45.535 L68.508,45.722 L69.713,41.113 ZM62.000,36.000 C62.000,33.790 63.791,31.999 65.999,31.999 C68.208,31.999 69.999,33.790 69.999,36.000 C69.999,38.208 68.208,40.000 65.999,40.000 C63.791,40.000 62.000,38.208 62.000,36.000 ZM65.999,38.000 C67.103,38.000 67.999,37.104 67.999,36.000 C67.999,34.894 67.103,34.000 65.999,34.000 C64.895,34.000 63.999,34.894 63.999,36.000 C63.999,37.104 64.895,38.000 65.999,38.000 ZM55.766,39.636 C55.415,40.058 54.787,40.116 54.364,39.765 C53.941,39.413 53.884,38.785 54.235,38.363 L64.234,26.362 C64.585,25.940 65.213,25.882 65.636,26.233 C66.058,26.585 66.116,27.213 65.765,27.636 L55.766,39.636 ZM54.001,33.999 C51.792,33.999 50.001,32.208 50.001,29.999 C50.001,27.790 51.792,25.999 54.001,25.999 C56.209,25.999 58.000,27.790 58.000,29.999 C58.000,32.208 56.209,33.999 54.001,33.999 ZM54.000,28.000 C52.896,28.000 52.001,28.895 52.001,30.000 C52.001,31.104 52.896,31.999 54.000,31.999 C55.105,31.999 56.000,31.104 56.000,30.000 C56.000,28.895 55.105,28.000 54.000,28.000 ZM21.000,29.998 C21.552,29.998 22.000,30.446 22.000,30.998 C22.000,31.551 21.552,31.999 21.000,31.999 C20.447,31.999 20.000,31.551 20.000,30.998 C20.000,30.446 20.447,29.998 21.000,29.998 ZM25.000,29.998 C25.552,29.998 26.000,30.446 26.000,30.998 C26.000,31.551 25.552,31.999 25.000,31.999 C24.447,31.999 24.000,31.551 24.000,30.998 C24.000,30.446 24.447,29.998 25.000,29.998 ZM29.000,30.000 C29.552,30.000 30.000,30.447 30.000,31.000 C30.000,31.552 29.552,32.000 29.000,32.000 C28.448,32.000 28.000,31.552 28.000,31.000 C28.000,30.447 28.448,30.000 29.000,30.000 Z" class="online-marketing"/></svg>