<svg xmlns="http://www.w3.org/2000/svg" xmlns:xlink="http://www.w3.org/1999/xlink" preserveAspectRatio="xMidYMid" width="120" height="100" viewBox="0 0 120 100">
  <path d="M116.000,99.999 L4.000,99.999 C1.791,99.999 -0.000,98.208 -0.000,95.999 L-0.000,91.999 C-0.000,90.894 0.895,89.999 2.000,89.999 L10.000,89.999 L10.000,23.999 C10.000,21.789 11.791,19.998 14.000,19.998 L34.717,19.998 C35.134,19.120 35.581,18.254 36.089,17.419 L34.214,15.007 C33.591,14.207 33.661,13.083 34.378,12.365 L40.366,6.378 C41.084,5.660 42.208,5.590 43.008,6.212 L45.423,8.088 C47.888,6.583 50.578,5.467 53.402,4.782 L53.781,1.751 C53.907,0.744 54.751,-0.001 55.765,-0.001 L64.234,-0.001 C65.248,-0.001 66.093,0.744 66.219,1.751 L66.599,4.783 C69.407,5.462 72.097,6.576 74.579,8.089 L76.991,6.212 C77.792,5.590 78.916,5.660 79.633,6.378 L85.621,12.365 C86.338,13.083 86.408,14.207 85.786,15.007 L83.910,17.422 C84.418,18.254 84.864,19.119 85.282,19.998 L106.000,19.998 C108.209,19.998 110.000,21.789 110.000,23.999 L110.000,89.999 L118.000,89.999 C119.104,89.999 120.000,90.894 120.000,91.999 L120.000,95.999 C120.000,98.208 118.209,99.999 116.000,99.999 ZM82.330,16.195 L84.207,13.780 L78.219,7.792 L75.807,9.667 C75.138,10.188 74.262,10.238 73.538,9.797 C71.243,8.398 68.742,7.359 66.129,6.728 C65.305,6.528 64.720,5.874 64.615,5.032 L64.234,1.999 L55.765,1.999 L55.387,5.028 C55.282,5.869 54.698,6.525 53.874,6.724 C51.262,7.359 48.759,8.394 46.465,9.795 C45.742,10.238 44.865,10.188 44.196,9.668 L41.781,7.792 L35.792,13.780 L37.668,16.192 C38.188,16.861 38.238,17.736 37.797,18.460 C36.398,20.756 35.359,23.256 34.728,25.869 C34.529,26.693 33.874,27.279 33.033,27.384 L30.000,27.765 L30.000,36.233 L33.030,36.612 C33.871,36.717 34.526,37.301 34.726,38.125 C35.360,40.737 36.395,43.239 37.796,45.533 C38.238,46.256 38.189,47.133 37.669,47.803 L35.792,50.218 L41.781,56.206 L44.193,54.330 C44.862,53.810 45.738,53.761 46.461,54.201 C48.756,55.600 51.257,56.638 53.870,57.270 C54.694,57.469 55.279,58.124 55.385,58.965 L55.765,61.999 L64.234,61.999 L64.613,58.968 C64.718,58.127 65.302,57.472 66.125,57.273 C68.738,56.638 71.240,55.604 73.534,54.202 C74.257,53.760 75.134,53.809 75.804,54.329 L78.219,56.206 L84.207,50.218 L82.331,47.806 C81.811,47.137 81.761,46.261 82.202,45.537 C83.601,43.242 84.639,40.741 85.271,38.129 C85.470,37.305 86.125,36.719 86.966,36.614 L90.000,36.233 L90.000,27.765 L86.969,27.386 C86.128,27.281 85.473,26.697 85.273,25.873 C84.639,23.261 83.604,20.758 82.203,18.465 C81.761,17.741 81.810,16.864 82.330,16.195 ZM28.000,30.999 C28.000,30.999 28.000,30.999 28.000,30.998 C28.000,30.998 28.000,30.998 28.000,30.998 L28.000,27.998 L18.000,27.998 L18.000,33.998 L28.000,33.998 L28.000,30.999 ZM28.000,36.233 L28.000,35.998 L18.000,35.998 L18.000,83.999 L30.332,83.999 L32.056,79.837 C32.444,78.899 33.456,78.404 34.434,78.673 L37.382,79.482 C39.083,77.147 41.142,75.087 43.489,73.373 L42.679,70.428 C42.410,69.450 42.905,68.438 43.842,68.050 L51.666,64.809 C52.603,64.421 53.668,64.787 54.170,65.668 L55.681,68.325 C57.110,68.100 58.554,67.989 60.000,67.989 C61.446,67.989 62.889,68.100 64.318,68.325 L65.830,65.668 C66.331,64.787 67.397,64.421 68.334,64.809 L76.158,68.050 C77.095,68.438 77.590,69.450 77.321,70.428 L76.511,73.373 C78.858,75.087 80.916,77.147 82.618,79.482 L85.566,78.673 C86.544,78.404 87.555,78.899 87.943,79.837 L89.668,83.999 L102.000,83.999 L102.000,35.998 L92.000,35.998 L92.000,36.233 C92.000,37.247 91.254,38.092 90.248,38.218 L87.215,38.599 C86.536,41.406 85.422,44.097 83.910,46.578 L85.786,48.991 C86.408,49.791 86.338,50.915 85.621,51.632 L79.633,57.620 C78.916,58.338 77.792,58.407 76.991,57.785 L74.576,55.909 C72.112,57.414 69.421,58.530 66.597,59.216 L66.219,62.247 C66.093,63.254 65.248,63.999 64.234,63.999 L55.765,63.999 C54.751,63.999 53.907,63.254 53.781,62.247 L53.400,59.214 C50.593,58.536 47.902,57.422 45.420,55.909 L43.008,57.785 C42.208,58.407 41.084,58.338 40.366,57.620 L34.378,51.632 C33.661,50.915 33.591,49.791 34.214,48.991 L36.090,46.576 C34.584,44.111 33.468,41.420 32.782,38.596 L29.752,38.218 C28.745,38.092 28.000,37.247 28.000,36.233 ZM60.000,83.991 C60.144,83.991 60.287,83.994 60.431,83.999 L87.503,83.999 L86.096,80.601 L83.146,81.410 C82.329,81.635 81.500,81.345 81.001,80.660 C79.418,78.487 77.502,76.573 75.331,74.988 C74.647,74.488 74.358,73.659 74.582,72.842 L75.392,69.898 L67.568,66.657 L66.056,69.313 C65.637,70.051 64.846,70.432 64.008,70.301 C62.680,70.093 61.340,69.989 60.000,69.989 C58.659,69.989 57.319,70.093 55.992,70.301 C55.154,70.432 54.363,70.051 53.944,69.313 L52.431,66.657 L44.607,69.898 L45.417,72.842 C45.642,73.659 45.353,74.488 44.668,74.988 C42.498,76.573 40.582,78.487 38.998,80.660 C38.499,81.345 37.670,81.635 36.853,81.410 L33.904,80.601 L32.497,83.999 L59.568,83.999 C59.712,83.994 59.856,83.991 60.000,83.991 ZM92.000,33.998 L102.000,33.998 L102.000,27.998 L92.000,27.998 L92.000,33.998 ZM108.000,23.999 C108.000,22.894 107.104,21.999 106.000,21.999 L86.138,21.999 C86.562,23.108 86.935,24.240 87.217,25.401 L90.248,25.780 C90.524,25.815 90.773,25.912 91.000,26.043 L91.000,25.999 L91.000,25.999 L102.000,25.999 C103.104,25.999 104.000,26.894 104.000,27.998 L104.000,33.998 L104.000,35.998 L104.000,83.999 C104.000,85.103 103.104,85.999 102.000,85.999 L18.000,85.999 C16.895,85.999 16.000,85.103 16.000,83.999 L16.000,35.998 L16.000,33.998 L16.000,27.998 C16.000,26.894 16.895,25.999 18.000,25.999 L29.000,25.999 L29.000,25.999 L29.000,26.043 C29.227,25.912 29.476,25.815 29.752,25.780 L32.784,25.400 C33.064,24.242 33.436,23.110 33.861,21.999 L14.000,21.999 C12.895,21.999 12.000,22.894 12.000,23.999 L12.000,89.999 L50.000,89.999 C51.104,89.999 52.000,90.894 52.000,91.999 L68.000,91.999 C68.000,90.894 68.895,89.999 70.000,89.999 L108.000,89.999 L108.000,23.999 ZM118.000,91.999 L110.000,91.999 L108.000,91.999 L70.000,91.999 C70.000,93.104 69.104,93.999 68.000,93.999 L52.000,93.999 C50.895,93.999 50.000,93.104 50.000,91.999 L12.000,91.999 L10.000,91.999 L2.000,91.999 L2.000,95.999 C2.000,97.103 2.895,97.999 4.000,97.999 L116.000,97.999 C117.104,97.999 118.000,97.103 118.000,95.999 L118.000,91.999 ZM21.000,29.999 C21.552,29.999 22.000,30.446 22.000,30.998 C22.000,31.551 21.552,31.998 21.000,31.998 C20.447,31.998 20.000,31.551 20.000,30.998 C20.000,30.446 20.447,29.999 21.000,29.999 ZM25.000,29.999 C25.552,29.999 26.000,30.446 26.000,30.998 C26.000,31.551 25.552,31.998 25.000,31.998 C24.447,31.998 24.000,31.551 24.000,30.998 C24.000,30.446 24.447,29.999 25.000,29.999 ZM60.000,43.999 C53.372,43.999 48.000,38.626 48.000,31.999 C48.000,25.371 53.372,19.999 60.000,19.999 C66.627,19.999 72.000,25.371 72.000,31.999 C72.000,38.626 66.627,43.999 60.000,43.999 ZM60.000,41.999 C64.099,41.999 67.619,39.529 69.162,35.998 L50.837,35.998 C52.381,39.529 55.900,41.999 60.000,41.999 ZM60.000,21.999 C56.731,21.999 53.838,23.574 52.013,25.999 L67.986,25.999 C66.161,23.574 63.268,21.999 60.000,21.999 ZM69.000,27.662 L69.000,27.998 L50.837,27.998 C50.302,29.224 50.000,30.575 50.000,31.999 C50.000,32.683 50.069,33.352 50.201,33.998 L69.799,33.998 C69.930,33.352 70.000,32.683 70.000,31.999 C70.000,30.442 69.634,28.975 69.000,27.662 Z" class="optimization"/>
</svg>
