<svg xmlns="http://www.w3.org/2000/svg" xmlns:xlink="http://www.w3.org/1999/xlink" width="18" height="18" preserveAspectRatio="xMidYMid" viewBox="0 0 18 18"><path d="M16.000,18.000 L12.000,18.000 C10.895,18.000 10.000,17.105 10.000,16.000 L10.000,2.000 C10.000,0.895 10.895,-0.000 12.000,-0.000 L16.000,-0.000 C17.105,-0.000 18.000,0.895 18.000,2.000 L18.000,16.000 C18.000,17.105 17.105,18.000 16.000,18.000 ZM16.000,2.000 L12.000,2.000 L12.000,16.000 L16.000,16.000 L16.000,2.000 ZM6.000,18.000 L2.000,18.000 C0.895,18.000 -0.000,17.105 -0.000,16.000 L-0.000,2.000 C-0.000,0.895 0.895,-0.000 2.000,-0.000 L6.000,-0.000 C7.105,-0.000 8.000,0.895 8.000,2.000 L8.000,16.000 C8.000,17.105 7.105,18.000 6.000,18.000 ZM6.000,2.000 L2.000,2.000 L2.000,16.000 L6.000,16.000 L6.000,2.000 Z" class="pause"/></svg>