<svg xmlns="http://www.w3.org/2000/svg" xmlns:xlink="http://www.w3.org/1999/xlink" preserveAspectRatio="xMidYMid" width="10" height="20" viewBox="0 0 10 20">
  <path d="M2.000,0.009 L8.000,0.009 C9.102,0.009 10.000,0.907 10.000,2.007 L10.000,14.997 C10.000,15.547 9.803,16.022 9.414,16.410 L6.414,19.407 C5.635,20.184 4.364,20.184 3.586,19.407 L0.586,16.410 C0.197,16.021 -0.000,15.547 -0.000,14.997 L-0.000,2.007 C-0.000,0.907 0.898,0.009 2.000,0.009 L2.000,0.009 ZM4.016,17.011 L5.984,17.011 L8.000,14.997 L8.000,14.996 L2.000,14.996 L2.000,14.997 L4.016,17.011 L4.016,17.011 ZM2.000,4.006 L8.000,4.006 L8.000,2.007 L2.000,2.007 L2.000,4.006 L2.000,4.006 ZM8.000,6.004 L2.000,6.004 L2.000,12.998 L8.000,12.998 L8.000,6.004 Z" class="pencil"/>
</svg>
