<svg xmlns="http://www.w3.org/2000/svg" xmlns:xlink="http://www.w3.org/1999/xlink" width="20" height="20" preserveAspectRatio="xMidYMid" viewBox="0 0 20 20"><path d="M10.000,-0.000 C4.477,-0.000 -0.000,4.477 -0.000,10.000 C-0.000,15.523 4.477,20.000 10.000,20.000 C15.523,20.000 20.000,15.523 20.000,10.000 C20.000,4.477 15.523,-0.000 10.000,-0.000 L10.000,-0.000 ZM8.445,7.105 L12.445,9.106 C12.632,9.198 12.790,9.350 12.891,9.551 C13.136,10.042 12.937,10.641 12.445,10.887 L8.527,12.846 C8.374,12.941 8.193,12.996 8.000,12.996 C7.448,12.996 7.000,12.548 7.000,11.996 L7.004,7.996 C7.004,7.846 7.038,7.694 7.109,7.551 C7.355,7.059 7.953,6.860 8.445,7.105 L8.445,7.105 ZM10.000,2.000 C14.419,2.000 18.000,5.581 18.000,10.000 C18.000,14.418 14.419,18.000 10.000,18.000 C5.582,18.000 2.000,14.418 2.000,10.000 C2.000,5.581 5.582,2.000 10.000,2.000 Z" class="play-in-circle"/></svg>