<svg xmlns="http://www.w3.org/2000/svg" xmlns:xlink="http://www.w3.org/1999/xlink" width="18" height="20" preserveAspectRatio="xMidYMid" viewBox="0 0 18 20"><path d="M16.000,20.000 L2.000,20.000 C0.895,20.000 -0.000,19.105 -0.000,18.000 L-0.000,6.000 C-0.000,4.895 0.895,4.000 2.000,4.000 L5.000,4.000 L5.000,2.000 L5.000,2.000 C5.000,0.895 5.895,-0.000 7.000,-0.000 L11.000,-0.000 C12.105,-0.000 13.000,0.895 13.000,2.000 L13.000,2.000 L13.000,4.000 L16.000,4.000 C17.105,4.000 18.000,4.895 18.000,6.000 L18.000,18.000 C18.000,19.105 17.105,20.000 16.000,20.000 ZM11.000,2.000 L7.000,2.000 L7.000,4.000 L11.000,4.000 L11.000,2.000 ZM2.000,6.000 L2.000,18.000 L16.000,18.000 L16.000,12.000 L11.000,12.000 C11.000,12.552 10.552,13.000 10.000,13.000 L8.000,13.000 C7.448,13.000 7.000,12.552 7.000,12.000 L2.000,12.000 L2.000,10.000 L7.000,10.000 C7.000,9.448 7.448,9.000 8.000,9.000 L10.000,9.000 C10.552,9.000 11.000,9.448 11.000,10.000 L16.000,10.000 L16.000,6.000 L2.000,6.000 Z" class="portfl"/></svg>