<svg xmlns="http://www.w3.org/2000/svg" xmlns:xlink="http://www.w3.org/1999/xlink" preserveAspectRatio="xMidYMid" width="18" height="20" viewBox="0 0 18 20">
  <path d="M12.077,2.540 C15.532,3.797 18.000,7.110 18.000,11.000 C18.000,15.970 13.971,20.000 9.000,20.000 C4.029,20.000 -0.000,15.970 -0.000,11.000 C-0.000,7.110 2.467,3.797 5.922,2.540 L6.606,4.420 C3.919,5.398 2.000,7.975 2.000,11.000 C2.000,14.866 5.134,18.000 9.000,18.000 C12.866,18.000 16.000,14.866 16.000,11.000 C16.000,7.975 14.081,5.398 11.394,4.420 L12.077,2.540 L12.077,2.540 ZM8.000,-0.000 L8.000,6.000 L10.000,6.000 L10.000,-0.000 L8.000,-0.000 Z" class="power-off"/>
</svg>
