<svg xmlns="http://www.w3.org/2000/svg" xmlns:xlink="http://www.w3.org/1999/xlink" width="60" height="50" preserveAspectRatio="xMidYMid" viewBox="0 0 60 50"><path d="M58.000,6.000 L58.000,40.000 C58.000,41.104 57.105,42.000 56.000,42.000 L31.000,42.000 L31.000,44.184 C32.163,44.597 33.000,45.696 33.000,47.000 C33.000,48.657 31.657,50.000 30.000,50.000 C28.343,50.000 27.000,48.657 27.000,47.000 C27.000,45.696 27.837,44.597 29.000,44.184 L29.000,42.000 L4.000,42.000 C2.895,42.000 2.000,41.104 2.000,40.000 L2.000,6.000 C0.895,6.000 -0.000,5.104 -0.000,4.000 L-0.000,2.000 C-0.000,0.895 0.895,-0.000 2.000,-0.000 L58.000,-0.000 C59.104,-0.000 60.000,0.895 60.000,2.000 L60.000,4.000 C60.000,5.104 59.104,6.000 58.000,6.000 ZM30.000,48.000 C30.552,48.000 31.000,47.552 31.000,47.000 C31.000,46.448 30.552,46.000 30.000,46.000 C29.448,46.000 29.000,46.448 29.000,47.000 C29.000,47.552 29.448,48.000 30.000,48.000 ZM4.000,40.000 L56.000,40.000 L56.000,6.000 L4.000,6.000 L4.000,40.000 ZM58.000,2.000 L2.000,2.000 L2.000,4.000 L4.000,4.000 L56.000,4.000 L58.000,4.000 L58.000,2.000 Z" class="presentation"/></svg>