<svg xmlns="http://www.w3.org/2000/svg" xmlns:xlink="http://www.w3.org/1999/xlink" width="29" height="30" preserveAspectRatio="xMidYMid" viewBox="0 0 29 30"><defs><style>.qiwi{fill:#ffa000;fill-rule:evenodd}</style></defs><path d="M28.899,29.496 C29.170,29.832 28.758,30.173 28.451,29.901 C25.384,27.181 22.804,26.410 20.252,26.303 C18.898,26.247 17.552,26.377 16.145,26.501 C15.864,26.526 15.580,26.551 15.293,26.573 C15.168,26.584 15.042,26.593 14.916,26.602 C14.420,26.656 13.917,26.684 13.407,26.684 C11.006,26.684 8.741,26.095 6.673,24.933 C4.598,23.767 2.948,22.139 1.771,20.094 C0.595,18.053 -0.000,15.798 -0.000,13.390 C-0.000,10.986 0.595,8.721 1.768,6.659 C2.944,4.594 4.575,2.950 6.615,1.773 C8.655,0.596 10.880,-0.000 13.229,-0.000 C15.683,-0.000 17.976,0.589 20.045,1.751 C22.120,2.917 23.774,4.550 24.963,6.605 C26.149,8.659 26.750,10.920 26.750,13.326 C26.750,14.255 26.660,15.162 26.484,16.045 C26.461,16.173 26.428,16.328 26.382,16.509 C26.348,16.653 26.311,16.798 26.271,16.941 L26.260,16.935 C26.023,17.697 25.580,18.775 24.757,20.159 C24.668,20.305 24.619,20.194 24.607,20.112 C24.319,18.076 23.428,16.530 21.857,15.531 C21.831,15.515 21.805,15.499 21.778,15.483 C21.521,15.325 21.246,15.181 20.953,15.051 C20.578,14.886 20.175,14.743 19.740,14.626 C19.474,14.554 18.880,14.585 19.095,14.371 C19.184,14.283 20.471,14.263 21.949,14.357 C21.978,14.359 22.007,14.360 22.036,14.362 C22.063,14.052 22.077,13.734 22.077,13.407 C22.077,10.867 21.237,8.795 19.509,7.075 C17.779,5.354 15.757,4.516 13.327,4.516 C10.838,4.516 8.819,5.354 7.157,7.079 C5.486,8.811 4.673,10.865 4.673,13.358 C4.673,15.846 5.509,17.891 7.227,19.611 C8.945,21.331 10.940,22.168 13.327,22.168 C13.441,22.168 13.554,22.164 13.667,22.161 C13.665,22.132 13.663,22.103 13.660,22.075 C13.523,20.321 13.494,18.864 13.854,19.451 C13.981,19.659 14.108,19.856 14.234,20.045 C14.704,20.749 15.170,21.328 15.634,21.809 C15.657,21.833 15.680,21.856 15.704,21.880 C17.400,23.604 19.069,24.028 20.845,24.464 C20.882,24.473 20.920,24.483 20.958,24.492 C21.248,24.564 21.542,24.636 21.839,24.716 C23.948,25.279 26.233,26.188 28.899,29.496 M23.046,18.891 C22.784,18.814 22.588,18.871 22.491,19.048 C22.345,19.316 22.453,19.845 22.748,20.307 C23.048,20.775 23.301,21.012 23.504,21.012 C23.573,21.012 23.636,20.982 23.684,20.927 C23.797,20.798 23.834,20.527 23.786,20.185 C23.739,19.835 23.524,19.115 23.046,18.891 M20.091,21.074 C19.823,21.074 19.600,21.167 19.462,21.337 C19.110,21.771 19.269,22.536 19.808,23.008 C20.043,23.213 20.382,23.337 20.715,23.337 C21.053,23.337 21.336,23.209 21.510,22.979 C21.824,22.558 21.644,21.961 21.051,21.459 C20.757,21.211 20.417,21.074 20.091,21.074" class="qiwi"/></svg>