<svg xmlns="http://www.w3.org/2000/svg" xmlns:xlink="http://www.w3.org/1999/xlink" preserveAspectRatio="xMidYMid" width="12" height="18" viewBox="0 0 12 18">
  <path d="M7.000,11.899 L7.000,14.000 L5.000,14.000 L5.000,11.000 C5.000,10.448 5.448,10.000 6.000,10.000 C8.209,10.000 10.000,8.209 10.000,6.000 C10.000,3.791 8.209,2.000 6.000,2.000 C3.791,2.000 2.000,3.791 2.000,6.000 L-0.000,6.000 C-0.000,2.686 2.686,-0.000 6.000,-0.000 C9.314,-0.000 12.000,2.686 12.000,6.000 C12.000,8.971 9.835,11.421 7.000,11.899 ZM7.000,18.000 L5.000,18.000 L5.000,16.000 L7.000,16.000 L7.000,18.000 Z" class="question"/>
</svg>
