<svg xmlns="http://www.w3.org/2000/svg" xmlns:xlink="http://www.w3.org/1999/xlink" preserveAspectRatio="xMidYMid" width="18" height="18" viewBox="0 0 18 18">
  <path d="M9.000,18.000 C11.995,18.000 14.649,16.536 16.285,14.285 L18.000,16.000 L18.000,11.000 L13.000,11.000 L14.847,12.847 C13.596,14.746 11.444,16.000 9.000,16.000 C5.134,16.000 2.000,12.866 2.000,9.000 L0.000,9.000 C0.000,13.970 4.030,18.000 9.000,18.000 L9.000,18.000 ZM0.000,7.000 L0.000,2.000 L1.715,3.715 C3.351,1.464 6.004,-0.000 9.000,-0.000 C13.970,-0.000 18.000,4.029 18.000,9.000 L16.000,9.000 C16.000,5.134 12.866,2.000 9.000,2.000 C6.556,2.000 4.404,3.254 3.153,5.153 L5.000,7.000 L0.000,7.000 Z" class="reload"/>
</svg>
