<svg xmlns="http://www.w3.org/2000/svg" xmlns:xlink="http://www.w3.org/1999/xlink" preserveAspectRatio="xMidYMid" width="18" height="20" viewBox="0 0 18 20">
  <path d="M1.953,10.011 L0.077,2.510 C-0.121,1.717 0.157,0.928 0.809,0.434 C1.460,-0.059 2.295,-0.113 3.005,0.293 L16.981,8.278 C17.620,8.643 17.987,9.275 17.987,10.011 C17.987,10.747 17.620,11.379 16.981,11.744 L3.005,19.729 C2.295,20.134 1.460,20.080 0.809,19.587 C0.157,19.094 -0.121,18.305 0.077,17.512 L1.953,10.011 L1.953,10.011 ZM3.761,9.013 L14.243,9.013 L2.014,2.026 L3.761,9.013 L3.761,9.013 ZM14.244,11.009 L3.761,11.009 L2.014,17.996 L14.244,11.009 Z" class="send"/>
</svg>
