<svg xmlns="http://www.w3.org/2000/svg" xmlns:xlink="http://www.w3.org/1999/xlink" preserveAspectRatio="xMidYMid" width="112" height="120" viewBox="0 0 112 120">
  <path d="M102.334,56.334 C96.362,62.305 88.112,65.999 79.000,65.999 C69.887,65.999 61.637,62.305 55.665,56.334 C50.581,51.250 47.158,44.511 46.249,36.999 L42.001,36.999 L42.001,38.999 C42.001,39.547 41.776,40.047 41.414,40.409 L41.411,40.412 C41.048,40.774 40.549,40.999 40.001,40.999 L14.004,40.999 C11.799,40.999 9.799,40.102 8.350,38.654 C6.900,37.208 6.004,35.207 6.004,32.999 C6.004,30.794 6.900,28.795 8.348,27.346 L8.352,27.342 C9.801,25.895 11.800,24.999 14.004,24.999 L40.001,24.999 C40.549,24.999 41.048,25.225 41.411,25.586 L41.414,25.590 C41.776,25.952 42.001,26.452 42.001,26.999 L42.001,28.999 L46.249,28.999 C47.158,21.487 50.581,14.749 55.665,9.664 C61.637,3.693 69.887,-0.001 79.000,-0.001 C88.112,-0.001 96.362,3.693 102.334,9.664 C108.306,15.636 112.000,23.887 112.000,32.999 C112.000,42.112 108.306,50.362 102.334,56.334 ZM40.001,26.999 L14.004,26.999 C12.345,26.999 10.845,27.670 9.762,28.753 L9.758,28.757 C8.675,29.839 8.005,31.340 8.005,32.999 C8.005,34.656 8.676,36.156 9.762,37.242 L9.762,37.245 C10.845,38.328 12.345,38.999 14.004,38.999 L40.001,38.999 L40.001,36.999 L40.000,36.999 L40.000,28.999 L40.001,28.999 L40.001,26.999 ZM42.001,30.999 L42.001,34.999 L46.065,34.999 C46.025,34.337 45.999,33.671 45.999,32.999 C45.999,32.327 46.025,31.661 46.065,30.999 L42.001,30.999 ZM100.920,11.079 C95.311,5.469 87.560,1.999 79.000,1.999 C70.439,1.999 62.688,5.469 57.079,11.079 C51.469,16.688 47.999,24.439 47.999,32.999 C47.999,41.559 51.469,49.310 57.079,54.920 C62.688,60.529 70.439,63.999 79.000,63.999 C87.560,63.999 95.311,60.529 100.920,54.920 C106.530,49.310 110.000,41.559 110.000,32.999 C110.000,24.439 106.530,16.688 100.920,11.079 ZM98.091,52.091 C93.205,56.977 86.455,59.999 79.000,59.999 C71.544,59.999 64.794,56.977 59.908,52.091 C55.022,47.204 52.000,40.454 52.000,32.999 C52.000,25.544 55.022,18.793 59.908,13.908 C64.794,9.022 71.544,5.999 79.000,5.999 C86.455,5.999 93.205,9.022 98.091,13.908 C102.977,18.793 106.000,25.544 106.000,32.999 C106.000,40.454 102.977,47.204 98.091,52.091 ZM96.677,15.321 C92.154,10.798 85.903,7.999 79.000,7.999 C72.096,7.999 65.846,10.797 61.322,15.321 C56.798,19.845 54.000,26.095 54.000,32.999 C54.000,39.902 56.798,46.153 61.322,50.677 C65.846,55.200 72.096,57.999 79.000,57.999 C85.903,57.999 92.154,55.200 96.677,50.677 C101.201,46.153 103.999,39.902 103.999,32.999 C103.999,26.095 101.201,19.845 96.677,15.321 ZM85.006,49.999 L82.016,49.999 C80.914,49.999 80.016,49.100 80.016,47.999 L80.016,39.050 L75.611,48.821 C75.280,49.554 74.592,49.999 73.787,49.999 L70.007,49.999 C69.304,49.999 68.700,49.668 68.322,49.076 C67.943,48.484 67.897,47.796 68.192,47.159 L73.138,36.478 C70.285,34.374 69.007,31.214 69.007,27.439 C69.007,20.806 73.413,15.999 80.075,15.999 L85.007,15.999 C86.108,15.999 87.007,16.897 87.007,17.999 L87.007,47.999 C87.007,49.100 86.108,49.999 85.006,49.999 ZM85.007,17.999 L80.075,17.999 C75.275,17.999 71.007,21.146 71.007,27.439 C71.007,31.929 73.023,34.362 75.699,35.705 L70.007,47.999 L73.787,47.999 L78.971,36.503 L82.016,36.503 L82.016,47.999 L85.007,47.999 L85.007,17.999 ZM74.532,27.439 C74.532,22.447 77.640,20.999 80.274,20.999 L82.016,20.999 L82.016,33.749 L80.274,33.749 C77.428,33.749 74.532,32.265 74.532,27.439 ZM80.016,23.004 C77.460,23.120 76.532,24.963 76.532,27.439 C76.532,29.982 77.446,31.642 80.016,31.744 L80.016,23.004 ZM56.335,63.664 C61.418,68.748 64.842,75.486 65.751,82.999 L69.999,82.999 L69.999,80.999 C69.999,80.452 70.224,79.952 70.586,79.589 L70.590,79.585 C70.952,79.224 71.451,78.999 71.999,78.999 L97.996,78.999 C100.201,78.999 102.201,79.896 103.650,81.345 C105.100,82.790 105.996,84.790 105.996,86.999 C105.996,89.203 105.100,91.202 103.653,92.652 L103.649,92.656 C102.200,94.102 100.200,94.999 97.996,94.999 L71.999,94.999 C71.451,94.999 70.952,94.774 70.590,94.412 L70.586,94.408 C70.224,94.047 69.999,93.547 69.999,92.999 L69.999,90.999 L65.751,90.999 C64.842,98.511 61.418,105.249 56.335,110.333 C50.363,116.305 42.112,119.998 33.000,119.998 C23.888,119.998 15.637,116.305 9.666,110.333 C3.694,104.361 -0.000,96.111 -0.000,86.998 C-0.000,77.887 3.694,69.636 9.666,63.664 C15.637,57.693 23.888,53.998 33.000,53.998 C42.112,53.998 50.363,57.693 56.335,63.664 ZM72.000,82.999 L72.000,82.999 L72.000,90.999 L72.000,90.999 L72.000,92.999 L97.996,92.999 C99.655,92.999 101.156,92.329 102.238,91.245 L102.242,91.242 C103.325,90.159 103.996,88.658 103.996,86.999 C103.996,85.342 103.324,83.841 102.238,82.757 L102.238,82.753 C101.156,81.670 99.655,80.999 97.996,80.999 L72.000,80.999 L72.000,82.999 ZM69.999,88.998 L69.999,84.999 L65.935,84.999 C65.974,85.661 66.001,86.326 66.001,86.998 C66.001,87.671 65.974,88.336 65.935,88.998 L69.999,88.998 ZM2.000,86.998 C2.000,95.559 5.470,103.309 11.080,108.919 C16.689,114.529 24.440,117.999 33.000,117.999 C41.560,117.999 49.311,114.529 54.921,108.919 C60.530,103.309 64.000,95.559 64.000,86.998 C64.000,78.438 60.530,70.687 54.921,65.078 C49.311,59.469 41.560,55.999 33.000,55.999 C24.440,55.999 16.689,59.469 11.080,65.078 C5.470,70.687 2.000,78.438 2.000,86.998 ZM52.091,67.907 C56.978,72.793 60.000,79.543 60.000,86.998 C60.000,94.454 56.978,101.204 52.091,106.090 C47.206,110.976 40.456,113.998 33.000,113.998 C25.545,113.998 18.795,110.976 13.909,106.090 C9.023,101.204 6.001,94.454 6.001,86.998 C6.001,79.543 9.023,72.793 13.909,67.907 C18.795,63.021 25.545,59.999 33.000,59.999 C40.456,59.999 47.206,63.021 52.091,67.907 ZM8.001,86.998 C8.001,93.902 10.799,100.152 15.323,104.676 C19.846,109.200 26.097,111.998 33.000,111.998 C39.904,111.998 46.154,109.200 50.678,104.676 C55.202,100.152 58.000,93.902 58.000,86.998 C58.000,80.095 55.201,73.845 50.678,69.321 C46.154,64.797 39.904,61.999 33.000,61.999 C26.097,61.999 19.847,64.797 15.323,69.321 C10.799,73.845 8.001,80.095 8.001,86.998 ZM44.041,76.158 C44.450,76.547 44.661,77.031 44.665,77.596 C44.669,78.161 44.465,78.648 44.060,79.042 L41.496,81.541 C40.735,82.283 39.530,82.301 38.747,81.581 C37.267,80.221 35.547,79.566 33.534,79.566 C29.354,79.566 25.973,82.808 25.973,87.013 C25.973,91.218 29.354,94.460 33.534,94.460 C35.634,94.460 37.357,93.909 38.863,92.432 C39.205,92.097 39.473,91.573 39.678,90.999 L34.000,90.999 C32.898,90.999 32.000,90.101 32.000,88.999 L32.000,85.999 C32.000,84.897 32.898,83.999 34.000,83.999 L45.841,83.999 C46.797,83.999 47.601,84.652 47.798,85.588 C47.978,86.444 48.033,87.349 48.033,88.223 C48.033,91.788 46.823,95.272 44.265,97.764 C41.327,100.736 37.692,101.998 33.534,101.998 C25.240,101.998 18.000,95.421 18.000,86.998 C18.000,78.577 25.241,71.999 33.534,71.999 C37.584,71.999 41.104,73.375 44.041,76.158 ZM20.000,86.998 C20.000,94.163 26.181,99.998 33.534,99.998 C37.506,99.998 40.501,98.727 42.843,96.359 C45.244,94.018 46.034,90.881 46.034,88.223 C46.034,87.400 45.974,86.634 45.841,85.999 L34.000,85.999 L34.000,88.999 L42.188,88.999 C41.921,90.992 41.301,92.834 40.263,93.860 C38.989,95.102 37.002,96.460 33.534,96.460 C28.168,96.460 23.973,92.242 23.973,87.013 C23.973,81.784 28.168,77.567 33.534,77.567 C36.424,77.567 38.544,78.679 40.100,80.109 L42.665,77.610 C40.501,75.559 37.595,73.999 33.534,73.999 C26.181,73.999 20.000,79.834 20.000,86.998 Z" class="seo"/>
</svg>
