<svg xmlns="http://www.w3.org/2000/svg" xmlns:xlink="http://www.w3.org/1999/xlink" width="120" height="100" preserveAspectRatio="xMidYMid" viewBox="0 0 120 100"><path d="M116.000,99.999 L4.000,99.999 C1.791,99.999 -0.000,98.207 -0.000,95.998 L-0.000,91.998 C-0.000,90.894 0.895,89.998 2.000,89.998 L10.000,89.998 L10.000,23.999 C10.000,21.789 11.791,19.999 14.000,19.999 L59.000,19.999 L59.000,1.998 C59.000,0.894 59.895,-0.001 61.000,-0.001 L85.000,-0.001 C86.104,-0.001 87.000,0.894 87.000,1.998 L87.000,12.999 C87.000,14.103 86.104,14.998 85.000,14.998 L76.000,14.998 L74.000,14.998 L74.000,19.999 L106.000,19.999 C108.209,19.999 110.000,21.789 110.000,23.999 L110.000,89.998 L118.000,89.998 C119.104,89.998 120.000,90.894 120.000,91.998 L120.000,95.998 C120.000,98.207 118.209,99.999 116.000,99.999 ZM72.000,1.998 L69.000,1.998 L61.000,1.998 L61.000,12.999 L72.000,12.999 L72.000,1.998 ZM76.000,12.999 L85.000,12.999 L85.000,1.998 L74.000,1.998 L74.000,12.999 L76.000,12.999 ZM72.000,14.998 L61.000,14.998 L61.000,19.999 L61.000,21.999 L61.000,25.999 L72.000,25.999 L72.000,21.999 L72.000,19.999 L72.000,14.998 ZM61.000,33.998 L61.000,35.998 L61.000,38.999 L72.000,38.999 L72.000,35.998 L72.000,33.998 L72.000,27.999 L61.000,27.999 L61.000,33.998 ZM74.000,33.998 L102.000,33.998 L102.000,27.999 L74.000,27.999 L74.000,33.998 ZM74.000,35.998 L74.000,38.999 C74.000,40.104 73.104,40.999 72.000,40.999 L61.000,40.999 C59.895,40.999 59.000,40.104 59.000,38.999 L59.000,35.998 L18.000,35.998 L18.000,83.999 L102.000,83.999 L102.000,35.998 L74.000,35.998 ZM59.000,33.998 L59.000,27.999 L18.000,27.999 L18.000,33.998 L59.000,33.998 ZM108.000,23.999 C108.000,22.894 107.104,21.999 106.000,21.999 L74.000,21.999 L74.000,25.999 L102.000,25.999 C103.104,25.999 104.000,26.894 104.000,27.999 L104.000,33.998 L104.000,35.998 L104.000,83.999 C104.000,85.103 103.104,85.998 102.000,85.998 L18.000,85.998 C16.895,85.998 16.000,85.103 16.000,83.999 L16.000,35.998 L16.000,33.998 L16.000,27.999 C16.000,26.894 16.895,25.999 18.000,25.999 L59.000,25.999 L59.000,21.999 L14.000,21.999 C12.895,21.999 12.000,22.894 12.000,23.999 L12.000,89.998 L50.000,89.998 C51.104,89.998 52.000,90.894 52.000,91.998 L68.000,91.998 C68.000,90.894 68.895,89.998 70.000,89.998 L108.000,89.998 L108.000,23.999 ZM118.000,91.998 L110.000,91.998 L108.000,91.998 L70.000,91.998 C70.000,93.103 69.104,93.999 68.000,93.999 L52.000,93.999 C50.895,93.999 50.000,93.103 50.000,91.998 L12.000,91.998 L10.000,91.998 L2.000,91.998 L2.000,95.998 C2.000,97.103 2.895,97.999 4.000,97.999 L116.000,97.999 C117.104,97.999 118.000,97.103 118.000,95.998 L118.000,91.998 ZM21.000,29.998 C21.552,29.998 22.000,30.446 22.000,30.999 C22.000,31.551 21.552,31.998 21.000,31.998 C20.447,31.998 20.000,31.551 20.000,30.999 C20.000,30.446 20.447,29.998 21.000,29.998 ZM25.000,29.998 C25.552,29.998 26.000,30.446 26.000,30.999 C26.000,31.551 25.552,31.998 25.000,31.998 C24.447,31.998 24.000,31.551 24.000,30.999 C24.000,30.446 24.447,29.998 25.000,29.998 ZM29.000,29.998 C29.552,29.998 30.000,30.446 30.000,30.999 C30.000,31.551 29.552,31.998 29.000,31.998 C28.447,31.998 28.000,31.551 28.000,30.999 C28.000,30.446 28.447,29.998 29.000,29.998 ZM98.000,81.999 L74.000,81.999 C72.895,81.999 72.000,81.104 72.000,79.999 L72.000,55.999 C72.000,54.894 72.895,53.999 74.000,53.999 L85.000,53.999 L85.000,42.999 C85.000,41.894 85.895,40.999 87.000,40.999 L98.000,40.999 C99.105,40.999 100.000,41.894 100.000,42.999 L100.000,79.999 C100.000,81.104 99.105,81.999 98.000,81.999 ZM85.000,55.999 L74.000,55.999 L74.000,66.999 L85.000,66.999 L85.000,55.999 ZM85.000,68.999 L74.000,68.999 L74.000,79.999 L85.000,79.999 L85.000,68.999 ZM98.000,42.999 L87.000,42.999 L87.000,53.999 L98.000,53.999 L98.000,42.999 ZM98.000,55.999 L87.000,55.999 L87.000,66.999 L98.000,66.999 L98.000,55.999 ZM98.000,68.999 L87.000,68.999 L87.000,79.999 L98.000,79.999 L98.000,68.999 ZM59.000,81.999 L22.000,81.999 C20.895,81.999 20.000,81.104 20.000,79.999 L20.000,42.999 C20.000,41.894 20.895,40.999 22.000,40.999 L33.000,40.999 C34.104,40.999 35.000,41.894 35.000,42.999 L35.000,53.999 L46.000,53.999 C47.104,53.999 48.000,54.894 48.000,55.999 L48.000,66.999 L59.000,66.999 C60.104,66.999 61.000,67.894 61.000,68.999 L61.000,79.999 C61.000,81.104 60.104,81.999 59.000,81.999 ZM33.000,42.999 L22.000,42.999 L22.000,53.999 L33.000,53.999 L33.000,42.999 ZM33.000,55.999 L22.000,55.999 L22.000,66.999 L33.000,66.999 L33.000,55.999 ZM33.000,68.999 L22.000,68.999 L22.000,79.999 L33.000,79.999 L33.000,68.999 ZM46.000,55.999 L35.000,55.999 L35.000,66.999 L46.000,66.999 L46.000,55.999 ZM46.000,68.999 L35.000,68.999 L35.000,79.999 L46.000,79.999 L46.000,68.999 ZM59.000,68.999 L48.000,68.999 L48.000,79.999 L59.000,79.999 L59.000,68.999 Z" class="cls-1"/></svg>