<svg xmlns="http://www.w3.org/2000/svg" xmlns:xlink="http://www.w3.org/1999/xlink" width="108" height="108" preserveAspectRatio="xMidYMid" viewBox="0 0 108 108"><path d="M97.054,37.815 C97.963,40.229 98.685,42.729 99.177,45.304 C99.717,48.126 100.000,51.033 100.000,53.999 C100.000,56.965 99.717,59.872 99.177,62.693 C98.685,65.268 97.963,67.768 97.055,70.182 C98.939,71.142 100.661,72.376 102.142,73.857 C105.761,77.476 108.000,82.476 108.000,87.998 C108.000,93.521 105.761,98.522 102.142,102.141 C98.522,105.760 93.522,107.999 88.000,107.999 C82.477,107.999 77.477,105.760 73.858,102.141 C72.377,100.660 71.143,98.938 70.183,97.053 C67.769,97.961 65.269,98.684 62.694,99.177 C59.873,99.716 56.966,99.999 54.000,99.999 C51.034,99.999 48.127,99.716 45.306,99.177 C42.731,98.684 40.231,97.961 37.816,97.053 C36.857,98.938 35.623,100.660 34.142,102.141 C30.523,105.760 25.523,107.999 20.000,107.999 C14.478,107.999 9.477,105.760 5.858,102.141 C2.239,98.522 -0.000,93.521 -0.000,87.998 C-0.000,82.476 2.239,77.476 5.858,73.857 C7.339,72.376 9.061,71.142 10.945,70.182 C10.037,67.768 9.315,65.268 8.822,62.693 C8.282,59.872 8.000,56.965 8.000,53.999 C8.000,51.033 8.282,48.126 8.822,45.304 C9.315,42.729 10.037,40.229 10.945,37.815 C9.060,36.855 7.339,35.622 5.858,34.141 C2.239,30.522 -0.000,25.521 -0.000,19.999 C-0.000,14.477 2.239,9.476 5.858,5.857 C9.477,2.238 14.478,-0.001 20.000,-0.001 C25.523,-0.001 30.523,2.238 34.142,5.857 C35.623,7.338 36.857,9.060 37.817,10.945 C40.231,10.036 42.730,9.314 45.306,8.822 C48.127,8.281 51.034,7.999 54.000,7.999 C56.966,7.999 59.873,8.281 62.694,8.822 C65.269,9.314 67.769,10.036 70.183,10.945 C71.143,9.060 72.377,7.338 73.858,5.857 C77.477,2.238 82.478,-0.001 88.000,-0.001 C93.522,-0.001 98.522,2.238 102.141,5.857 C105.761,9.476 108.000,14.477 108.000,19.999 C108.000,25.521 105.761,30.522 102.141,34.141 C100.661,35.622 98.939,36.855 97.054,37.815 ZM97.216,62.318 C97.731,59.631 98.000,56.849 98.000,53.999 C98.000,51.148 97.731,48.367 97.216,45.680 C96.751,43.246 96.076,40.893 95.232,38.629 C92.987,39.502 90.554,39.999 88.000,39.999 C82.837,39.999 78.147,38.026 74.599,34.814 L68.815,40.598 C72.027,44.146 74.000,48.837 74.000,53.999 C74.000,59.161 72.027,63.852 68.815,67.400 L74.598,73.184 C78.147,69.972 82.837,67.998 88.000,67.998 C90.554,67.998 92.987,68.496 95.232,69.368 C96.076,67.105 96.751,64.753 97.216,62.318 ZM64.973,54.999 C64.907,57.477 64.597,59.839 64.090,61.999 L70.098,61.999 C71.152,59.868 71.811,57.505 71.949,54.999 L64.973,54.999 ZM71.949,52.999 C71.811,50.493 71.152,48.130 70.098,45.998 L64.090,45.998 C64.597,48.159 64.907,50.520 64.973,52.999 L71.949,52.999 ZM63.539,64.000 C63.096,65.420 62.567,66.735 61.954,67.899 C61.320,69.104 60.594,70.141 59.806,71.023 C62.439,70.125 64.804,68.650 66.728,66.727 C67.558,65.897 68.296,64.979 68.950,64.000 L63.539,64.000 ZM60.188,66.969 C60.660,66.072 61.075,65.071 61.439,64.000 L55.000,64.000 L55.000,71.873 C56.975,71.414 58.786,69.632 60.188,66.969 ZM53.000,64.000 L46.561,64.000 C46.925,65.071 47.340,66.072 47.812,66.969 C49.213,69.632 51.025,71.414 53.000,71.873 L53.000,64.000 ZM46.046,67.899 C45.433,66.735 44.904,65.420 44.461,64.000 L39.050,64.000 C39.703,64.979 40.442,65.897 41.272,66.727 C43.196,68.650 45.561,70.125 48.193,71.023 C47.406,70.141 46.680,69.104 46.046,67.899 ZM37.902,61.999 L43.910,61.999 C43.403,59.839 43.093,57.477 43.027,54.999 L36.050,54.999 C36.189,57.505 36.848,59.868 37.902,61.999 ZM43.027,52.999 C43.093,50.520 43.403,48.159 43.910,45.998 L37.902,45.998 C36.848,48.130 36.189,50.493 36.050,52.999 L43.027,52.999 ZM44.461,43.998 C44.904,42.578 45.433,41.263 46.046,40.099 C46.680,38.894 47.406,37.856 48.193,36.975 C45.561,37.872 43.196,39.347 41.272,41.271 C40.442,42.101 39.703,43.019 39.050,43.998 L44.461,43.998 ZM47.812,41.029 C47.340,41.925 46.925,42.927 46.561,43.998 L53.000,43.998 L53.000,36.125 C51.025,36.584 49.213,38.366 47.812,41.029 ZM45.971,45.998 C45.432,48.132 45.097,50.493 45.026,52.999 L53.000,52.999 L53.000,45.998 L45.971,45.998 ZM45.026,54.999 C45.097,57.504 45.432,59.866 45.971,61.999 L53.000,61.999 L53.000,54.999 L45.026,54.999 ZM62.029,61.999 C62.568,59.866 62.903,57.504 62.974,54.999 L55.000,54.999 L55.000,61.999 L62.029,61.999 ZM62.974,52.999 C62.903,50.493 62.568,48.132 62.029,45.998 L55.000,45.998 L55.000,52.999 L62.974,52.999 ZM55.000,43.998 L61.439,43.998 C61.075,42.927 60.660,41.925 60.188,41.029 C58.786,38.366 56.975,36.584 55.000,36.125 L55.000,43.998 ZM61.954,40.099 C62.567,41.263 63.096,42.578 63.539,43.998 L68.950,43.998 C68.296,43.019 67.558,42.101 66.728,41.271 C64.804,39.347 62.439,37.872 59.806,36.974 C60.594,37.856 61.320,38.894 61.954,40.099 ZM75.272,100.727 C78.529,103.984 83.029,105.998 88.000,105.998 C92.970,105.998 97.471,103.984 100.728,100.727 C103.985,97.470 106.000,92.969 106.000,87.998 C106.000,83.028 103.985,78.528 100.728,75.270 C97.471,72.014 92.970,69.999 88.000,69.999 C83.029,69.999 78.529,72.014 75.272,75.270 C72.015,78.528 70.000,83.028 70.000,87.998 C70.000,92.969 72.015,97.470 75.272,100.727 ZM45.681,97.215 C48.368,97.730 51.149,97.999 54.000,97.999 C56.850,97.999 59.632,97.730 62.319,97.215 C64.753,96.749 67.106,96.075 69.369,95.231 C68.497,92.985 68.000,90.552 68.000,87.998 C68.000,82.836 69.973,78.146 73.185,74.597 L67.401,68.814 C63.853,72.025 59.162,73.999 54.000,73.999 C48.837,73.999 44.147,72.025 40.599,68.814 L34.815,74.597 C38.027,78.146 40.000,82.836 40.000,87.998 C40.000,90.552 39.503,92.986 38.630,95.231 C40.894,96.075 43.247,96.749 45.681,97.215 ZM7.272,75.270 C4.015,78.528 2.000,83.028 2.000,87.998 C2.000,92.969 4.015,97.470 7.272,100.727 C10.529,103.984 15.029,105.998 20.000,105.998 C24.971,105.998 29.471,103.984 32.728,100.727 C35.985,97.470 38.000,92.969 38.000,87.998 C38.000,83.028 35.985,78.528 32.728,75.270 C29.471,72.014 24.971,69.999 20.000,69.999 C15.029,69.999 10.529,72.014 7.272,75.270 ZM10.783,45.679 C10.269,48.367 10.000,51.148 10.000,53.999 C10.000,56.849 10.269,59.631 10.783,62.318 C11.249,64.752 11.924,67.104 12.767,69.368 C15.013,68.496 17.446,67.998 20.000,67.998 C25.162,67.998 29.853,69.972 33.401,73.184 L39.185,67.400 C35.973,63.852 34.000,59.161 34.000,53.999 C34.000,48.837 35.973,44.146 39.185,40.598 L33.401,34.814 C29.853,38.026 25.162,39.999 20.000,39.999 C17.446,39.999 15.013,39.502 12.767,38.629 C11.924,40.893 11.249,43.245 10.783,45.679 ZM32.728,7.271 C29.471,4.014 24.971,1.999 20.000,1.999 C15.029,1.999 10.529,4.014 7.272,7.271 C4.015,10.528 2.000,15.028 2.000,19.999 C2.000,24.969 4.015,29.470 7.272,32.727 C10.529,35.984 15.029,37.999 20.000,37.999 C24.971,37.999 29.471,35.984 32.728,32.727 C35.985,29.470 38.000,24.969 38.000,19.999 C38.000,15.028 35.985,10.528 32.728,7.271 ZM62.319,10.783 C59.632,10.268 56.850,9.999 54.000,9.999 C51.149,9.999 48.368,10.268 45.681,10.783 C43.247,11.248 40.894,11.923 38.630,12.767 C39.503,15.012 40.000,17.445 40.000,19.999 C40.000,25.161 38.027,29.852 34.815,33.400 L40.599,39.184 C44.147,35.972 48.837,33.999 54.000,33.999 C59.162,33.999 63.853,35.972 67.401,39.184 L73.185,33.400 C69.973,29.852 68.000,25.161 68.000,19.999 C68.000,17.445 68.497,15.012 69.369,12.767 C67.106,11.923 64.753,11.248 62.319,10.783 ZM100.728,7.271 C97.471,4.014 92.970,1.999 88.000,1.999 C83.029,1.999 78.529,4.014 75.272,7.271 C72.015,10.528 70.000,15.028 70.000,19.999 C70.000,24.969 72.015,29.470 75.272,32.727 C78.529,35.984 83.029,37.999 88.000,37.999 C92.970,37.999 97.471,35.984 100.728,32.727 C103.985,29.470 106.000,24.969 106.000,19.999 C106.000,15.028 103.985,10.528 100.728,7.271 ZM91.999,15.999 C92.608,15.999 93.132,16.242 93.525,16.707 C93.919,17.171 94.072,17.727 93.972,18.328 L93.472,21.327 C93.310,22.300 92.485,22.999 91.499,22.999 L90.999,22.999 L90.999,28.999 C90.999,30.101 90.101,30.999 88.999,30.999 L85.999,30.999 C84.898,30.999 84.000,30.101 84.000,28.999 L84.000,22.999 L82.999,22.999 C81.898,22.999 81.000,22.100 81.000,20.999 L81.000,17.999 C81.000,16.897 81.898,15.999 82.999,15.999 L84.000,15.999 L84.000,14.999 C84.000,11.411 85.922,8.999 89.622,8.999 C90.471,8.999 91.431,9.027 92.274,9.145 C93.269,9.282 93.999,10.120 93.999,11.125 L93.999,13.987 C93.999,15.088 93.102,15.986 92.001,15.987 L90.999,15.987 L90.999,15.999 L91.999,15.999 ZM90.368,13.988 L91.999,13.987 L91.999,11.125 C91.717,11.086 90.749,10.999 89.622,10.999 C87.270,10.999 85.999,12.261 85.999,14.999 L85.999,17.999 L82.999,17.999 L82.999,20.999 L85.999,20.999 L85.999,28.999 L88.999,28.999 L88.999,20.999 L91.499,20.999 L91.999,17.999 L88.999,17.999 L88.999,15.499 C88.999,14.573 89.089,13.988 90.368,13.988 ZM29.722,24.522 C29.722,25.930 28.688,26.999 27.286,26.999 L25.077,26.999 C23.808,26.999 23.113,26.334 22.403,25.562 C21.857,26.639 20.558,26.999 19.216,26.999 C16.267,26.999 13.641,25.127 11.934,22.843 C10.708,21.203 8.500,17.634 8.500,15.476 C8.500,14.084 9.611,13.000 10.996,13.000 L12.965,13.000 C13.840,13.000 14.529,13.280 15.033,13.810 C15.472,13.308 16.129,13.000 16.858,13.000 L20.056,13.000 C21.236,13.000 22.014,13.591 22.349,14.508 C22.854,13.537 23.725,13.000 24.852,13.000 C25.508,13.000 26.164,13.000 26.821,13.000 C28.473,13.000 29.602,14.376 29.258,15.996 C29.029,17.076 27.888,18.909 27.039,20.178 C27.230,20.374 27.421,20.574 27.602,20.802 C28.518,21.770 29.722,23.142 29.722,24.522 ZM24.807,19.902 C24.807,19.902 27.076,16.623 27.302,15.581 C27.377,15.208 27.211,14.999 26.821,14.999 C26.821,14.999 25.513,14.999 24.852,14.999 C24.401,14.999 24.236,15.193 24.101,15.476 C24.101,15.476 23.036,17.829 21.741,19.246 C21.325,19.705 21.037,19.843 20.808,19.843 C20.623,19.843 20.537,19.690 20.537,19.276 L20.537,15.654 C20.537,15.148 20.477,14.999 20.056,14.999 L16.858,14.999 C16.618,14.999 16.467,15.138 16.467,15.327 C16.467,15.804 17.204,15.912 17.204,17.205 L17.204,19.872 C17.204,20.409 17.174,20.617 16.918,20.617 C16.242,20.617 14.753,18.308 13.851,15.685 C13.671,15.148 13.476,14.999 12.965,14.999 L10.996,14.999 C10.711,14.999 10.500,15.193 10.500,15.476 C10.500,15.997 11.116,18.412 13.536,21.646 C15.159,23.821 17.293,24.999 19.216,24.999 C20.389,24.999 20.674,24.805 20.674,24.314 L20.674,22.644 C20.674,22.227 20.840,22.048 21.080,22.048 C21.350,22.048 21.828,22.135 22.943,23.225 C24.266,24.477 24.356,24.999 25.077,24.999 L27.286,24.999 C27.512,24.999 27.722,24.895 27.722,24.522 C27.722,24.030 27.076,23.152 26.084,22.108 C25.678,21.571 25.017,20.990 24.807,20.722 C24.506,20.409 24.597,20.230 24.807,19.902 ZM25.558,80.751 C25.737,80.677 25.910,80.591 26.077,80.494 C26.808,80.067 27.682,80.133 28.341,80.663 C28.827,81.056 29.091,81.616 29.090,82.206 C29.618,82.896 29.647,83.817 29.155,84.542 C28.810,85.051 28.408,85.518 27.959,85.936 C27.670,91.634 22.965,95.999 17.218,95.999 C15.166,95.999 13.169,95.424 11.433,94.330 C10.634,93.826 10.300,92.864 10.614,91.974 C10.912,91.127 11.706,90.598 12.589,90.640 C12.468,90.405 12.364,90.157 12.280,89.899 C12.220,89.716 12.187,89.534 12.178,89.353 C11.502,88.495 11.102,87.417 11.102,86.257 C11.102,86.200 11.104,86.143 11.108,86.086 C11.125,85.822 11.189,85.576 11.293,85.353 C11.185,84.942 11.128,84.513 11.128,84.076 C11.128,83.181 11.367,82.307 11.822,81.536 C12.164,80.958 12.717,80.613 13.387,80.560 C14.056,80.507 14.656,80.761 15.085,81.279 C15.886,82.247 16.930,82.958 18.094,83.358 C18.792,81.394 20.686,79.999 22.885,79.999 C23.838,79.999 24.761,80.263 25.558,80.751 ZM19.807,85.028 C19.807,85.266 19.835,85.497 19.887,85.719 C17.330,85.592 15.062,84.387 13.544,82.554 C13.280,83.001 13.127,83.521 13.127,84.076 C13.127,85.127 13.670,86.055 14.497,86.598 C13.992,86.583 13.518,86.446 13.103,86.219 C13.102,86.232 13.102,86.244 13.102,86.257 C13.102,87.725 14.163,88.950 15.571,89.227 C15.313,89.297 15.041,89.334 14.760,89.334 C14.562,89.334 14.369,89.314 14.181,89.280 C14.573,90.483 15.709,91.359 17.056,91.383 C16.003,92.196 14.676,92.680 13.234,92.680 C12.986,92.680 12.741,92.666 12.500,92.638 C13.862,93.497 15.479,93.999 17.218,93.999 C22.878,93.999 25.973,89.383 25.973,85.380 C25.973,85.248 25.971,85.118 25.965,84.988 C26.565,84.561 27.088,84.027 27.500,83.420 C26.949,83.661 26.355,83.823 25.732,83.896 C26.368,83.521 26.856,82.928 27.086,82.221 C26.491,82.568 25.833,82.820 25.132,82.956 C24.570,82.367 23.770,81.999 22.885,81.999 C21.186,81.999 19.807,83.356 19.807,85.028 ZM82.948,81.298 C83.555,80.922 84.256,80.891 84.894,81.210 L94.894,86.210 C95.588,86.557 95.999,87.222 95.999,87.998 C95.999,88.775 95.588,89.440 94.894,89.787 L84.894,94.788 C84.256,95.107 83.554,95.075 82.948,94.700 C82.341,94.325 81.999,93.712 81.999,92.999 L81.999,82.998 C81.999,82.286 82.341,81.672 82.948,81.298 ZM83.999,92.999 L94.000,87.998 L83.999,82.998 L83.999,92.999 Z" class="smm"/></svg>