<svg xmlns="http://www.w3.org/2000/svg" xmlns:xlink="http://www.w3.org/1999/xlink" width="20" height="20" preserveAspectRatio="xMidYMid" viewBox="0 0 20 20"><path d="M10.898,0.543 L13.606,5.830 L19.212,6.898 C19.754,6.999 20.112,7.521 20.010,8.063 C19.975,8.253 19.888,8.419 19.767,8.551 L15.801,12.909 L16.573,18.891 C16.642,19.437 16.255,19.937 15.708,20.006 C15.503,20.032 15.305,19.993 15.133,19.907 L10.010,17.315 L4.886,19.907 C4.714,19.993 4.516,20.032 4.311,20.006 C3.764,19.937 3.377,19.437 3.446,18.891 L4.218,12.909 L0.252,8.551 C0.131,8.419 0.044,8.253 0.009,8.063 C-0.093,7.521 0.265,6.999 0.807,6.898 L6.413,5.830 L9.121,0.543 C9.291,0.209 9.636,-0.001 10.010,-0.001 C10.383,-0.001 10.728,0.209 10.898,0.543 L10.898,0.543 ZM10.010,15.197 C10.161,15.197 10.315,15.231 10.460,15.304 L14.351,17.274 L13.769,12.763 C13.713,12.466 13.792,12.145 14.012,11.904 L17.087,8.526 L12.757,7.701 C12.464,7.645 12.198,7.459 12.052,7.174 L10.010,3.185 L7.967,7.174 C7.821,7.459 7.555,7.645 7.263,7.701 L2.932,8.526 L6.007,11.904 C6.227,12.145 6.306,12.466 6.250,12.763 L5.668,17.274 L9.559,15.304 C9.704,15.231 9.858,15.197 10.010,15.197 Z" class="star"/></svg>