<svg xmlns="http://www.w3.org/2000/svg" xmlns:xlink="http://www.w3.org/1999/xlink" width="120" height="120" preserveAspectRatio="xMidYMid" viewBox="0 0 120 120"><path d="M80.180,37.060 L118.366,44.342 C119.097,44.481 119.654,44.968 119.889,45.673 C120.124,46.378 119.972,47.102 119.471,47.652 L92.596,77.203 L97.823,117.743 C97.920,118.496 97.615,119.193 96.994,119.632 C96.373,120.070 95.614,120.126 94.936,119.782 L59.997,102.083 L25.057,119.782 C24.379,120.126 23.620,120.070 22.999,119.632 C22.379,119.193 22.073,118.496 22.170,117.743 L27.398,77.203 L0.522,47.652 C0.022,47.102 -0.131,46.378 0.105,45.673 C0.340,44.968 0.896,44.481 1.627,44.342 L39.813,37.060 L58.216,1.088 C58.567,0.402 59.227,-0.002 59.997,-0.002 C60.767,-0.002 61.426,0.402 61.777,1.088 L80.180,37.060 L80.180,37.060 ZM59.997,1.998 L41.148,38.842 L2.001,46.306 L29.499,76.542 L24.153,117.998 L59.997,99.842 L95.840,117.998 L90.494,76.542 L117.992,46.306 L78.845,38.842 L59.997,1.998 Z" class="star-big"/></svg>