<svg xmlns="http://www.w3.org/2000/svg" xmlns:xlink="http://www.w3.org/1999/xlink" preserveAspectRatio="xMidYMid" width="60" height="60" viewBox="0 0 60 60">
  <path d="M30.000,59.999 C13.431,59.999 -0.000,46.568 -0.000,29.999 C-0.000,13.430 13.431,-0.001 30.000,-0.001 C46.568,-0.001 60.000,13.430 60.000,29.999 C60.000,46.568 46.568,59.999 30.000,59.999 ZM30.000,1.999 C14.536,1.999 2.000,14.535 2.000,29.999 C2.000,45.463 14.536,57.999 30.000,57.999 C45.464,57.999 58.000,45.463 58.000,29.999 C58.000,14.535 45.464,1.999 30.000,1.999 ZM36.543,37.997 L30.000,31.454 L23.457,37.997 L22.003,36.543 L28.546,30.000 L22.003,23.457 L23.457,22.003 L30.000,28.546 L36.543,22.003 L37.997,23.457 L31.454,30.000 L37.997,36.543 L36.543,37.997 Z" class="stop"/>
</svg>
