<svg xmlns="http://www.w3.org/2000/svg" xmlns:xlink="http://www.w3.org/1999/xlink" width="16" height="20" preserveAspectRatio="xMidYMid" viewBox="0 0 16 20"><path d="M14.944,19.739 C14.276,20.096 13.520,20.059 12.891,19.640 L8.000,16.382 L3.109,19.640 C2.479,20.059 1.723,20.096 1.056,19.739 C0.389,19.382 -0.000,18.734 -0.000,17.977 L-0.000,1.989 C-0.000,0.889 0.898,-0.009 2.000,-0.009 L14.000,-0.009 C15.102,-0.009 16.000,0.889 16.000,1.989 L16.000,17.977 C16.000,18.734 15.611,19.382 14.944,19.739 ZM14.000,15.962 L14.000,15.962 L14.000,13.480 L14.000,13.480 L14.000,10.966 L14.000,10.966 L14.000,8.484 L14.000,8.484 L14.000,1.989 L2.000,1.989 L2.000,8.484 L2.000,8.484 L2.000,10.966 L2.000,10.966 L2.000,13.480 L2.000,13.480 L2.000,15.962 L2.000,15.962 L2.000,17.977 L8.000,13.980 L14.000,17.977 L14.000,15.962 ZM4.000,14.436 L4.000,11.981 L8.000,8.984 L12.000,11.981 L12.000,14.436 L8.000,11.385 L4.000,14.436 ZM4.000,9.440 L4.000,7.000 L3.980,7.000 L8.000,3.988 L12.000,6.985 L12.000,9.440 L8.000,6.389 L4.000,9.440 Z" class="stripe2"/></svg>