<svg xmlns="http://www.w3.org/2000/svg" xmlns:xlink="http://www.w3.org/1999/xlink" preserveAspectRatio="xMidYMid" width="20" height="20" viewBox="0 0 20 20">
  <path d="M0.550,10.583 L10.556,0.577 C10.946,0.187 11.420,-0.009 11.971,-0.009 L17.976,-0.009 C19.078,-0.009 19.977,0.890 19.977,1.992 L19.977,7.996 C19.977,8.547 19.780,9.021 19.391,9.411 L9.384,19.418 C8.604,20.198 7.333,20.198 6.554,19.418 L0.550,13.414 C-0.230,12.634 -0.230,11.363 0.550,10.583 L0.550,10.583 ZM14.974,3.993 C14.421,3.993 13.973,4.441 13.973,4.994 C13.973,5.546 14.421,5.994 14.974,5.994 C15.526,5.994 15.974,5.546 15.974,4.994 C15.974,4.441 15.526,3.993 14.974,3.993 L14.974,3.993 ZM1.965,11.999 L7.969,18.003 L17.976,7.996 L17.976,1.992 L11.971,1.992 L1.965,11.999 Z" class="tag"/>
</svg>
