<svg xmlns="http://www.w3.org/2000/svg" xmlns:xlink="http://www.w3.org/1999/xlink" preserveAspectRatio="xMidYMid" width="30" height="28" viewBox="0 0 30 28">
  <defs>
    <style>
      .terminal-1 {
        fill: #e7eff1;
      }

      .terminal-2 {
        fill: #d6dada;
      }

      .terminal-3 {
        fill: #707377;
      }

      .terminal-3, .terminal-6, .terminal-7 {
        fill-rule: evenodd;
      }

      .terminal-4 {
        fill: #cde5e6;
      }

      .terminal-5 {
        fill: #89d0da;
      }

      .terminal-6 {
        fill: #32b0bc;
      }

      .terminal-7, .terminal-8 {
        fill: #31b0bc;
      }
    </style>
  </defs>
  <g>
    <rect width="30" height="11" rx="2" ry="2" class="terminal-1"/>
    <rect x="3" y="3" width="24" height="5" rx="2" ry="2" class="terminal-2"/>
    <path d="M5.500,4.000 L24.500,4.000 C25.328,4.000 26.000,4.672 26.000,5.500 C26.000,6.328 25.328,7.000 24.500,7.000 L5.500,7.000 C4.672,7.000 4.000,6.328 4.000,5.500 C4.000,4.672 4.672,4.000 5.500,4.000 Z" class="terminal-3"/>
    <g>
      <rect x="5" y="5" width="20" height="23" class="terminal-1"/>
      <rect x="5" y="5" width="20" height="13" class="terminal-4"/>
      <rect x="6" y="5" width="15" height="12" class="terminal-5"/>
      <path d="M21.000,5.500 L21.000,17.000 L17.000,17.000 L17.000,16.500 C16.448,16.500 16.000,16.052 16.000,15.500 L15.500,15.500 L14.000,15.500 C13.724,15.500 13.500,15.276 13.500,15.000 C13.500,14.724 13.724,14.500 14.000,14.500 L14.500,14.500 L14.500,14.000 L13.500,14.000 C12.948,14.000 12.500,13.552 12.500,13.000 L11.500,13.000 C11.131,13.000 10.812,12.798 10.639,12.500 L9.500,12.500 C9.224,12.500 9.000,12.276 9.000,12.000 C9.000,11.724 9.224,11.500 9.500,11.500 L10.639,11.500 C10.812,11.202 11.131,11.000 11.500,11.000 L12.500,11.000 C12.500,10.448 12.948,10.000 13.500,10.000 L14.000,10.000 C13.724,10.000 13.500,9.776 13.500,9.500 C13.500,9.224 13.724,9.000 14.000,9.000 L17.000,9.000 L17.000,8.500 C16.448,8.500 16.000,8.052 16.000,7.500 C16.000,6.948 16.448,6.500 17.000,6.500 L17.000,6.000 L11.500,6.000 C10.857,6.000 10.500,5.500 10.500,5.500 L10.500,5.000 L21.000,5.000 L21.000,5.500 L21.000,5.500 Z" class="terminal-6"/>
      <path d="M23.000,26.000 C22.448,26.000 22.000,25.552 22.000,25.000 L22.000,18.000 C22.000,17.448 22.448,17.000 23.000,17.000 C23.552,17.000 24.000,17.448 24.000,18.000 L24.000,25.000 C24.000,25.552 23.552,26.000 23.000,26.000 ZM23.000,16.000 C22.448,16.000 22.000,15.552 22.000,15.000 L22.000,8.000 C22.000,7.448 22.448,7.000 23.000,7.000 C23.552,7.000 24.000,7.448 24.000,8.000 L24.000,15.000 C24.000,15.552 23.552,16.000 23.000,16.000 Z" class="terminal-7"/>
      <ellipse cx="8" cy="22.5" rx="2" ry="3.5" class="terminal-8"/>
      <rect x="11" y="18" width="10" height="10" class="terminal-4"/>
    </g>
  </g>
</svg>
