<svg xmlns="http://www.w3.org/2000/svg" xmlns:xlink="http://www.w3.org/1999/xlink" width="20" height="16" preserveAspectRatio="xMidYMid" viewBox="0 0 20 16"><path d="M-0.000,14.000 L-0.000,2.000 C-0.000,0.895 0.895,-0.000 2.000,-0.000 L18.000,-0.000 C19.105,-0.000 20.000,0.895 20.000,2.000 L20.000,14.000 C20.000,15.105 19.105,16.000 18.000,16.000 L2.000,16.000 C0.895,16.000 -0.000,15.105 -0.000,14.000 ZM2.000,14.000 L6.000,14.000 L6.000,9.000 L2.000,9.000 L2.000,14.000 ZM2.000,7.000 L6.000,7.000 L6.000,2.000 L2.000,2.000 L2.000,7.000 ZM18.000,7.000 L18.000,2.000 L14.000,2.000 L14.000,7.000 L18.000,7.000 ZM12.000,2.000 L8.000,2.000 L8.000,7.000 L12.000,7.000 L12.000,2.000 ZM18.000,14.000 L18.000,9.000 L14.000,9.000 L14.000,14.000 L18.000,14.000 ZM12.000,9.000 L8.000,9.000 L8.000,14.000 L12.000,14.000 L12.000,9.000 Z" class="timetable"/></svg>