<svg xmlns="http://www.w3.org/2000/svg" xmlns:xlink="http://www.w3.org/1999/xlink" width="180" height="124" preserveAspectRatio="xMidYMid" viewBox="0 0 180 124"><path d="M180.000,73.999 L167.000,73.999 L167.000,73.999 L118.000,73.999 L118.000,73.999 L62.000,73.999 L62.000,73.999 L13.000,73.999 L13.000,73.999 L-0.000,73.999 L-0.000,71.999 L12.000,71.999 L12.000,40.999 C12.000,40.447 12.448,39.999 13.000,39.999 C13.552,39.999 14.000,40.447 14.000,40.999 L14.000,41.999 L28.000,41.999 L28.000,39.575 L27.548,39.846 C27.073,40.138 26.449,39.994 26.153,39.525 C25.858,39.056 26.004,38.439 26.478,38.148 L36.000,32.415 L37.000,31.999 L38.000,32.415 L47.521,38.148 C47.996,38.439 48.142,39.056 47.847,39.525 C47.551,39.994 46.927,40.138 46.452,39.846 L46.000,39.575 L46.000,41.999 L60.000,41.999 L60.000,24.999 C60.000,24.447 60.448,23.999 61.000,23.999 C61.552,23.999 62.000,24.447 62.000,24.999 L62.000,25.999 L76.000,25.999 L76.000,20.575 L75.548,20.846 C75.073,21.138 74.449,20.994 74.153,20.525 C73.858,20.056 74.004,19.440 74.478,19.148 L89.000,10.415 L89.000,4.999 L89.000,2.999 L89.000,0.999 C89.000,0.447 89.448,-0.001 90.000,-0.001 L97.000,-0.001 C97.552,-0.001 98.000,0.447 98.000,0.999 L98.000,4.999 C98.000,5.552 97.552,5.999 97.000,5.999 L91.000,5.999 L91.000,10.415 L105.521,19.148 C105.996,19.440 106.142,20.056 105.847,20.525 C105.551,20.994 104.927,21.138 104.452,20.846 L104.000,20.575 L104.000,25.999 L118.000,25.999 L118.000,24.999 C118.000,24.447 118.448,23.999 119.000,23.999 C119.552,23.999 120.000,24.447 120.000,24.999 L120.000,41.999 L134.000,41.999 L134.000,39.575 L133.548,39.846 C133.073,40.138 132.449,39.994 132.153,39.525 C131.858,39.056 132.003,38.439 132.478,38.148 L142.000,32.415 L143.000,31.999 L144.000,32.415 L153.522,38.148 C153.996,38.439 154.142,39.056 153.846,39.525 C153.551,39.994 152.927,40.138 152.452,39.846 L152.000,39.575 L152.000,41.999 L166.000,41.999 L166.000,40.999 C166.000,40.447 166.448,39.999 167.000,39.999 C167.552,39.999 168.000,40.447 168.000,40.999 L168.000,71.999 L180.000,71.999 L180.000,73.999 ZM28.000,43.999 L14.000,43.999 L14.000,71.999 L28.000,71.999 L28.000,43.999 ZM44.000,38.373 L37.000,34.163 L30.000,38.373 L30.000,71.999 L44.000,71.999 L44.000,38.373 ZM60.000,43.999 L46.000,43.999 L46.000,71.999 L60.000,71.999 L60.000,43.999 ZM76.000,27.999 L62.000,27.999 L62.000,41.999 L62.000,43.999 L62.000,71.999 L72.000,71.999 L72.000,68.999 C72.000,68.447 72.448,67.999 73.000,67.999 L76.000,67.999 L76.000,27.999 ZM96.000,3.999 L96.000,1.999 L91.000,1.999 L91.000,2.999 L91.000,3.999 L96.000,3.999 ZM102.000,19.373 L90.000,12.162 L78.000,19.373 L78.000,67.999 L82.000,67.999 L82.000,57.999 L81.000,57.999 C80.448,57.999 80.000,57.551 80.000,56.999 C80.000,56.447 80.448,55.999 81.000,55.999 L99.000,55.999 C99.552,55.999 100.000,56.447 100.000,56.999 C100.000,57.551 99.552,57.999 99.000,57.999 L98.000,57.999 L98.000,67.999 L102.000,67.999 L102.000,19.373 ZM84.000,57.999 L84.000,67.999 L89.000,67.999 L89.000,57.999 L84.000,57.999 ZM91.000,57.999 L91.000,67.999 L96.000,67.999 L96.000,57.999 L91.000,57.999 ZM74.000,69.999 L74.000,71.999 L106.000,71.999 L106.000,69.999 L74.000,69.999 ZM118.000,43.999 L118.000,41.999 L118.000,27.999 L104.000,27.999 L104.000,67.999 L107.000,67.999 C107.552,67.999 108.000,68.447 108.000,68.999 L108.000,71.999 L118.000,71.999 L118.000,43.999 ZM134.000,43.999 L120.000,43.999 L120.000,71.999 L134.000,71.999 L134.000,43.999 ZM150.000,38.373 L143.000,34.163 L136.000,38.373 L136.000,71.999 L150.000,71.999 L150.000,38.373 ZM166.000,43.999 L152.000,43.999 L152.000,71.999 L166.000,71.999 L166.000,43.999 ZM157.000,47.999 L161.000,47.999 C161.552,47.999 162.000,48.447 162.000,48.999 L162.000,55.000 C162.000,55.552 161.552,55.999 161.000,55.999 L157.000,55.999 C156.448,55.999 156.000,55.552 156.000,55.000 L156.000,48.999 C156.000,48.447 156.448,47.999 157.000,47.999 ZM158.000,53.999 L160.000,53.999 L160.000,49.999 L158.000,49.999 L158.000,53.999 ZM157.000,59.999 L161.000,59.999 C161.552,59.999 162.000,60.447 162.000,60.999 L162.000,66.999 C162.000,67.551 161.552,67.999 161.000,67.999 L157.000,67.999 C156.448,67.999 156.000,67.551 156.000,66.999 L156.000,60.999 C156.000,60.447 156.448,59.999 157.000,59.999 ZM158.000,65.999 L160.000,65.999 L160.000,61.999 L158.000,61.999 L158.000,65.999 ZM143.000,37.999 C144.657,37.999 146.000,39.342 146.000,40.999 C146.000,42.656 144.657,43.999 143.000,43.999 C141.343,43.999 140.000,42.656 140.000,40.999 C140.000,39.342 141.343,37.999 143.000,37.999 ZM143.000,41.999 C143.552,41.999 144.000,41.551 144.000,40.999 C144.000,40.447 143.552,39.999 143.000,39.999 C142.448,39.999 142.000,40.447 142.000,40.999 C142.000,41.551 142.448,41.999 143.000,41.999 ZM141.000,47.999 L145.000,47.999 C145.552,47.999 146.000,48.447 146.000,48.999 L146.000,55.000 C146.000,55.552 145.552,55.999 145.000,55.999 L141.000,55.999 C140.448,55.999 140.000,55.552 140.000,55.000 L140.000,48.999 C140.000,48.447 140.448,47.999 141.000,47.999 ZM142.000,53.999 L144.000,53.999 L144.000,49.999 L142.000,49.999 L142.000,53.999 ZM141.000,59.999 L145.000,59.999 C145.552,59.999 146.000,60.447 146.000,60.999 L146.000,66.999 C146.000,67.551 145.552,67.999 145.000,67.999 L141.000,67.999 C140.448,67.999 140.000,67.551 140.000,66.999 L140.000,60.999 C140.000,60.447 140.448,59.999 141.000,59.999 ZM142.000,65.999 L144.000,65.999 L144.000,61.999 L142.000,61.999 L142.000,65.999 ZM125.000,47.999 L129.000,47.999 C129.552,47.999 130.000,48.447 130.000,48.999 L130.000,55.000 C130.000,55.552 129.552,55.999 129.000,55.999 L125.000,55.999 C124.448,55.999 124.000,55.552 124.000,55.000 L124.000,48.999 C124.000,48.447 124.448,47.999 125.000,47.999 ZM126.000,53.999 L128.000,53.999 L128.000,49.999 L126.000,49.999 L126.000,53.999 ZM125.000,59.999 L129.000,59.999 C129.552,59.999 130.000,60.447 130.000,60.999 L130.000,66.999 C130.000,67.551 129.552,67.999 129.000,67.999 L125.000,67.999 C124.448,67.999 124.000,67.551 124.000,66.999 L124.000,60.999 C124.000,60.447 124.448,59.999 125.000,59.999 ZM126.000,65.999 L128.000,65.999 L128.000,61.999 L126.000,61.999 L126.000,65.999 ZM108.000,57.999 C108.000,57.447 108.448,56.999 109.000,56.999 L113.000,56.999 C113.552,56.999 114.000,57.447 114.000,57.999 L114.000,63.999 C114.000,64.552 113.552,64.999 113.000,64.999 L109.000,64.999 C108.448,64.999 108.000,64.552 108.000,63.999 L108.000,57.999 ZM110.000,62.999 L112.000,62.999 L112.000,59.000 L110.000,59.000 L110.000,62.999 ZM113.000,53.000 L109.000,53.000 C108.448,53.000 108.000,52.551 108.000,51.999 L108.000,45.999 C108.000,45.447 108.448,44.999 109.000,44.999 L113.000,44.999 C113.552,44.999 114.000,45.447 114.000,45.999 L114.000,51.999 C114.000,52.551 113.552,53.000 113.000,53.000 ZM112.000,46.999 L110.000,46.999 L110.000,50.999 L112.000,50.999 L112.000,46.999 ZM113.000,40.999 L109.000,40.999 C108.448,40.999 108.000,40.552 108.000,39.999 L108.000,33.999 C108.000,33.447 108.448,32.999 109.000,32.999 L113.000,32.999 C113.552,32.999 114.000,33.447 114.000,33.999 L114.000,39.999 C114.000,40.552 113.552,40.999 113.000,40.999 ZM112.000,34.999 L110.000,34.999 L110.000,38.999 L112.000,38.999 L112.000,34.999 ZM97.000,51.999 L93.000,51.999 C92.448,51.999 92.000,51.551 92.000,50.999 L92.000,44.999 C92.000,44.447 92.448,43.999 93.000,43.999 L97.000,43.999 C97.552,43.999 98.000,44.447 98.000,44.999 L98.000,50.999 C98.000,51.551 97.552,51.999 97.000,51.999 ZM96.000,45.999 L94.000,45.999 L94.000,49.999 L96.000,49.999 L96.000,45.999 ZM97.000,39.999 L93.000,39.999 C92.448,39.999 92.000,39.551 92.000,38.999 L92.000,32.999 C92.000,32.447 92.448,31.999 93.000,31.999 L97.000,31.999 C97.552,31.999 98.000,32.447 98.000,32.999 L98.000,38.999 C98.000,39.551 97.552,39.999 97.000,39.999 ZM96.000,33.999 L94.000,33.999 L94.000,37.999 L96.000,37.999 L96.000,33.999 ZM97.000,27.999 L93.000,27.999 C92.448,27.999 92.000,27.552 92.000,26.999 L92.000,21.000 C92.000,20.447 92.448,19.999 93.000,19.999 L97.000,19.999 C97.552,19.999 98.000,20.447 98.000,21.000 L98.000,26.999 C98.000,27.552 97.552,27.999 97.000,27.999 ZM96.000,21.999 L94.000,21.999 L94.000,25.999 L96.000,25.999 L96.000,21.999 ZM87.000,51.999 L83.000,51.999 C82.448,51.999 82.000,51.551 82.000,50.999 L82.000,44.999 C82.000,44.447 82.448,43.999 83.000,43.999 L87.000,43.999 C87.552,43.999 88.000,44.447 88.000,44.999 L88.000,50.999 C88.000,51.551 87.552,51.999 87.000,51.999 ZM86.000,45.999 L84.000,45.999 L84.000,49.999 L86.000,49.999 L86.000,45.999 ZM87.000,39.999 L83.000,39.999 C82.448,39.999 82.000,39.551 82.000,38.999 L82.000,32.999 C82.000,32.447 82.448,31.999 83.000,31.999 L87.000,31.999 C87.552,31.999 88.000,32.447 88.000,32.999 L88.000,38.999 C88.000,39.551 87.552,39.999 87.000,39.999 ZM86.000,33.999 L84.000,33.999 L84.000,37.999 L86.000,37.999 L86.000,33.999 ZM87.000,27.999 L83.000,27.999 C82.448,27.999 82.000,27.552 82.000,26.999 L82.000,21.000 C82.000,20.447 82.448,19.999 83.000,19.999 L87.000,19.999 C87.552,19.999 88.000,20.447 88.000,21.000 L88.000,26.999 C88.000,27.552 87.552,27.999 87.000,27.999 ZM86.000,21.999 L84.000,21.999 L84.000,25.999 L86.000,25.999 L86.000,21.999 ZM71.000,64.999 L67.000,64.999 C66.448,64.999 66.000,64.552 66.000,63.999 L66.000,57.999 C66.000,57.447 66.448,56.999 67.000,56.999 L71.000,56.999 C71.552,56.999 72.000,57.447 72.000,57.999 L72.000,63.999 C72.000,64.552 71.552,64.999 71.000,64.999 ZM70.000,59.000 L68.000,59.000 L68.000,62.999 L70.000,62.999 L70.000,59.000 ZM71.000,53.000 L67.000,53.000 C66.448,53.000 66.000,52.551 66.000,51.999 L66.000,45.999 C66.000,45.447 66.448,44.999 67.000,44.999 L71.000,44.999 C71.552,44.999 72.000,45.447 72.000,45.999 L72.000,51.999 C72.000,52.551 71.552,53.000 71.000,53.000 ZM70.000,46.999 L68.000,46.999 L68.000,50.999 L70.000,50.999 L70.000,46.999 ZM71.000,40.999 L67.000,40.999 C66.448,40.999 66.000,40.552 66.000,39.999 L66.000,33.999 C66.000,33.447 66.448,32.999 67.000,32.999 L71.000,32.999 C71.552,32.999 72.000,33.447 72.000,33.999 L72.000,39.999 C72.000,40.552 71.552,40.999 71.000,40.999 ZM70.000,34.999 L68.000,34.999 L68.000,38.999 L70.000,38.999 L70.000,34.999 ZM51.000,47.999 L55.000,47.999 C55.552,47.999 56.000,48.447 56.000,48.999 L56.000,55.000 C56.000,55.552 55.552,55.999 55.000,55.999 L51.000,55.999 C50.448,55.999 50.000,55.552 50.000,55.000 L50.000,48.999 C50.000,48.447 50.448,47.999 51.000,47.999 ZM52.000,53.999 L54.000,53.999 L54.000,49.999 L52.000,49.999 L52.000,53.999 ZM51.000,59.999 L55.000,59.999 C55.552,59.999 56.000,60.447 56.000,60.999 L56.000,66.999 C56.000,67.551 55.552,67.999 55.000,67.999 L51.000,67.999 C50.448,67.999 50.000,67.551 50.000,66.999 L50.000,60.999 C50.000,60.447 50.448,59.999 51.000,59.999 ZM52.000,65.999 L54.000,65.999 L54.000,61.999 L52.000,61.999 L52.000,65.999 ZM37.000,37.999 C38.657,37.999 40.000,39.342 40.000,40.999 C40.000,42.656 38.657,43.999 37.000,43.999 C35.343,43.999 34.000,42.656 34.000,40.999 C34.000,39.342 35.343,37.999 37.000,37.999 ZM37.000,41.999 C37.552,41.999 38.000,41.551 38.000,40.999 C38.000,40.447 37.552,39.999 37.000,39.999 C36.448,39.999 36.000,40.447 36.000,40.999 C36.000,41.551 36.448,41.999 37.000,41.999 ZM35.000,47.999 L39.000,47.999 C39.552,47.999 40.000,48.447 40.000,48.999 L40.000,55.000 C40.000,55.552 39.552,55.999 39.000,55.999 L35.000,55.999 C34.448,55.999 34.000,55.552 34.000,55.000 L34.000,48.999 C34.000,48.447 34.448,47.999 35.000,47.999 ZM36.000,53.999 L38.000,53.999 L38.000,49.999 L36.000,49.999 L36.000,53.999 ZM35.000,59.999 L39.000,59.999 C39.552,59.999 40.000,60.447 40.000,60.999 L40.000,66.999 C40.000,67.551 39.552,67.999 39.000,67.999 L35.000,67.999 C34.448,67.999 34.000,67.551 34.000,66.999 L34.000,60.999 C34.000,60.447 34.448,59.999 35.000,59.999 ZM36.000,65.999 L38.000,65.999 L38.000,61.999 L36.000,61.999 L36.000,65.999 ZM19.000,47.999 L23.000,47.999 C23.552,47.999 24.000,48.447 24.000,48.999 L24.000,55.000 C24.000,55.552 23.552,55.999 23.000,55.999 L19.000,55.999 C18.448,55.999 18.000,55.552 18.000,55.000 L18.000,48.999 C18.000,48.447 18.448,47.999 19.000,47.999 ZM20.000,53.999 L22.000,53.999 L22.000,49.999 L20.000,49.999 L20.000,53.999 ZM19.000,59.999 L23.000,59.999 C23.552,59.999 24.000,60.447 24.000,60.999 L24.000,66.999 C24.000,67.551 23.552,67.999 23.000,67.999 L19.000,67.999 C18.448,67.999 18.000,67.551 18.000,66.999 L18.000,60.999 C18.000,60.447 18.448,59.999 19.000,59.999 ZM20.000,65.999 L22.000,65.999 L22.000,61.999 L20.000,61.999 L20.000,65.999 ZM14.000,84.586 L15.707,86.292 C16.098,86.104 16.537,85.999 16.999,85.999 C17.825,85.999 18.574,86.334 19.117,86.877 L19.121,86.881 C19.664,87.424 19.999,88.173 19.999,88.999 C19.999,89.824 19.664,90.573 19.121,91.116 L19.121,91.120 C18.578,91.663 17.827,91.999 16.999,91.999 C16.171,91.999 15.421,91.663 14.878,91.120 C14.335,90.577 13.999,89.827 13.999,88.999 C13.999,88.536 14.104,88.097 14.292,87.705 L12.293,85.707 C12.098,85.512 12.000,85.256 12.000,85.000 L12.000,76.000 L14.000,76.000 L14.000,84.586 ZM16.292,89.706 C16.473,89.887 16.723,89.999 16.999,89.999 C17.276,89.999 17.526,89.887 17.707,89.706 L17.708,89.708 C17.888,89.527 17.999,89.277 17.999,88.999 C17.999,88.721 17.888,88.470 17.708,88.290 C17.528,88.110 17.277,87.999 16.999,87.999 C16.721,87.999 16.471,88.110 16.290,88.290 L16.292,88.291 C16.111,88.472 15.999,88.723 15.999,88.999 C15.999,89.275 16.111,89.525 16.292,89.706 ZM30.000,78.085 L33.695,81.781 C33.883,81.962 34.000,82.217 34.000,82.499 L34.000,86.171 C34.424,86.321 34.805,86.566 35.117,86.878 L35.121,86.878 C35.664,87.421 36.000,88.171 36.000,88.999 C36.000,89.827 35.664,90.577 35.121,91.120 C34.578,91.663 33.828,91.999 33.000,91.999 C32.172,91.999 31.422,91.663 30.878,91.120 L30.878,91.116 C30.336,90.574 30.000,89.825 30.000,88.999 C30.000,88.173 30.336,87.425 30.878,86.882 L30.882,86.878 C31.195,86.566 31.575,86.321 32.000,86.171 L32.000,82.913 L28.293,79.206 C28.098,79.011 28.000,78.755 28.000,78.499 L28.000,76.000 L30.000,76.000 L30.000,78.085 ZM32.291,89.708 L32.292,89.706 C32.473,89.887 32.723,89.999 33.000,89.999 C33.276,89.999 33.526,89.887 33.707,89.706 C33.888,89.526 34.000,89.276 34.000,88.999 C34.000,88.723 33.888,88.473 33.707,88.292 L33.709,88.290 C33.528,88.110 33.278,87.999 33.000,87.999 C32.722,87.999 32.471,88.110 32.291,88.290 C32.111,88.470 32.000,88.722 32.000,88.999 C32.000,89.277 32.111,89.528 32.291,89.708 ZM46.000,86.586 L51.707,92.292 C52.098,92.104 52.537,91.999 52.999,91.999 C53.825,91.999 54.574,92.335 55.117,92.877 L55.121,92.881 C55.663,93.424 55.999,94.173 55.999,94.999 C55.999,95.824 55.663,96.573 55.121,97.116 L55.121,97.120 C54.578,97.663 53.827,97.999 52.999,97.999 C52.171,97.999 51.421,97.663 50.878,97.120 C50.335,96.577 49.999,95.827 49.999,94.999 C49.999,94.536 50.104,94.098 50.292,93.705 L44.293,87.707 C44.098,87.512 44.000,87.256 44.000,87.000 L44.000,76.000 L46.000,76.000 L46.000,86.586 ZM52.292,95.706 C52.473,95.887 52.723,95.999 52.999,95.999 C53.276,95.999 53.526,95.887 53.707,95.706 L53.708,95.707 C53.888,95.527 53.999,95.277 53.999,94.999 C53.999,94.721 53.888,94.470 53.708,94.290 C53.528,94.110 53.277,93.999 52.999,93.999 C52.721,93.999 52.471,94.110 52.290,94.290 L52.292,94.291 C52.111,94.472 51.999,94.723 51.999,94.999 C51.999,95.275 52.111,95.525 52.292,95.706 ZM62.000,86.085 L69.695,93.781 C69.883,93.962 70.000,94.217 70.000,94.499 L70.000,102.171 C70.424,102.321 70.805,102.565 71.117,102.878 L71.121,102.878 C71.664,103.421 72.000,104.171 72.000,104.999 C72.000,105.828 71.664,106.578 71.121,107.120 C70.578,107.663 69.828,108.000 69.000,108.000 C68.172,108.000 67.422,107.663 66.878,107.120 L66.878,107.116 C66.336,106.573 66.000,105.825 66.000,104.999 C66.000,104.174 66.336,103.425 66.878,102.882 L66.882,102.878 C67.195,102.565 67.575,102.321 68.000,102.171 L68.000,94.913 L60.293,87.207 C60.098,87.011 60.000,86.755 60.000,86.499 L60.000,76.000 L62.000,76.000 L62.000,86.085 ZM68.291,105.708 L68.292,105.706 C68.473,105.887 68.723,105.999 69.000,105.999 C69.276,105.999 69.526,105.887 69.707,105.706 C69.888,105.526 70.000,105.275 70.000,104.999 C70.000,104.723 69.888,104.473 69.707,104.292 L69.709,104.290 C69.528,104.111 69.278,103.999 69.000,103.999 C68.722,103.999 68.471,104.111 68.291,104.290 C68.111,104.471 68.000,104.721 68.000,104.999 C68.000,105.277 68.111,105.528 68.291,105.708 ZM78.000,86.085 L83.695,91.781 C83.883,91.963 84.000,92.217 84.000,92.499 L84.000,118.171 C84.424,118.322 84.805,118.566 85.117,118.878 L85.121,118.878 C85.664,119.421 86.000,120.171 86.000,120.999 C86.000,121.828 85.664,122.577 85.121,123.120 C84.578,123.663 83.828,123.999 83.000,123.999 C82.172,123.999 81.421,123.663 80.878,123.120 L80.878,123.117 C80.336,122.574 80.000,121.824 80.000,120.999 C80.000,120.173 80.336,119.425 80.878,118.882 L80.882,118.878 C81.195,118.566 81.575,118.322 82.000,118.171 L82.000,92.913 L76.293,87.207 C76.098,87.011 76.000,86.755 76.000,86.499 L76.000,76.000 L78.000,76.000 L78.000,86.085 ZM82.291,121.708 L82.292,121.706 C82.473,121.887 82.723,121.999 83.000,121.999 C83.276,121.999 83.526,121.887 83.707,121.706 C83.888,121.526 84.000,121.275 84.000,120.999 C84.000,120.723 83.888,120.473 83.707,120.292 L83.709,120.290 C83.528,120.110 83.278,119.999 83.000,119.999 C82.722,119.999 82.471,120.110 82.291,120.290 C82.111,120.471 82.000,120.721 82.000,120.999 C82.000,121.277 82.111,121.528 82.291,121.708 ZM94.883,112.878 C95.195,112.565 95.576,112.321 96.000,112.170 L96.000,92.499 C96.000,92.217 96.117,91.963 96.305,91.781 L102.000,86.085 L102.000,76.000 L104.000,76.000 L104.000,86.499 C104.000,86.755 103.902,87.011 103.707,87.207 L98.000,92.913 L98.000,112.170 C98.424,112.321 98.805,112.565 99.118,112.878 L99.121,112.881 C99.664,113.424 100.000,114.173 100.000,114.999 C100.000,115.825 99.664,116.573 99.121,117.116 L99.121,117.120 C98.578,117.663 97.828,117.999 97.000,117.999 C96.172,117.999 95.422,117.663 94.879,117.120 C94.336,116.577 94.000,115.827 94.000,114.999 C94.000,114.170 94.336,113.420 94.879,112.878 L94.883,112.878 ZM96.293,115.706 C96.474,115.887 96.724,115.999 97.000,115.999 C97.276,115.999 97.527,115.887 97.707,115.706 L97.709,115.708 C97.889,115.527 98.000,115.277 98.000,114.999 C98.000,114.721 97.889,114.470 97.709,114.289 C97.529,114.110 97.278,113.999 97.000,113.999 C96.722,113.999 96.472,114.110 96.291,114.289 L96.293,114.292 C96.112,114.472 96.000,114.722 96.000,114.999 C96.000,115.275 96.112,115.525 96.293,115.706 ZM108.883,102.878 C109.426,102.334 110.175,101.999 111.001,101.999 C111.463,101.999 111.902,102.104 112.293,102.292 L118.000,96.586 L118.000,76.000 L120.000,76.000 L120.000,96.999 C120.000,97.256 119.902,97.512 119.707,97.707 L113.708,103.706 C113.896,104.097 114.001,104.536 114.001,104.999 C114.001,105.827 113.665,106.577 113.122,107.120 C112.579,107.663 111.829,107.999 111.001,107.999 C110.173,107.999 109.422,107.663 108.879,107.120 L108.879,107.116 C108.336,106.573 108.000,105.824 108.000,104.999 C108.000,104.173 108.336,103.424 108.879,102.881 L108.883,102.878 ZM110.291,105.708 L110.293,105.706 C110.474,105.887 110.724,105.999 111.001,105.999 C111.277,105.999 111.527,105.887 111.708,105.706 C111.888,105.525 112.000,105.275 112.000,104.999 C112.000,104.722 111.888,104.472 111.708,104.291 L111.710,104.290 C111.529,104.110 111.278,103.998 111.001,103.998 C110.723,103.998 110.472,104.110 110.291,104.290 C110.112,104.470 110.001,104.721 110.001,104.999 C110.001,105.277 110.112,105.527 110.291,105.708 ZM126.883,92.878 C127.195,92.566 127.576,92.321 128.000,92.171 L128.000,88.499 C128.000,88.217 128.117,87.963 128.305,87.781 L134.000,82.085 L134.000,76.000 L136.000,76.000 L136.000,82.499 C136.000,82.755 135.902,83.011 135.707,83.206 L130.000,88.913 L130.000,92.171 C130.424,92.321 130.805,92.566 131.118,92.878 L131.121,92.882 C131.664,93.425 132.000,94.173 132.000,94.999 C132.000,95.825 131.664,96.574 131.121,97.116 L131.121,97.120 C130.578,97.663 129.828,97.999 129.000,97.999 C128.172,97.999 127.422,97.663 126.879,97.120 C126.336,96.577 126.000,95.827 126.000,94.999 C126.000,94.171 126.336,93.421 126.879,92.878 L126.883,92.878 ZM128.293,95.706 C128.474,95.887 128.724,95.999 129.000,95.999 C129.276,95.999 129.527,95.887 129.707,95.706 L129.709,95.708 C129.889,95.528 130.000,95.277 130.000,94.999 C130.000,94.721 129.889,94.471 129.709,94.290 C129.529,94.110 129.278,93.999 129.000,93.999 C128.722,93.999 128.472,94.110 128.291,94.290 L128.293,94.292 C128.112,94.473 128.000,94.723 128.000,94.999 C128.000,95.275 128.112,95.526 128.293,95.706 ZM142.883,86.877 C143.426,86.334 144.175,85.999 145.000,85.999 C145.463,85.999 145.902,86.104 146.293,86.292 L150.000,82.586 L150.000,76.000 L152.000,76.000 L152.000,83.000 C152.000,83.256 151.902,83.512 151.707,83.707 L147.708,87.705 C147.895,88.097 148.001,88.536 148.001,88.999 C148.001,89.827 147.665,90.577 147.122,91.120 C146.579,91.663 145.829,91.999 145.000,91.999 C144.172,91.999 143.422,91.663 142.879,91.120 L142.879,91.116 C142.336,90.573 142.000,89.824 142.000,88.999 C142.000,88.173 142.336,87.424 142.879,86.881 L142.883,86.877 ZM144.291,89.708 L144.293,89.706 C144.474,89.887 144.724,89.999 145.000,89.999 C145.277,89.999 145.527,89.887 145.708,89.706 C145.889,89.525 146.000,89.275 146.000,88.999 C146.000,88.723 145.889,88.472 145.708,88.291 L145.710,88.290 C145.529,88.110 145.278,87.999 145.000,87.999 C144.723,87.999 144.472,88.110 144.291,88.290 C144.112,88.470 144.001,88.721 144.001,88.999 C144.001,89.277 144.112,89.527 144.291,89.708 ZM160.883,86.877 C161.426,86.334 162.175,85.999 163.001,85.999 C163.463,85.999 163.902,86.104 164.293,86.292 L166.000,84.586 L166.000,76.000 L168.000,76.000 L168.000,85.000 C168.000,85.256 167.902,85.512 167.707,85.707 L165.708,87.705 C165.896,88.097 166.001,88.536 166.001,88.999 C166.001,89.827 165.665,90.577 165.122,91.120 C164.579,91.663 163.829,91.999 163.001,91.999 C162.173,91.999 161.422,91.663 160.879,91.120 L160.879,91.116 C160.336,90.573 160.000,89.824 160.000,88.999 C160.000,88.173 160.336,87.424 160.879,86.881 L160.883,86.877 ZM162.291,89.708 L162.293,89.706 C162.474,89.887 162.724,89.999 163.001,89.999 C163.277,89.999 163.527,89.887 163.708,89.706 C163.889,89.525 164.001,89.275 164.001,88.999 C164.001,88.723 163.889,88.472 163.708,88.291 L163.710,88.290 C163.529,88.110 163.278,87.999 163.001,87.999 C162.723,87.999 162.472,88.110 162.291,88.290 C162.112,88.470 162.001,88.721 162.001,88.999 C162.001,89.277 162.112,89.527 162.291,89.708 Z" class="university"/></svg>