<svg xmlns="http://www.w3.org/2000/svg" xmlns:xlink="http://www.w3.org/1999/xlink" preserveAspectRatio="xMidYMid" width="18" height="18" viewBox="0 0 18 18">
  <path d="M8.998,-0.000 C12.316,-0.000 15.005,2.686 15.005,6.000 C15.005,7.908 14.113,9.608 12.724,10.707 C14.800,11.525 16.576,13.019 17.731,14.999 C18.101,15.635 18.102,16.363 17.732,16.999 C17.361,17.636 16.726,18.000 15.985,18.000 L2.010,18.000 C1.270,18.000 0.634,17.636 0.264,16.999 C-0.106,16.363 -0.106,15.635 0.265,14.999 C1.420,13.019 3.195,11.525 5.272,10.707 C3.882,9.608 2.990,7.908 2.990,6.000 C2.990,2.686 5.680,-0.000 8.998,-0.000 L8.998,-0.000 ZM8.998,12.000 C6.012,12.000 3.405,13.609 2.010,16.000 L15.985,16.000 C14.590,13.609 11.984,12.000 8.998,12.000 L8.998,12.000 ZM8.998,2.000 C6.786,2.000 4.993,3.791 4.993,6.000 C4.993,8.209 6.786,10.000 8.998,10.000 C11.210,10.000 13.003,8.209 13.003,6.000 C13.003,3.791 11.210,2.000 8.998,2.000 Z" class="user"/>
</svg>
