<svg xmlns="http://www.w3.org/2000/svg" xmlns:xlink="http://www.w3.org/1999/xlink" preserveAspectRatio="xMidYMid" width="18" height="18" viewBox="0 0 18 18">
  <path d="M2.000,18.000 L16.000,18.000 C17.100,18.000 18.000,17.100 18.000,16.000 L18.000,13.002 L18.000,11.002 L18.000,7.000 L18.000,5.000 L18.000,2.000 C18.000,0.900 17.100,-0.000 16.000,-0.000 L2.000,-0.000 C0.900,-0.000 -0.000,0.900 -0.000,2.000 L-0.000,16.000 C-0.000,17.100 0.900,18.000 2.000,18.000 L2.000,18.000 ZM14.000,8.000 C14.552,8.000 15.000,8.448 15.000,9.000 C15.000,9.552 14.552,10.000 14.000,10.000 C13.447,10.000 13.000,9.552 13.000,9.000 C13.000,8.448 13.447,8.000 14.000,8.000 L14.000,8.000 ZM12.000,13.002 L16.000,13.002 L16.000,16.000 L2.000,16.000 L2.000,2.000 L16.000,2.000 L16.000,5.000 L12.000,5.000 C10.902,5.000 10.000,5.902 10.000,7.000 L10.000,11.002 C10.000,12.100 10.900,13.002 12.000,13.002 L12.000,13.002 ZM16.000,11.002 L12.000,11.002 L12.000,7.000 L16.000,7.000 L16.000,11.002 Z" class="wallet"/>
</svg>
