<svg xmlns="http://www.w3.org/2000/svg" xmlns:xlink="http://www.w3.org/1999/xlink" width="16" height="20" preserveAspectRatio="xMidYMid" viewBox="0 0 16 20"><path fill-rule="evenodd" d="M8.000,2.000 C11.314,2.000 14.000,4.686 14.000,8.000 C14.000,11.314 11.314,14.000 8.000,14.000 C4.686,14.000 2.000,11.314 2.000,8.000 C2.000,4.686 4.686,2.000 8.000,2.000 L8.000,2.000 ZM8.000,4.000 C5.791,4.000 4.000,5.791 4.000,8.000 C4.000,10.209 5.791,12.000 8.000,12.000 C10.209,12.000 12.000,10.209 12.000,8.000 C12.000,5.791 10.209,4.000 8.000,4.000 L8.000,4.000 ZM8.000,6.000 C6.896,6.000 6.000,6.895 6.000,8.000 C6.000,9.104 6.896,10.000 8.000,10.000 C9.104,10.000 10.000,9.104 10.000,8.000 C10.000,6.895 9.104,6.000 8.000,6.000 L8.000,6.000 ZM13.000,18.000 L9.000,18.000 L9.000,15.938 C12.946,15.446 16.000,12.079 16.000,8.000 C16.000,3.582 12.418,-0.000 8.000,-0.000 C3.582,-0.000 -0.000,3.582 -0.000,8.000 C-0.000,12.080 3.054,15.446 7.000,15.938 L7.000,18.000 L3.000,18.000 L3.000,20.000 L7.000,20.000 L9.000,20.000 L13.000,20.000 L13.000,18.000 Z" class="webcam"/></svg>