<svg xmlns="http://www.w3.org/2000/svg" xmlns:xlink="http://www.w3.org/1999/xlink" width="25" height="25" preserveAspectRatio="xMidYMid" viewBox="0 0 25 25"><defs><style>.webmoney{fill:#006cb9;fill-rule:evenodd}</style></defs><path d="M23.518,14.472 L22.185,12.986 L23.666,11.647 L24.999,13.134 L23.518,14.472 ZM20.292,8.570 L21.772,7.232 L23.106,8.718 L21.625,10.056 L20.292,8.570 ZM18.400,4.154 L19.881,2.816 L21.214,4.302 L19.733,5.640 L18.400,4.154 ZM15.815,0.919 L12.908,3.522 L11.181,1.631 L5.765,6.530 L9.237,10.371 L7.873,11.575 L11.293,15.421 L9.936,16.623 L14.823,22.082 L17.724,19.402 L20.232,22.274 C19.733,22.663 19.189,23.030 18.591,23.368 C16.777,24.406 14.681,25.000 12.451,25.000 C5.591,25.000 -0.003,19.384 -0.003,12.500 C-0.003,5.615 5.591,-0.000 12.451,-0.000 C14.406,-0.000 16.258,0.457 17.908,1.268 C18.167,1.391 18.425,1.527 18.684,1.677 L17.538,2.707 L15.815,0.919 ZM19.444,16.617 L17.443,14.387 L19.665,12.380 L21.665,14.610 L19.444,16.617 ZM19.765,9.898 L17.544,11.905 L15.544,9.677 L17.765,7.669 L19.765,9.898 ZM17.717,5.416 L15.496,7.424 L13.496,5.193 L15.718,3.187 L17.717,5.416 ZM11.023,3.958 L13.690,6.930 L10.728,9.606 L8.062,6.634 L11.023,3.958 ZM17.916,17.143 L14.954,19.820 L12.287,16.846 L15.249,14.170 L17.916,17.143 ZM13.143,9.033 L15.809,12.006 L12.848,14.682 L10.181,11.710 L13.143,9.033 ZM21.618,16.883 L23.618,19.112 L21.397,21.119 L19.397,18.890 L21.618,16.883 Z" class="webmoney"/></svg>