<svg xmlns="http://www.w3.org/2000/svg" xmlns:xlink="http://www.w3.org/1999/xlink" width="23" height="30" preserveAspectRatio="xMidYMid" viewBox="0 0 23 30"><defs><style>.yandex-money-1{fill:#ffcd00}.yandex-money-1,.yandex-money-2,.yandex-money-3{fill-rule:evenodd}.yandex-money-2{fill:#e5ad00}.yandex-money-3{fill:#010101}</style></defs><g><path d="M0.000,14.887 C0.000,13.202 0.143,12.132 3.657,9.527 C6.567,7.370 15.894,-0.000 15.894,-0.000 L15.894,12.304 L22.987,12.304 L22.987,30.012 L2.216,30.012 C0.997,30.012 -0.000,29.021 -0.000,27.811 L0.000,14.887 Z" class="yandex-money-1"/><path d="M15.894,12.304 L15.894,19.433 L2.860,28.249 L19.340,22.926 L19.340,12.304 L15.894,12.304 Z" class="yandex-money-2"/><path d="M9.938,11.935 C10.700,11.033 11.814,10.715 12.425,11.224 C13.036,11.733 12.914,12.877 12.152,13.779 C11.390,14.681 10.276,14.999 9.665,14.490 C9.054,13.980 9.176,12.837 9.938,11.935" class="yandex-money-3"/></g></svg>