<svg xmlns="http://www.w3.org/2000/svg" preserveAspectRatio="xMidYMid" width="22" height="22" viewBox="0 0 22 22"><path d="M21.93 15.537c-.053 1.17-.239 1.97-.511 2.669a5.392 5.392 0 0 1-1.268 1.948 5.392 5.392 0 0 1-1.948 1.268c-.699.272-1.499.458-2.669.511-1.173.054-1.548.067-4.534.067-2.987 0-3.361-.013-4.534-.067-1.171-.053-1.97-.239-2.67-.511a5.389 5.389 0 0 1-1.947-1.268A5.382 5.382 0 0 1 .58 18.206c-.272-.699-.458-1.499-.511-2.669-.054-1.173-.066-1.548-.066-4.534 0-2.987.012-3.361.066-4.534.053-1.171.239-1.97.511-2.67a5.379 5.379 0 0 1 1.269-1.947A5.379 5.379 0 0 1 3.796.583c.7-.272 1.499-.458 2.67-.511C7.639.018 8.013.006 11 .006c2.986 0 3.361.012 4.534.066 1.17.053 1.97.239 2.669.511a5.382 5.382 0 0 1 1.948 1.269 5.389 5.389 0 0 1 1.268 1.947c.272.7.458 1.499.511 2.67.054 1.173.067 1.547.067 4.534 0 2.986-.013 3.361-.067 4.534zm-1.979-8.978c-.049-1.072-.228-1.654-.379-2.042a3.392 3.392 0 0 0-.822-1.264 3.398 3.398 0 0 0-1.265-.823c-.387-.151-.969-.33-2.042-.379-1.159-.053-1.507-.064-4.443-.064-2.937 0-3.284.011-4.444.064-1.072.049-1.655.228-2.042.379-.513.199-.88.438-1.264.823a3.406 3.406 0 0 0-.823 1.264c-.151.388-.33.97-.379 2.042-.053 1.16-.064 1.507-.064 4.444 0 2.936.011 3.284.064 4.444.049 1.072.228 1.654.379 2.041.2.514.438.88.823 1.265.384.384.751.623 1.264.822.387.151.97.33 2.042.379 1.159.053 1.507.064 4.444.064 2.936 0 3.284-.011 4.443-.064 1.073-.049 1.655-.228 2.042-.379.514-.199.88-.438 1.265-.822.385-.385.623-.751.822-1.265.151-.387.33-.969.379-2.041.053-1.16.064-1.508.064-4.444 0-2.937-.011-3.284-.064-4.444zm-3.081-.107a1.32 1.32 0 1 1 0-2.64 1.32 1.32 0 0 1 0 2.64zM11 16.65a5.647 5.647 0 1 1 0-11.293 5.647 5.647 0 0 1 0 11.293zm0-9.313a3.666 3.666 0 1 0 0 7.331 3.666 3.666 0 0 0 0-7.331z" class="instagram"/></svg>