<svg xmlns="http://www.w3.org/2000/svg" preserveAspectRatio="xMidYMid" width="20" height="16" viewBox="0 0 20 16"><defs><style>.twitter{fill:#fff;fill-rule:evenodd}</style></defs><path d="M20 1.893a8.297 8.297 0 0 1-2.357.637A4.064 4.064 0 0 0 19.447.295a8.292 8.292 0 0 1-2.605.98A4.13 4.13 0 0 0 13.846 0C11.58 0 9.743 1.808 9.743 4.039c0 .316.036.625.107.92A11.709 11.709 0 0 1 1.392.739 3.974 3.974 0 0 0 .837 2.77c0 1.401.724 2.637 1.825 3.362a4.131 4.131 0 0 1-1.859-.506v.051c0 1.957 1.414 3.59 3.291 3.961a4.175 4.175 0 0 1-1.853.069c.523 1.605 2.038 2.772 3.834 2.805a8.315 8.315 0 0 1-5.097 1.729c-.331 0-.657-.019-.978-.056A11.747 11.747 0 0 0 6.29 16c7.547 0 11.674-6.155 11.674-11.493 0-.175-.004-.349-.012-.522A8.26 8.26 0 0 0 20 1.893z" class="twitter"/></svg>