<svg xmlns="http://www.w3.org/2000/svg" preserveAspectRatio="xMidYMid" width="21" height="12" viewBox="0 0 21 12"><defs><style>.vk{fill:#fff;fill-rule:evenodd}</style></defs><path d="M17.452 5.883s2.769-3.815 3.044-5.069c.092-.448-.11-.699-.587-.699h-2.402c-.551 0-.752.233-.917.574 0 0-1.3 2.703-2.88 4.406-.508.551-.766.717-1.046.717-.226 0-.33-.184-.33-.681V.778c0-.609-.073-.788-.587-.788H7.895c-.293 0-.477.167-.477.394 0 .574.899.703.899 2.257v3.206c0 .645-.037.896-.348.896-.826 0-2.789-2.776-3.889-5.929C3.86.169 3.621-.01 2.998-.01H.595c-.349 0-.606.233-.606.573 0 .627.752 3.529 3.706 7.416 1.981 2.615 4.585 4.03 6.933 4.03 1.431 0 1.779-.233 1.779-.824V9.179c0-.501.202-.716.496-.716.33 0 .913.103 2.274 1.415 1.614 1.504 1.724 2.131 2.605 2.131h2.696c.275 0 .532-.125.532-.573 0-.591-.789-1.648-1.999-2.902-.496-.645-1.303-1.343-1.559-1.666-.367-.376-.257-.591 0-.985z" class="vk"/></svg>