<svg xmlns="http://www.w3.org/2000/svg" preserveAspectRatio="xMidYMid" width="20" height="14" viewBox="0 0 20 14"><defs><style>.youtube{fill:#fff;fill-rule:evenodd}</style></defs><path d="M19.8 10.979s-.195 1.372-.795 1.976c-.761.793-1.613.797-2.004.843-2.799.202-6.997.202-6.997.202h-.009s-4.198 0-6.997-.202c-.391-.046-1.243-.05-2.004-.843C.395 12.351.2 10.979.2 10.979S0 9.369 0 7.758V6.241C0 4.631.2 3.02.2 3.02s.195-1.372.794-1.976C1.755.251 2.607.247 2.998.201 5.797 0 9.995 0 9.995 0h.009s4.198 0 6.997.201c.391.046 1.243.05 2.004.843.6.604.795 1.976.795 1.976s.2 1.611.2 3.221v1.517c0 1.611-.2 3.221-.2 3.221zM7.934 3.989v6.022L13.333 7 7.934 3.989z" class="youtube"/></svg>