<svg xmlns="http://www.w3.org/2000/svg" xmlns:xlink="http://www.w3.org/1999/xlink" preserveAspectRatio="xMidYMid" width="20" height="18" viewBox="0 0 20 18">
  <path d="M19.692,17.004 C19.324,17.638 18.697,18.000 17.965,18.000 L1.997,18.000 C1.266,18.000 0.639,17.638 0.271,17.004 C-0.096,16.370 -0.098,15.644 0.265,15.008 L8.249,1.008 C8.614,0.367 9.245,-0.000 9.982,-0.000 C10.718,-0.000 11.349,0.367 11.714,1.008 L19.698,15.008 C20.061,15.644 20.058,16.370 19.692,17.004 ZM9.982,2.000 L1.997,16.000 L17.965,16.000 L9.982,2.000 ZM11.062,7.000 L11.062,11.000 L9.062,11.000 L9.062,7.000 L11.062,7.000 ZM11.062,14.000 L9.062,14.000 L9.062,12.000 L11.062,12.000 L11.062,14.000 Z" class="attention"/>
</svg>
