<svg xmlns="http://www.w3.org/2000/svg" xmlns:xlink="http://www.w3.org/1999/xlink" preserveAspectRatio="xMidYMid" width="14" height="20" viewBox="0 0 14 20">
  <path d="M12.000,20.000 L2.000,20.000 C0.900,20.000 -0.000,19.100 -0.000,18.000 L-0.000,2.000 C-0.000,0.900 0.900,-0.000 2.000,-0.000 L12.000,-0.000 C13.100,-0.000 14.000,0.900 14.000,2.000 L14.000,18.000 C14.000,19.100 13.100,20.000 12.000,20.000 ZM12.000,2.000 L2.000,2.000 L2.000,18.000 L12.000,18.000 L12.000,2.000 ZM7.000,14.000 C7.552,14.000 8.000,14.448 8.000,15.000 C8.000,15.552 7.552,16.000 7.000,16.000 C6.448,16.000 6.000,15.552 6.000,15.000 C6.000,14.448 6.448,14.000 7.000,14.000 Z" class="cls-1"/>
</svg>
