<svg xmlns="http://www.w3.org/2000/svg" preserveAspectRatio="xMidYMid" width="100" height="120" viewBox="0 0 100 120"><path d="M100 107.999v2H24v8.998a1 1 0 0 1-1.555.832L17 116.199l-5.445 3.63a1 1 0 0 1-1.555-.832v-8.998c-5.523 0-10-5.372-10-11.999 0-6.628 4.477-12.001 10-12.001h56v2H10c-4.418 0-8 4.477-8 10.001 0 5.522 3.582 9.999 8 9.999v-7.002a1 1 0 0 1 1-1h12a1 1 0 0 1 1 1v7.002h70v-4H78v-2h16V98h-8v-2.001h8v-8H80v-2h20v2h-4v20h4zm-78-6.002H12v15.131l4.429-2.952a1 1 0 0 1 1.125-.011L22 117.128v-15.131zm58-17.998v6.998a1.001 1.001 0 0 1-1.555.832L73 88.199l-5.445 3.63A1 1 0 0 1 66 90.997v-6.998H10v-2h4V62h-4v-2.001h70c5.523 0 10 5.373 10 12.001 0 6.627-4.477 11.999-10 11.999zm-12 5.129l4.445-2.963a1 1 0 0 1 1.126.011L78 89.128V73.997H68v15.131zM80 62H16v4h8v2h-8v7.999h16V78H16v3.999h50v-9.002c0-.552.448-1.001 1-1.001h12c.552 0 1 .449 1 1.001v9.002c4.418 0 8-4.477 8-9.999 0-5.524-3.582-10-8-10zM20 47.999C20 42.477 23.134 38 27 38h53v2h-4v15.999h4v2H27c-3.866 0-7-4.477-7-10zM74 52H62v-2h12v-4h-8v-2h8v-4H27c-2.762 0-5 3.581-5 7.999 0 4.419 2.238 8 5 8h47V52zM54.333 35.999c-1.47 0-3.042-.521-4.333-1.376-1.291.855-2.864 1.376-4.334 1.376-2.596 0-5.354-2.48-6.871-4.384A17.36 17.36 0 0 1 35 20.799c0-3.061.752-6.204 2.958-8.443 1.293-1.312 3.229-2.357 5.109-2.357 2.371 0 5.083.864 6.933 2.533 1.85-1.669 4.562-2.533 6.933-2.533 1.879 0 3.816 1.045 5.109 2.357C64.247 14.595 65 17.738 65 20.799c0 4.159-1.058 8.374-3.858 11.552-1.621 1.839-4.262 3.648-6.809 3.648zm2.6-24c-2.6 0-6.066 1.36-6.933 4-.867-2.64-4.334-4-6.933-4-1.734 0-6.067 1.76-6.067 8.8 0 7.92 6.067 13.2 8.666 13.2 2.6 0 4.334-2 4.334-2s1.733 2 4.333 2S63 30.479 63 20.799c0-7.04-4.334-8.8-6.067-8.8zm-.935-5.002a6.81 6.81 0 0 1-4.831 2.002c-.184 0-.395-.011-.629-.033a6.507 6.507 0 0 1-.6-.08 1 1 0 0 1-.821-.802A7.169 7.169 0 0 1 49 6.833c0-1.857.742-3.541 1.947-4.773l.054-.06A6.817 6.817 0 0 1 57.062.112a1 1 0 0 1 .821.801A7.193 7.193 0 0 1 58 2.165a6.81 6.81 0 0 1-1.946 4.773l-.056.059zm0-4.997l-.165-.001a4.823 4.823 0 0 0-3.418 1.415l-.048.046A4.82 4.82 0 0 0 51 6.833l.002.164.165.002a4.816 4.816 0 0 0 3.417-1.416l.049-.044A4.826 4.826 0 0 0 56 2.165L55.998 2z" class="books"/></svg>