<svg xmlns="http://www.w3.org/2000/svg" preserveAspectRatio="xMidYMid" width="100" height="100" viewBox="0 0 100 100"><path d="M96.198 74.432l3.51 3.511a.992.992 0 0 1 0 1.404l-3.51 3.51 3.51 3.511a.992.992 0 0 1 0 1.404L87.773 99.708a.994.994 0 0 1-1.404 0l-3.511-3.511-3.51 3.511a.994.994 0 0 1-1.404 0l-3.511-3.511-3.51 3.511a.994.994 0 0 1-1.404 0l-4.213-4.213a.992.992 0 0 1 0-1.404l11.576-11.576-7.716-7.716a7.408 7.408 0 0 0 2.014-.802l7.11 7.109 2.817-2.816-7.11-7.111a7.41 7.41 0 0 0 .803-2.014l7.716 7.716 11.576-11.576a.992.992 0 0 1 1.404 0l4.212 4.213a.992.992 0 0 1 0 1.404l-3.51 3.51zm-9.127 23.169L97.602 87.07l-2.808-2.809-10.532 10.532 2.809 2.808zm-8.425 0l18.956-18.956-2.808-2.809-18.957 18.957 2.809 2.808zm16.148-30.189L67.412 94.793l2.809 2.808L97.602 70.22l-2.808-2.808zm4.914-36.932l-4.212 4.213a.992.992 0 0 1-1.404 0L82.516 23.117 74.8 30.834a7.404 7.404 0 0 0-.803-2.015l7.11-7.11-2.817-2.818-7.11 7.11a7.408 7.408 0 0 0-2.014-.802l7.716-7.716L65.306 5.907a.992.992 0 0 1 0-1.404L69.519.29a.994.994 0 0 1 1.404 0l3.51 3.511L77.944.29a.994.994 0 0 1 1.404 0l3.51 3.511L86.369.29a.994.994 0 0 1 1.404 0l11.935 11.936a.992.992 0 0 1 0 1.404l-3.51 3.511 3.51 3.51a.992.992 0 0 1 0 1.404l-3.51 3.511 3.51 3.51a.992.992 0 0 1 0 1.404zm-2.106-17.552L87.071 2.397l-2.809 2.808 10.532 10.532 2.808-2.809zm0 8.425L78.646 2.397l-2.809 2.808 18.957 18.957 2.808-2.809zM70.221 2.397l-2.809 2.808 27.382 27.381 2.808-2.808L70.221 2.397zM23.118 17.483l7.716 7.716a7.408 7.408 0 0 0-2.014.802l-7.11-7.11-2.818 2.818 7.11 7.11a7.402 7.402 0 0 0-.802 2.015l-7.716-7.717L5.908 34.693a.992.992 0 0 1-1.404 0L.291 30.48a.994.994 0 0 1 0-1.404l3.511-3.51-3.511-3.511a.994.994 0 0 1 0-1.404l3.511-3.51L.291 13.63a.994.994 0 0 1 0-1.404L12.227.29a.994.994 0 0 1 1.404 0l3.511 3.511L20.652.29a.994.994 0 0 1 1.404 0l3.511 3.511L29.077.29a.994.994 0 0 1 1.404 0l4.213 4.213a.992.992 0 0 1 0 1.404L23.118 17.483zM12.929 2.397L2.398 12.928l2.808 2.809L15.737 5.205l-2.808-2.808zm8.425 0L2.398 21.353l2.808 2.809L24.162 5.205l-2.808-2.808zm8.425 0L2.398 29.778l2.808 2.808L32.587 5.205l-2.808-2.808zM3.802 82.857l-3.511-3.51a.994.994 0 0 1 0-1.404l3.511-3.511-3.511-3.51a.994.994 0 0 1 0-1.404l4.213-4.213a.992.992 0 0 1 1.404 0l11.576 11.576 7.716-7.716c.164.72.447 1.389.802 2.014l-7.11 7.111 2.818 2.816 7.11-7.109a7.408 7.408 0 0 0 2.014.802l-7.716 7.716 11.576 11.576a.992.992 0 0 1 0 1.404l-4.213 4.213a.994.994 0 0 1-1.404 0l-3.51-3.511-3.511 3.511a.994.994 0 0 1-1.404 0l-3.51-3.511-3.511 3.511a.994.994 0 0 1-1.404 0L.291 87.772a.994.994 0 0 1 0-1.404l3.511-3.511zm25.977 14.744l2.808-2.808L5.206 67.412 2.398 70.22l27.381 27.381zm-8.425 0l2.808-2.808L5.206 75.836l-2.808 2.809 18.956 18.956zm-8.425 0l2.808-2.808L5.206 84.261 2.398 87.07l10.531 10.531zm64.212-53.246c.287.211.557.443.809.694v.004A6.978 6.978 0 0 1 80 49.999c0 1.93-.784 3.68-2.05 4.946v.004c-.252.25-.522.483-.809.694A6.97 6.97 0 0 1 78 58.999a6.98 6.98 0 0 1-2.053 4.948l-.003.004a7.01 7.01 0 0 1-2.952 1.759l.008.289a6.973 6.973 0 0 1-2.053 4.947l-.003.004a6.98 6.98 0 0 1-6.255 1.923l-.28-.059a7.035 7.035 0 0 1-1.462 2.132l-.003.004A6.98 6.98 0 0 1 58 76.999a6.977 6.977 0 0 1-4.948-2.053l-.003-.003A6.98 6.98 0 0 1 51 69.999l.004-.09v-7.821L51 61.999l.004-.233V38.232L51 37.999l.004-.089v-7.821L51 30a6.98 6.98 0 0 1 2.05-4.947l.004-.003A6.976 6.976 0 0 1 58 22.999c1.927 0 3.676.782 4.946 2.051l.003.003a7.048 7.048 0 0 1 1.46 2.131l.28-.06a6.982 6.982 0 0 1 6.256 1.925l.004.004A6.977 6.977 0 0 1 73 33.999l-.008.289a7.005 7.005 0 0 1 2.954 1.762l.003.003a6.977 6.977 0 0 1 1.676 7.204c-.13.381-.292.749-.484 1.098zM73 43.002a7.024 7.024 0 0 1 2.38.415c.141-.254.26-.522.355-.801A5.025 5.025 0 0 0 76 40.999a4.985 4.985 0 0 0-1.461-3.536l-.004-.003A4.979 4.979 0 0 0 71 35.999a5 5 0 0 0-1.916.376 5.014 5.014 0 0 0-1.62 1.085.998.998 0 0 1-1.414-1.407A7.006 7.006 0 0 1 71 33.999a4.985 4.985 0 0 0-1.461-3.536l-.004-.003A4.983 4.983 0 0 0 66 28.999c-.331 0-.646.03-.944.086l-.113.023a6.979 6.979 0 0 1-1.994 5.837l-.003.004A6.982 6.982 0 0 1 58 37a1.001 1.001 0 0 1 0-2.001 4.986 4.986 0 0 0 3.536-1.46l.003-.005A4.979 4.979 0 0 0 63 30a4.988 4.988 0 0 0-1.461-3.537l-.003-.003A4.987 4.987 0 0 0 58 24.999a4.985 4.985 0 0 0-3.536 1.461l-.003.003A4.983 4.983 0 0 0 53 30l-.004.089v7.82l.004.09c0 1.384.559 2.634 1.461 3.536l.004.003A4.977 4.977 0 0 0 58 42.999a1 1 0 0 1 0 2 6.978 6.978 0 0 1-4.947-2.052l-.057-.057v14.218l.058-.059A6.982 6.982 0 0 1 58 54.998a1 1 0 0 1 0 2.001 4.98 4.98 0 0 0-3.535 1.46l-.004.005A4.981 4.981 0 0 0 53 61.999l-.004.09v7.82l.004.09c0 1.383.558 2.633 1.461 3.536l.003.003A4.985 4.985 0 0 0 58 74.999a4.987 4.987 0 0 0 3.536-1.461l.003-.003A4.987 4.987 0 0 0 63 69.999a4.983 4.983 0 0 0-1.461-3.536l-.003-.004A4.986 4.986 0 0 0 58 64.999a1 1 0 0 1 0-2c1.928 0 3.677.783 4.947 2.052l.004.003a6.982 6.982 0 0 1 1.992 5.836l.113.022c.298.057.613.087.944.087a4.979 4.979 0 0 0 3.535-1.461l.004-.003A4.985 4.985 0 0 0 71 65.999a6.975 6.975 0 0 1-2.674-.532 7.024 7.024 0 0 1-2.276-1.522.998.998 0 0 1 1.414-1.407 4.998 4.998 0 0 0 1.62 1.085 5 5 0 0 0 1.916.376 4.983 4.983 0 0 0 3.535-1.461l.004-.003A4.985 4.985 0 0 0 76 58.999c0-.569-.094-1.113-.265-1.617a4.913 4.913 0 0 0-.355-.801 6.995 6.995 0 0 1-2.38.414.996.996 0 0 1 0-1.992 5.003 5.003 0 0 0 3.536-8.54A4.992 4.992 0 0 0 73 44.995a.996.996 0 0 1 0-1.993zm-6 16.997a1 1 0 0 1-1-1 4.986 4.986 0 0 0-1.46-3.536l-.004-.003A4.985 4.985 0 0 0 61 53.999 1 1 0 0 1 61 52a6.98 6.98 0 0 1 4.948 2.051l.004.004A6.983 6.983 0 0 1 68 58.999a1 1 0 0 1-1 1zm-1.054-14.051A6.976 6.976 0 0 1 61 47.999a1 1 0 0 1 0-2 4.981 4.981 0 0 0 3.536-1.461l.004-.004A4.98 4.98 0 0 0 66 40.999a1 1 0 0 1 2 0 6.978 6.978 0 0 1-2.05 4.946l-.004.003zM49 69.999a6.98 6.98 0 0 1-2.049 4.944l-.004.003A6.975 6.975 0 0 1 42 76.999a6.98 6.98 0 0 1-4.944-2.049l-.004-.004a7.032 7.032 0 0 1-1.461-2.132l-.28.059a6.98 6.98 0 0 1-6.255-1.923l-.003-.004A6.973 6.973 0 0 1 27 65.999l.008-.289a7.01 7.01 0 0 1-2.952-1.759l-.003-.004a6.98 6.98 0 0 1-1.679-7.205 6.97 6.97 0 0 1 .485-1.099 7.15 7.15 0 0 1-.809-.694v-.004A6.976 6.976 0 0 1 20 49.999c0-1.93.784-3.679 2.05-4.946v-.004a7.05 7.05 0 0 1 .809-.694A7.007 7.007 0 0 1 22 40.999c0-1.928.783-3.677 2.051-4.946l.003-.003a6.999 6.999 0 0 1 2.954-1.762L27 33.999c0-1.928.783-3.677 2.051-4.946l.003-.004a6.984 6.984 0 0 1 6.257-1.925l.28.06c.352-.799.85-1.52 1.459-2.131l.004-.003A6.975 6.975 0 0 1 42 22.999c1.928 0 3.677.783 4.946 2.051l.003.003A6.982 6.982 0 0 1 49 30l-.004.089v7.821l.004.089-.004.233v23.534l.004.233-.004.089v7.821l.004.09zm-7-15.001c1.928 0 3.677.784 4.945 2.051l.058.059V42.89l-.056.057A6.978 6.978 0 0 1 42 44.999a1 1 0 1 1 0-2 4.979 4.979 0 0 0 3.535-1.461l.004-.003A4.983 4.983 0 0 0 47 37.999l.003-.09.001-7.82L47 30a4.988 4.988 0 0 0-1.461-3.537l-.004-.003A4.983 4.983 0 0 0 42 24.999a4.985 4.985 0 0 0-3.536 1.461l-.003.003A4.983 4.983 0 0 0 37 30c0 1.383.558 2.633 1.461 3.534l.003.005A4.984 4.984 0 0 0 42 34.999 1 1 0 0 1 42 37a6.98 6.98 0 0 1-4.946-2.051l-.004-.004a6.978 6.978 0 0 1-1.994-5.837l-.112-.023a5.105 5.105 0 0 0-.944-.086 4.987 4.987 0 0 0-3.536 1.461l-.003.003A4.981 4.981 0 0 0 29 33.999a7.016 7.016 0 0 1 4.95 2.054.998.998 0 0 1-1.414 1.407 5.014 5.014 0 0 0-1.62-1.085A5 5 0 0 0 29 35.999a4.981 4.981 0 0 0-3.536 1.461l-.003.003A4.985 4.985 0 0 0 24 40.999a5.025 5.025 0 0 0 .619 2.418A7.03 7.03 0 0 1 27 43.002a.997.997 0 0 1 0 1.993 4.992 4.992 0 0 0-3.536 1.468A4.979 4.979 0 0 0 22 49.999c0 1.383.559 2.633 1.462 3.538A5.007 5.007 0 0 0 27 55.003a.996.996 0 0 1 0 1.992 7.005 7.005 0 0 1-2.381-.414A4.996 4.996 0 0 0 24 58.999c0 1.384.559 2.633 1.461 3.536l.003.003A4.985 4.985 0 0 0 29 63.999a5 5 0 0 0 1.916-.376 4.998 4.998 0 0 0 1.62-1.085.997.997 0 0 1 1.414 1.407 7.035 7.035 0 0 1-2.276 1.522 6.979 6.979 0 0 1-2.674.532c0 1.383.558 2.634 1.461 3.536l.003.003A4.983 4.983 0 0 0 34 70.999c.331 0 .646-.03.944-.087l.112-.022a6.982 6.982 0 0 1 1.993-5.836l.003-.003A6.98 6.98 0 0 1 42 62.999a1 1 0 0 1 0 2 4.984 4.984 0 0 0-3.536 1.46l-.003.004A4.98 4.98 0 0 0 37 69.999c0 1.383.558 2.633 1.461 3.536l.003.003A4.985 4.985 0 0 0 42 74.999a4.983 4.983 0 0 0 3.535-1.461l.004-.003A4.987 4.987 0 0 0 47 69.999l.004-.09-.001-7.82-.003-.09a4.981 4.981 0 0 0-1.461-3.535l-.004-.005A4.982 4.982 0 0 0 42 56.999a1 1 0 1 1 0-2.001zm-2.001-1.999a1 1 0 0 1-1 1 4.983 4.983 0 0 0-3.535 1.461l-.004.003A4.986 4.986 0 0 0 34 58.999a1 1 0 0 1-2.001 0c0-1.927.784-3.676 2.049-4.944l.004-.004c1.104-1.103 3.323-1.836 5.152-2.01a.984.984 0 0 1 .795.958zm-1-.999H40c-.253 0-.521.015-.796.041-.068-.015-.132-.041-.205-.041zm0-4.001a6.973 6.973 0 0 1-4.945-2.051l-.004-.003a6.98 6.98 0 0 1-2.051-4.946 1 1 0 0 1 2.001 0 4.98 4.98 0 0 0 1.46 3.535l.004.004a4.979 4.979 0 0 0 3.535 1.461 1 1 0 1 1 0 2z" class="brains"/></svg>