<svg xmlns="http://www.w3.org/2000/svg" preserveAspectRatio="xMidYMid" width="80" height="100" viewBox="0 0 80 100"><path d="M80 97.998a2 2 0 0 1-2 2.001H2a2 2 0 0 1-2-2.001v-96c0-1.106.895-2 2-2h64.002l13.995 13.997v2.003H80v82zM66.005 2.829v11.17h11.168L66.005 2.829zM78 15.998H65.999a2.007 2.007 0 0 1-1.994-1.999V1.998H2v96h76v-82zm-66 0h16a2 2 0 0 1 2 1.999v20.001a2 2 0 0 1-2 1.999H12a2 2 0 0 1-2-1.999V17.997c0-1.105.895-1.999 2-1.999zm0 22h16V17.997H12v20.001zm-1 8h58a1 1 0 1 1 0 1.999H11a1 1 0 1 1 0-1.999zm0 7.999h58a1 1 0 0 1 0 2H11a1 1 0 1 1 0-2zm0 8h58a1 1 0 0 1 0 2H11a1 1 0 1 1 0-2zm0 8h58a1 1 0 0 1 0 2H11a1 1 0 1 1 0-2zm58-30H37a1 1 0 1 1 0-1.999h32a1 1 0 1 1 0 1.999zm0-8H37a1 1 0 1 1 0-2h32a1 1 0 0 1 0 2zm0-7.999H37a1 1 0 0 1 0-2h32a1 1 0 1 1 0 2z" class="cls-1"/></svg>