<svg xmlns="http://www.w3.org/2000/svg" preserveAspectRatio="xMidYMid" width="20" height="20" viewBox="0 0 20 20"><defs><style>.cls-1{fill:#4285f5}.cls-1,.cls-2,.cls-3,.cls-4{fill-rule:evenodd}.cls-2{fill:#35a852}.cls-3{fill:#ffbd00}.cls-4{fill:#ea4236}</style></defs><path d="M10.205 8.125h9.602c.127.701.192 1.414.193 2.126v.046a11.185 11.185 0 0 1-.453 3.138c-.466 1.575-1.347 3.04-2.582 4.152-1.079-.825-2.162-1.645-3.242-2.47a4.69 4.69 0 0 0 2.043-3.089h-5.56c-.003-1.3-.001-2.602-.001-3.903z" class="cls-1"/><path d="M1.087 14.49c1.116-.846 2.23-1.695 3.344-2.543a6.226 6.226 0 0 0 2.338 3.071c.68.469 1.457.802 2.272.962.802.158 1.632.141 2.435.007a5.885 5.885 0 0 0 2.247-.87c1.08.825 2.163 1.645 3.242 2.47-1.167 1.057-2.631 1.781-4.177 2.13-1.711.382-3.52.392-5.221-.055A10.245 10.245 0 0 1 3.86 17.83a10.128 10.128 0 0 1-2.773-3.34z" class="cls-2"/><path d="M.202 8.023a9.794 9.794 0 0 1 .887-2.513l3.344 2.543a5.94 5.94 0 0 0-.002 3.894c-1.114.848-2.228 1.697-3.344 2.543a9.844 9.844 0 0 1-.885-6.467z" class="cls-3"/><path d="M6.869.547a10.517 10.517 0 0 1 6.874.059A9.898 9.898 0 0 1 17.027 2.6c-.318.339-.664.654-.992.983-.626.613-1.25 1.228-1.878 1.839a5.554 5.554 0 0 0-2.2-1.267 6.165 6.165 0 0 0-2.996-.119 6.108 6.108 0 0 0-3.047 1.659 6.17 6.17 0 0 0-1.481 2.358L1.089 5.51C2.263 3.205 4.382 1.381 6.869.547z" class="cls-4"/></svg>