<svg xmlns="http://www.w3.org/2000/svg" preserveAspectRatio="xMidYMid" width="120" height="110" viewBox="0 0 120 110"><path d="M116 109.999H4c-2.209 0-4-1.792-4-4.001v-4a2 2 0 0 1 2-2h8v-66a4 4 0 0 1 4-4h79v-12.38l-7 1.792v10.588h-2v-.001c0-1.657-10.745-2.999-24-2.999s-24 1.342-24 2.999v.001h-2V19.41l-17.496-4.477A1.98 1.98 0 0 1 15 12.995a1.98 1.98 0 0 1 1.504-1.938l43-11.002c.341-.087.651-.087.992 0l43 11.002A1.98 1.98 0 0 1 105 12.995a1.98 1.98 0 0 1-1.504 1.938L95 17.106v12.892h11a4 4 0 0 1 4 4v66h8a2 2 0 0 1 2 2v4a4.001 4.001 0 0 1-4 4.001zM36 12.996v15.075c3.922-1.805 13.19-3.073 24-3.073s20.078 1.268 24 3.073V12.995c0-1.656-10.745-2.999-24-2.999s-24 1.343-24 2.999v.001zm67-.001L60 1.992 17 12.995l17 4.35v-4.35c0-2.761 11.641-4.999 26-4.999s26 2.238 26 4.999v4.35l17-4.35zm5 21.003a2 2 0 0 0-2-2H95v4.001h7a2 2 0 0 1 2 1.999v56.001a2 2 0 0 1-2 1.999H18a2 2 0 0 1-2-1.999V37.998a2 2 0 0 1 2-1.999h75v-4.001H14a2 2 0 0 0-2 2v66h38a2 2 0 0 1 2 2h16a2 2 0 0 1 2-2h38v-66zm-10 12V50a2 2 0 0 1-2 2h-4.001A2 2 0 0 1 90 50v-4.002H18v48.001h84V45.998h-4zM96 50v-6.001a2 2 0 0 0-4 0V50h4zm-6-6.002a4.005 4.005 0 0 1 3-3.874v-2.126H18v6h72zm5-3.874a4.005 4.005 0 0 1 3 3.874h4v-6h-7v2.126zm23 61.874H70a2 2 0 0 1-2 2.001H52a2 2 0 0 1-2-2.001H2v4a2 2 0 0 0 2 2.001h112a2 2 0 0 0 2-2.001v-4zm-97-62a1 1 0 1 1 0 2 1 1 0 0 1 0-2zm4 0a1 1 0 1 1 0 2 1 1 0 0 1 0-2zm4 0a1 1 0 1 1 0 2 1 1 0 0 1 0-2zm38.992 31.735l-14 7.996a1.951 1.951 0 0 1-1.996-.007A1.95 1.95 0 0 1 51 77.994V62.001c0-.733.362-1.361.996-1.729a1.951 1.951 0 0 1 1.996-.006l14 7.996A1.95 1.95 0 0 1 69 69.997c0 .738-.367 1.37-1.008 1.736zM53 62.001v15.993l14-7.997-14-7.996z" class="institute"/></svg>