<svg xmlns="http://www.w3.org/2000/svg" preserveAspectRatio="xMidYMid" width="300" height="30" viewBox="0 0 300 30"><defs><style>.logo-dark-1,.logo-dark-2{fill:#000;fill-rule:evenodd}.logo-dark-2{fill:#fff}</style></defs><path d="M109 30h4V9.895L118.934 26h4.263L129 10.252V30h4V0h-4.486l-7.448 20.214L113.617 0H109v30zM261.496 0L273 22.267V0h4v30h-4.495L261 7.733V30h-4V0h4.496zM296 10a5.983 5.983 0 0 0-1.757-4.243A5.983 5.983 0 0 0 290 4a5.985 5.985 0 0 0-4.243 1.757A5.983 5.983 0 0 0 284 10v10c0 1.657.672 3.157 1.757 4.242A5.99 5.99 0 0 0 290 26.007l1.165.001 4.843-4.843V17H291v-4h8.992v9.836l-7.156 7.156H290a9.968 9.968 0 0 1-7.07-2.922A9.967 9.967 0 0 1 280 20V10a9.97 9.97 0 0 1 2.93-7.071A9.969 9.969 0 0 1 290 0a9.969 9.969 0 0 1 7.07 2.929A9.97 9.97 0 0 1 300 10h-4zM250 0h4v30h-4V0zm-23 0h20v4h-8v25.999h-4V4h-8V0zm-20 30h17v-4h-13v-9h11v-4h-11V4h13V0h-17v30zm-23 0h4V17l6.943-.012L199.737 30H204l-1.489-4.042L198.473 15l4.038-10.958L204 0h-4.263l-4.794 13.011L188 13V0h-4v30zm-4-21.5a8.5 8.5 0 0 0-8.5-8.5H161v30h4V17h6.5c.148 0 .296-.004.443-.012L176.737 30H181l-5.216-14.158A8.494 8.494 0 0 0 180 8.5zM165 4h6.5a4.5 4.5 0 1 1 0 9H165V4zm-23.22 18h10.44l2.517 8H159l-9.438-30h-5.124L135 30h4.263l2.517-8zm9.181-4h-7.922L147 5.408 150.961 18z" class="logo-dark-1"/><path d="M15.999 10a5.981 5.981 0 0 0-1.757-4.242A5.987 5.987 0 0 0 10 3.993l-1.165-.001L4 8.827V20c0 1.657.672 3.158 1.757 4.243A5.983 5.983 0 0 0 10 26a5.981 5.981 0 0 0 4.242-1.757A5.983 5.983 0 0 0 15.999 20H20a9.97 9.97 0 0 1-2.93 7.071A9.97 9.97 0 0 1 10 30a9.973 9.973 0 0 1-7.071-2.929A9.973 9.973 0 0 1 0 20V7.172L7.164.008H10a9.968 9.968 0 0 1 7.07 2.922A9.967 9.967 0 0 1 20 10h-4.001zM105 8.5A8.5 8.5 0 0 0 96.5 0H86v30h4V17h6.5c.148 0 .296-.004.442-.012L101.736 30H106l-5.217-14.158A8.493 8.493 0 0 0 105 8.5zM90 4h6.5a4.5 4.5 0 1 1 0 9H90V4zM66 30h17v-4H70v-9h11v-4H70V4h13V0H66v30zm-22 0h10.5a8.5 8.5 0 0 0 4.938-15.419A8.5 8.5 0 0 0 53.5 0H44v30zm4-17V4h5.5a4.5 4.5 0 1 1 0 9H48zm0 13v-9h6.5a4.5 4.5 0 1 1 0 9H48zm-19.001-7.001V30H33V18.999L42 0h-4.426L31 13.878 24.426 0H20l8.999 18.999z" class="logo-dark-2"/></svg>