<svg xmlns="http://www.w3.org/2000/svg" preserveAspectRatio="xMidYMid" width="60" height="50" viewBox="0 0 60 50"><path d="M58 48H33.445c-.693 1.19-1.968 2-3.445 2-1.477 0-2.752-.81-3.445-2H2a2 2 0 0 1-2-2V6a2 2 0 0 1 2-2h2V2a2 2 0 0 1 2-2h21c1.201 0 2.267.541 3 1.379A3.974 3.974 0 0 1 33 0h21a2 2 0 0 1 2 2v2h2a2 2 0 0 1 2 2v40a2 2 0 0 1-2 2zM27 2H6v40h21c.737 0 1.411.221 2 .572V4a2 2 0 0 0-2-2zm27 0H33a2 2 0 0 0-2 2v38.572A3.884 3.884 0 0 1 33 42h21V2zm4 4h-2v36a2 2 0 0 1-2 2H33a2 2 0 0 0-2 2h-2a2 2 0 0 0-2-2H6a2 2 0 0 1-2-2V6H2v40h26a2 2 0 0 0 4 0h26V6z" class="manual"/></svg>