<svg xmlns="http://www.w3.org/2000/svg" preserveAspectRatio="xMidYMid" width="16" height="20" viewBox="0 0 16 20"><path d="M14.944 19.739a1.958 1.958 0 0 1-2.053-.099L8 16.382 3.109 19.64a1.958 1.958 0 0 1-2.053.099A1.954 1.954 0 0 1 0 17.977V1.989C0 .889.898-.009 2-.009h12c1.102 0 2 .898 2 1.998v15.988c0 .757-.389 1.405-1.056 1.762zM14 15.962V1.989H2v15.988l6-3.997 6 3.997v-2.015zm-8.276-3.96a.4.4 0 0 1-.346-.446l.309-2.392-1.586-1.743a.4.4 0 0 1 .222-.662l2.242-.427 1.083-2.115a.4.4 0 0 1 .711 0l1.083 2.115 2.243.427a.4.4 0 0 1 .222.662l-1.586 1.743.308 2.392a.398.398 0 0 1-.576.407l-2.049-1.037-2.05 1.037a.397.397 0 0 1-.23.039z" class="officer"/></svg>