<svg xmlns="http://www.w3.org/2000/svg" preserveAspectRatio="xMidYMid" width="60" height="60" viewBox="0 0 60 60"><path d="M38.993 31.736l-14.001 8.001a1.954 1.954 0 0 1-1.996-.006 1.954 1.954 0 0 1-.997-1.73V21.998c0-.733.363-1.362.997-1.729a1.951 1.951 0 0 1 1.996-.007l14.001 8.001c.64.366 1.007.999 1.007 1.737 0 .737-.367 1.37-1.007 1.736zM30 60c16.568 0 30-13.432 30-30C60 13.431 46.568 0 30 0 13.431 0 0 13.431 0 30c0 16.568 13.431 30 30 30zm0-2c15.464 0 28-12.536 28-28S45.464 2 30 2 2 14.536 2 30s12.536 28 28 28zm8-28l-14.001-8.002v16.003L38 30z" class="play-in-circle-big" fill-rule="evenodd"/></svg>