<svg xmlns="http://www.w3.org/2000/svg" preserveAspectRatio="xMidYMid" width="120" height="100" viewBox="0 0 120 100"><path d="M116 99.999H4c-2.209 0-4-1.792-4-4.001v-4a2 2 0 0 1 2-2h8V23.999a4 4 0 0 1 4-4h45V1.998a2 2 0 0 1 2-1.999h24a2 2 0 0 1 2 1.999v11.001a2 2 0 0 1-2 1.999H74v5.001h32a4 4 0 0 1 4 4v65.999h8a2 2 0 0 1 2 2v4a4.001 4.001 0 0 1-4 4.001zM72 1.998H61v11.001h11V1.998zm4 11.001h9V1.998H74v11.001h2zm-4 1.999H61v11.001h11V14.998zm-11 19v5.001h11v-11H61v5.999zm13 0h28v-5.999H74v5.999zm0 2v3.001a2 2 0 0 1-2 2H61a2 2 0 0 1-2-2v-3.001H18v48.001h84V35.998H74zm-15-2v-5.999H18v5.999h41zm49-9.999a2 2 0 0 0-2-2H74v4h28a2 2 0 0 1 2 2v56a2 2 0 0 1-2 1.999H18a2 2 0 0 1-2-1.999v-56a2 2 0 0 1 2-2h41v-4H14a2 2 0 0 0-2 2v65.999h38a2 2 0 0 1 2 2h16a2 2 0 0 1 2-2h38V23.999zm10 67.999H70a2 2 0 0 1-2 2.001H52a2 2 0 0 1-2-2.001H2v4a2 2 0 0 0 2 2.001h112a2 2 0 0 0 2-2.001v-4zm-97-62a1 1 0 1 1-.001 2.001A1 1 0 0 1 21 29.998zm4 0a1 1 0 1 1-.001 2.001A1 1 0 0 1 25 29.998zm4 0a1 1 0 1 1-.001 2.001A1 1 0 0 1 29 29.998zm69 52.001H74a2 2 0 0 1-2-2v-24a2 2 0 0 1 2-2h11v-11a2 2 0 0 1 2-2h11a2 2 0 0 1 2 2v37a2 2 0 0 1-2 2zm-13-26H74v11h11v-11zm0 13H74v11h11v-11zm13-26H87v11h11v-11zm0 13H87v11h11v-11zm0 13H87v11h11v-11zm-39 13H22a2 2 0 0 1-2-2v-37a2 2 0 0 1 2-2h11a2 2 0 0 1 2 2v11h11a2 2 0 0 1 2 2v11h11a2 2 0 0 1 2 2v11a2 2 0 0 1-2 2zm-26-39H22v11h11v-11zm0 13H22v11h11v-11zm0 13H22v11h11v-11zm13-13H35v11h11v-11zm0 13H35v11h11v-11zm13 0H48v11h11v-11z" class="cls-1"/></svg>