<svg xmlns="http://www.w3.org/2000/svg" preserveAspectRatio="xMidYMid" width="120" height="120" viewBox="0 0 120 120"><path d="M80.18 37.06l38.186 7.282a1.953 1.953 0 0 1 1.523 1.331 1.954 1.954 0 0 1-.418 1.979L92.596 77.203l5.227 40.54a1.957 1.957 0 0 1-.829 1.889 1.957 1.957 0 0 1-2.058.15l-34.939-17.699-34.94 17.699a1.957 1.957 0 0 1-2.058-.15 1.959 1.959 0 0 1-.829-1.889l5.228-40.54L.522 47.652a1.954 1.954 0 0 1-.417-1.979 1.952 1.952 0 0 1 1.522-1.331l38.186-7.282L58.216 1.088a1.959 1.959 0 0 1 1.781-1.09c.77 0 1.429.404 1.78 1.09L80.18 37.06zM59.997 1.998L41.148 38.842 2.001 46.306l27.498 30.236-5.346 41.456 35.844-18.156 35.843 18.156-5.346-41.456 27.498-30.236-39.147-7.464L59.997 1.998z" class="star-big"/></svg>