<svg xmlns="http://www.w3.org/2000/svg" preserveAspectRatio="xMidYMid" width="20" height="20" viewBox="0 0 20 20"><path d="M10.898.543l2.708 5.287 5.606 1.068a.998.998 0 0 1 .555 1.653l-3.966 4.358.772 5.982a.998.998 0 0 1-1.44 1.016l-5.123-2.592-5.124 2.592a1 1 0 0 1-1.44-1.016l.772-5.982L.252 8.551a.998.998 0 0 1 .555-1.653L6.413 5.83 9.121.543a.999.999 0 0 1 1.777 0zm-.888 14.654c.151 0 .305.034.45.107l3.891 1.97-.582-4.511a.998.998 0 0 1 .243-.859l3.075-3.378-4.33-.825a1.002 1.002 0 0 1-.705-.527L10.01 3.185 7.967 7.174a1.002 1.002 0 0 1-.704.527l-4.331.825 3.075 3.378c.22.241.299.562.243.859l-.582 4.511 3.891-1.97a1 1 0 0 1 .451-.107z" class="star"/></svg>