<svg xmlns="http://www.w3.org/2000/svg" preserveAspectRatio="xMidYMid" width="30" height="28" viewBox="0 0 30 28"><defs><style>.terminal-1{fill:#e7eff1}.terminal-2{fill:#d6dada}.terminal-3{fill:#707377}.terminal-3,.terminal-6,.terminal-7{fill-rule:evenodd}.terminal-4{fill:#cde5e6}.terminal-5{fill:#89d0da}.terminal-6{fill:#32b0bc}.terminal-7,.terminal-8{fill:#31b0bc}</style></defs><rect width="30" height="11" rx="2" ry="2" class="terminal-1"/><rect x="3" y="3" width="24" height="5" rx="2" ry="2" class="terminal-2"/><path d="M5.5 4h19a1.5 1.5 0 0 1 0 3h-19a1.5 1.5 0 0 1 0-3z" class="terminal-3"/><path class="terminal-1" d="M5 5h20v23H5z"/><path class="terminal-4" d="M5 5h20v13H5z"/><path class="terminal-5" d="M6 5h15v12H6z"/><path d="M21 5.5V17h-4v-.5a1 1 0 0 1-1-1h-2a.5.5 0 0 1 0-1h.5V14h-1a1 1 0 0 1-1-1h-1a.994.994 0 0 1-.861-.5H9.5a.5.5 0 0 1 0-1h1.139a.994.994 0 0 1 .861-.5h1a1 1 0 0 1 1-1h.5a.5.5 0 0 1 0-1h3v-.5a1 1 0 0 1 0-2V6h-5.5c-.643 0-1-.5-1-.5V5H21v.5z" class="terminal-6"/><path d="M23 26a1 1 0 0 1-1-1v-7a1 1 0 0 1 2 0v7a1 1 0 0 1-1 1zm0-10a1 1 0 0 1-1-1V8a1 1 0 0 1 2 0v7a1 1 0 0 1-1 1z" class="terminal-7"/><ellipse cx="8" cy="22.5" rx="2" ry="3.5" class="terminal-8"/><path class="terminal-4" d="M11 18h10v10H11z"/></svg>