<svg xmlns="http://www.w3.org/2000/svg" preserveAspectRatio="xMidYMid" width="205" height="20" viewBox="0 0 205 20"><defs><style>.cm-logo-1,.cm-logo-2{fill:#00b402;fill-rule:evenodd}.cm-logo-2{fill:#000}</style></defs><path d="M72.5 20h-3.168l-2.933-8.513A6.592 6.592 0 0 1 66 11.5h-4.5c0 2.835.003 5.666.003 8.5H58.5V0H66c3.314 0 6 2.436 6 5.75 0 2.114-1.093 3.87-2.745 4.865L72.5 20zM66 3h-4.5v5.5H66v-.001c1.657 0 3-1.092 3-2.749S67.657 3 66 3zM44.5 20V0h12v3h-9v5.5h7.501v3H47.5V17h9v3h-12zm-8 0h-7V0H36c3.314 0 6 2.436 6 5.75 0 1.61-.635 3.014-1.668 4.031 1.325 1.031 2.168 2.612 2.168 4.469 0 3.313-2.686 5.75-6 5.75zM36 3h-3.5v5.5H36v-.001c1.657 0 3-1.092 3-2.749S37.657 3 36 3zm.5 8.5h-4V17h4c1.657 0 3-1.093 3-2.75s-1.343-2.75-3-2.75zm-14 8.5h-3v-8l-6-12h3.346L21 8.308 25.154 0H28.5l-6 12v8zM11 7a3.988 3.988 0 0 0-1.172-2.829A3.989 3.989 0 0 0 7 3H5.621L2.994 5.627V13H3c0 1.104.448 2.105 1.172 2.828A3.984 3.984 0 0 0 7 17a3.986 3.986 0 0 0 2.828-1.172A3.986 3.986 0 0 0 11 13h3a6.975 6.975 0 0 1-2.051 4.949A6.976 6.976 0 0 1 7 20a6.979 6.979 0 0 1-4.95-2.051A6.974 6.974 0 0 1 0 13h.006V4.373L4.379 0H7c1.932 0 3.683.783 4.949 2.05A6.979 6.979 0 0 1 14 7h-3z" class="cm-logo-1"/><path d="M202 7a3.988 3.988 0 0 0-1.172-2.829A3.989 3.989 0 0 0 198 3a3.991 3.991 0 0 0-2.829 1.171A3.991 3.991 0 0 0 194 7v6c0 1.104.448 2.105 1.171 2.828A3.988 3.988 0 0 0 198 17h1.379l2.627-2.627V11.5H197v-3h7.994v7.127L200.621 20H198a6.979 6.979 0 0 1-4.95-2.051A6.974 6.974 0 0 1 191 13V7c0-1.933.783-3.683 2.05-4.95A6.982 6.982 0 0 1 198 0c1.933 0 3.683.784 4.949 2.05A6.979 6.979 0 0 1 205 7h-3zm-16 13h-.596L178.5 6.191V20h-3V.191L175.404 0h3.346L186 14.499V0h3v20h-3zM170.5 0h3v20h-3V0zm-7 20h-3V3h-5V0h12.999v3H163.5v17zm-22 0V0h12v3h-9v5.5h7.5v3h-7.5V17h9-.001l.001 3h-12zm-5.168 0l-2.929-8.5h-4.9V20H125.5V0h3.003v8.5h4.4l2.929-8.5H139l-3.208 9.277L139.5 20h-3.168zm-15.999 0l-2.934-8.513a6.559 6.559 0 0 1-.398.013h-4.5l.002 8.5h-3.002V0h7.5c3.313 0 6 2.436 6 5.75 0 2.114-1.094 3.87-2.746 4.865L123.501 20h-3.168zm-3.332-17h-4.5v5.5h4.5v-.001c1.657 0 3-1.092 3-2.749s-1.343-2.75-3-2.75zm-13.219 12.5h-7.563l-1.55 4.5h-3.168l6.915-20h3.169l6.916 20h-3.169l-1.55-4.5zm-3.781-10.974L97.253 12.5h5.495l-2.747-7.974zM87.5 7.122L84.085 17h-3.169L77.5 7.121V20h-3V0h3.702L82.5 12.473 86.799 0H90.5v20h-3V7.122z" class="cm-logo-2"/></svg>