<svg xmlns="http://www.w3.org/2000/svg" xmlns:xlink="http://www.w3.org/1999/xlink" preserveAspectRatio="xMidYMid" width="300" height="30" viewBox="0 0 300 30">
  <defs>
    <style>
      .cm-logo-1 {
        fill: #000;
      }

      .cm-logo-1, .cm-logo-2 {
        fill-rule: evenodd;
      }

      .cm-logo-2 {
        fill: #00b402;
      }
    </style>
  </defs>
  <g>
    <path d="M109.000,30.000 L113.000,30.000 L113.000,9.895 L118.934,26.000 L121.066,26.000 L123.197,26.000 L129.000,10.252 L129.000,30.000 L133.000,30.000 L133.000,0.000 C131.505,0.000 130.009,0.000 128.514,0.000 L121.066,20.214 L113.617,0.000 C112.078,0.000 110.539,0.000 109.000,0.000 L109.000,30.000 L109.000,30.000 ZM261.496,-0.000 L273.000,22.267 L273.000,0.000 L277.000,0.000 L277.000,30.000 C275.502,30.000 274.003,30.000 272.505,30.000 L261.000,7.733 L261.000,30.000 L257.000,30.000 L257.000,0.000 C258.499,0.000 259.997,-0.000 261.496,-0.000 L261.496,-0.000 ZM296.000,10.000 C296.000,8.343 295.328,6.842 294.243,5.757 C293.158,4.672 291.657,4.000 290.000,4.000 C288.343,4.000 286.843,4.672 285.757,5.757 C284.672,6.842 284.000,8.343 284.000,10.000 L284.000,20.000 C284.000,21.657 284.672,23.157 285.757,24.242 C286.848,25.332 288.349,26.007 290.000,26.007 L291.165,26.008 L296.008,21.165 L296.008,17.000 L291.000,17.000 L291.000,13.000 L299.993,13.000 L299.992,22.836 L292.836,29.992 L290.000,29.992 C287.235,29.991 284.734,28.875 282.930,27.070 C281.120,25.260 280.000,22.761 280.000,20.000 L280.000,10.000 C280.000,7.239 281.120,4.739 282.930,2.929 C284.739,1.120 287.239,0.000 290.000,0.000 C292.761,0.000 295.261,1.120 297.070,2.929 C298.880,4.739 300.000,7.239 300.000,10.000 L296.000,10.000 L296.000,10.000 ZM250.000,0.000 L254.000,0.000 L254.000,30.000 L250.000,30.000 L250.000,0.000 L250.000,0.000 ZM227.000,-0.000 L247.000,-0.000 L247.000,4.000 L239.000,4.000 L239.000,29.999 L235.000,29.999 L235.000,4.000 L227.000,4.000 L227.000,-0.000 L227.000,-0.000 ZM207.000,30.000 C212.667,30.000 218.333,30.000 224.000,30.000 L224.000,26.000 L211.000,26.000 L211.000,17.000 L222.000,17.000 L222.000,13.000 L211.000,13.000 L211.000,4.000 L224.000,4.000 L224.000,0.000 C218.333,0.000 212.667,0.000 207.000,0.000 L207.000,30.000 L207.000,30.000 ZM184.000,30.000 L188.000,30.000 L188.000,17.000 L194.943,16.988 L199.737,30.000 L204.000,30.000 L202.511,25.958 L198.473,15.000 L202.511,4.042 L204.000,0.000 L199.737,0.000 L194.943,13.012 L188.000,13.000 L188.000,0.000 L184.000,0.000 C184.000,10.000 184.000,20.000 184.000,30.000 L184.000,30.000 ZM180.000,8.500 C180.000,3.806 176.194,0.000 171.500,0.000 C168.000,0.000 164.500,0.000 161.000,0.000 C161.000,10.000 161.000,20.000 161.000,30.000 L165.000,30.000 L165.000,17.000 L171.500,17.000 C171.648,17.000 171.796,16.996 171.943,16.988 L176.737,30.000 L181.000,30.000 L175.784,15.842 C178.306,14.368 180.000,11.632 180.000,8.500 L180.000,8.500 ZM165.000,4.000 L171.500,4.000 C173.985,4.000 176.000,6.015 176.000,8.500 C176.000,10.985 173.985,13.000 171.500,13.000 L165.000,13.000 L165.000,4.000 L165.000,4.000 ZM141.780,22.000 L152.220,22.000 L154.737,30.000 L159.000,30.000 L149.562,0.000 C147.854,0.000 146.146,0.000 144.438,0.000 L135.000,30.000 L139.263,30.000 L141.780,22.000 L141.780,22.000 ZM150.961,18.000 L143.039,18.000 L147.000,5.408 L150.961,18.000 Z" class="cm-logo-1"/>
    <path d="M15.999,10.000 C15.999,8.343 15.327,6.843 14.242,5.758 C13.152,4.668 11.651,3.993 10.000,3.993 L8.835,3.992 L4.000,8.827 L4.000,20.000 C4.000,21.657 4.672,23.158 5.757,24.243 C6.842,25.328 8.343,26.000 10.000,26.000 C11.657,26.000 13.157,25.328 14.242,24.243 C15.327,23.158 15.999,21.657 15.999,20.000 L20.000,20.000 C20.000,22.761 18.880,25.261 17.070,27.071 C15.261,28.880 12.760,30.000 10.000,30.000 C7.239,30.000 4.739,28.880 2.929,27.071 C1.120,25.261 -0.000,22.761 -0.000,20.000 L-0.000,7.172 L7.164,0.008 L10.000,0.008 C12.765,0.009 15.266,1.125 17.070,2.930 C18.880,4.740 20.000,7.239 20.000,10.000 L15.999,10.000 L15.999,10.000 ZM105.000,8.500 C105.000,3.806 101.194,0.000 96.500,0.000 C93.000,0.000 89.500,0.000 86.000,0.000 C86.000,10.000 86.000,20.000 86.000,30.000 L90.000,30.000 L90.000,17.000 L96.500,17.000 C96.648,17.000 96.796,16.996 96.942,16.988 L101.737,30.000 L106.000,30.000 L100.784,15.842 C103.306,14.368 105.000,11.632 105.000,8.500 L105.000,8.500 ZM90.000,4.000 L96.500,4.000 C98.985,4.000 101.000,6.015 101.000,8.500 C101.000,10.985 98.985,13.000 96.500,13.000 L90.000,13.000 L90.000,4.000 L90.000,4.000 ZM66.000,30.000 L68.000,30.000 L70.000,30.000 L83.000,30.000 L83.000,26.000 L70.000,26.000 L70.000,17.000 L81.000,17.000 L81.000,13.000 L70.000,13.000 L70.000,4.000 L83.000,4.000 L83.000,0.000 C77.333,0.000 71.667,0.000 66.000,0.000 L66.000,30.000 L66.000,30.000 ZM44.000,30.000 C47.500,30.000 51.000,30.000 54.500,30.000 C59.194,30.000 63.000,26.194 63.000,21.500 C63.000,18.647 61.594,16.123 59.438,14.581 C61.018,13.037 62.000,10.884 62.000,8.500 C62.000,3.806 58.194,0.000 53.500,0.000 C50.333,0.000 47.166,0.000 44.000,0.000 L44.000,30.000 L44.000,30.000 ZM48.000,13.000 L48.000,4.000 L53.500,4.000 C55.985,4.000 58.000,6.015 58.000,8.500 C58.000,10.985 55.985,13.000 53.500,13.000 L48.000,13.000 L48.000,13.000 ZM48.000,26.000 L48.000,17.000 L53.500,17.000 L54.500,17.000 C56.985,17.000 59.000,19.014 59.000,21.500 C59.000,23.985 56.985,26.000 54.500,26.000 L48.000,26.000 L48.000,26.000 ZM28.999,18.999 L28.999,30.000 L33.000,30.000 L33.000,18.999 L42.000,0.000 L37.574,0.000 L31.000,13.878 L24.426,0.000 L20.000,0.000 L28.999,18.999 Z" class="cm-logo-2"/>
  </g>
</svg>
