<svg xmlns="http://www.w3.org/2000/svg" xmlns:xlink="http://www.w3.org/1999/xlink" preserveAspectRatio="xMidYMid" width="20" height="20" viewBox="0 0 20 20">
  <defs>
    <style>
      .google-plus-1 {
        fill: #4285f5;
      }

      .google-plus-1, .google-plus-2, .google-plus-3, .google-plus-4 {
        fill-rule: evenodd;
      }

      .google-plus-2 {
        fill: #35a852;
      }

      .google-plus-3 {
        fill: #ffbd00;
      }

      .google-plus-4 {
        fill: #ea4236;
      }
    </style>
  </defs>
  <g>
    <path d="M10.205,8.125 C13.405,8.125 16.606,8.124 19.807,8.125 C19.934,8.826 19.999,9.539 20.000,10.251 L20.000,10.297 C19.996,11.358 19.849,12.417 19.547,13.435 C19.081,15.010 18.200,16.475 16.965,17.587 C15.886,16.762 14.803,15.942 13.723,15.117 C14.795,14.416 15.551,13.275 15.766,12.028 C13.913,12.028 12.059,12.028 10.206,12.028 C10.203,10.728 10.205,9.426 10.205,8.125 Z" class="google-plus-1"/>
    <path d="M1.087,14.490 C2.203,13.644 3.317,12.795 4.431,11.947 C4.856,13.177 5.684,14.271 6.769,15.018 C7.449,15.487 8.226,15.820 9.041,15.980 C9.843,16.138 10.673,16.121 11.476,15.987 C12.275,15.850 13.049,15.562 13.723,15.117 C14.803,15.942 15.886,16.762 16.965,17.587 C15.798,18.644 14.334,19.368 12.788,19.717 C11.077,20.099 9.268,20.109 7.567,19.662 C6.220,19.311 4.950,18.681 3.860,17.830 C2.704,16.929 1.752,15.782 1.087,14.490 Z" class="google-plus-2"/>
    <path d="M0.202,8.023 C0.381,7.151 0.680,6.304 1.089,5.510 C2.204,6.357 3.318,7.205 4.433,8.053 C3.993,9.303 3.996,10.696 4.431,11.947 C3.317,12.795 2.203,13.644 1.087,14.490 C0.369,13.099 -0.000,11.541 0.001,9.983 C0.001,9.326 0.068,8.668 0.202,8.023 Z" class="google-plus-3"/>
    <path d="M6.869,0.547 C9.077,-0.202 11.550,-0.185 13.743,0.606 C14.961,1.044 16.076,1.737 17.027,2.600 C16.709,2.939 16.363,3.254 16.035,3.583 C15.409,4.196 14.785,4.811 14.157,5.422 C13.537,4.841 12.779,4.400 11.957,4.155 C10.991,3.869 9.949,3.829 8.961,4.036 C7.808,4.278 6.737,4.869 5.914,5.695 C5.246,6.357 4.738,7.171 4.433,8.053 C3.318,7.205 2.204,6.357 1.089,5.510 C2.263,3.205 4.382,1.381 6.869,0.547 Z" class="google-plus-4"/>
  </g>
</svg>
