<svg xmlns="http://www.w3.org/2000/svg" xmlns:xlink="http://www.w3.org/1999/xlink" preserveAspectRatio="xMidYMid" width="22" height="22" viewBox="0 0 22 22">
  <path d="M21.930,15.537 C21.877,16.707 21.691,17.507 21.419,18.206 C21.138,18.929 20.762,19.543 20.151,20.154 C19.540,20.765 18.926,21.141 18.203,21.422 C17.504,21.694 16.704,21.880 15.534,21.933 C14.361,21.987 13.986,22.000 11.000,22.000 C8.013,22.000 7.639,21.987 6.466,21.933 C5.295,21.880 4.496,21.694 3.796,21.422 C3.073,21.141 2.460,20.765 1.849,20.154 C1.237,19.543 0.861,18.929 0.580,18.206 C0.308,17.507 0.122,16.707 0.069,15.537 C0.015,14.364 0.003,13.989 0.003,11.003 C0.003,8.016 0.015,7.642 0.069,6.469 C0.122,5.298 0.308,4.499 0.580,3.799 C0.861,3.076 1.237,2.463 1.849,1.852 C2.460,1.240 3.073,0.864 3.796,0.583 C4.496,0.311 5.295,0.125 6.466,0.072 C7.639,0.018 8.013,0.006 11.000,0.006 C13.986,0.006 14.361,0.018 15.534,0.072 C16.704,0.125 17.504,0.311 18.203,0.583 C18.926,0.864 19.540,1.240 20.151,1.852 C20.762,2.463 21.138,3.076 21.419,3.799 C21.691,4.499 21.877,5.298 21.930,6.469 C21.984,7.642 21.997,8.016 21.997,11.003 C21.997,13.989 21.984,14.364 21.930,15.537 ZM19.951,6.559 C19.902,5.487 19.723,4.905 19.572,4.517 C19.373,4.004 19.135,3.637 18.750,3.253 C18.365,2.868 17.999,2.629 17.485,2.430 C17.098,2.279 16.516,2.100 15.443,2.051 C14.284,1.998 13.936,1.987 11.000,1.987 C8.063,1.987 7.716,1.998 6.556,2.051 C5.484,2.100 4.901,2.279 4.514,2.430 C4.001,2.629 3.634,2.868 3.250,3.253 C2.865,3.637 2.627,4.004 2.427,4.517 C2.276,4.905 2.097,5.487 2.048,6.559 C1.995,7.719 1.984,8.066 1.984,11.003 C1.984,13.939 1.995,14.287 2.048,15.447 C2.097,16.519 2.276,17.101 2.427,17.488 C2.627,18.002 2.865,18.368 3.250,18.753 C3.634,19.137 4.001,19.376 4.514,19.575 C4.901,19.726 5.484,19.905 6.556,19.954 C7.715,20.007 8.063,20.018 11.000,20.018 C13.936,20.018 14.284,20.007 15.443,19.954 C16.516,19.905 17.098,19.726 17.485,19.575 C17.999,19.376 18.365,19.137 18.750,18.753 C19.135,18.368 19.373,18.002 19.572,17.488 C19.723,17.101 19.902,16.519 19.951,15.447 C20.004,14.287 20.015,13.939 20.015,11.003 C20.015,8.066 20.004,7.719 19.951,6.559 ZM16.870,6.452 C16.141,6.452 15.550,5.861 15.550,5.133 C15.550,4.404 16.141,3.813 16.870,3.813 C17.599,3.813 18.190,4.404 18.190,5.133 C18.190,5.861 17.599,6.452 16.870,6.452 ZM11.000,16.650 C7.881,16.650 5.353,14.122 5.353,11.003 C5.353,7.884 7.881,5.356 11.000,5.356 C14.119,5.356 16.647,7.884 16.647,11.003 C16.647,14.122 14.119,16.650 11.000,16.650 ZM11.000,7.337 C8.975,7.337 7.334,8.978 7.334,11.003 C7.334,13.027 8.975,14.668 11.000,14.668 C13.024,14.668 14.665,13.027 14.665,11.003 C14.665,8.978 13.024,7.337 11.000,7.337 Z" class="instagram"/>
</svg>
