<svg xmlns="http://www.w3.org/2000/svg" xmlns:xlink="http://www.w3.org/1999/xlink" width="20" height="16" preserveAspectRatio="xMidYMid" viewBox="0 0 20 16"><defs><style>.twitter{fill:#fff;fill-rule:evenodd}</style></defs><path d="M20.000,1.893 C19.264,2.215 18.473,2.432 17.643,2.530 C18.490,2.030 19.141,1.238 19.447,0.295 C18.654,0.758 17.776,1.094 16.842,1.275 C16.093,0.490 15.027,-0.000 13.846,-0.000 C11.580,-0.000 9.743,1.808 9.743,4.039 C9.743,4.355 9.779,4.664 9.850,4.959 C6.439,4.791 3.416,3.183 1.392,0.739 C1.039,1.336 0.837,2.029 0.837,2.770 C0.837,4.171 1.561,5.407 2.662,6.132 C1.989,6.111 1.356,5.929 0.803,5.626 C0.803,5.643 0.803,5.661 0.803,5.677 C0.803,7.634 2.217,9.267 4.094,9.638 C3.750,9.730 3.388,9.780 3.014,9.780 C2.749,9.780 2.492,9.754 2.241,9.707 C2.764,11.312 4.279,12.479 6.075,12.512 C4.670,13.596 2.901,14.241 0.978,14.241 C0.647,14.241 0.321,14.222 -0.000,14.185 C1.816,15.331 3.972,16.000 6.290,16.000 C13.837,16.000 17.964,9.845 17.964,4.507 C17.964,4.332 17.960,4.158 17.952,3.985 C18.754,3.415 19.450,2.704 20.000,1.893 Z" class="twitter"/></svg>