<svg xmlns="http://www.w3.org/2000/svg" xmlns:xlink="http://www.w3.org/1999/xlink" preserveAspectRatio="xMidYMid" width="21" height="12" viewBox="0 0 21 12">
  <path d="M17.452,5.883 C17.452,5.883 20.221,2.068 20.496,0.814 C20.588,0.366 20.386,0.115 19.909,0.115 C19.909,0.115 18.314,0.115 17.507,0.115 C16.956,0.115 16.755,0.348 16.590,0.689 C16.590,0.689 15.290,3.392 13.710,5.095 C13.202,5.646 12.944,5.812 12.664,5.812 C12.438,5.812 12.334,5.628 12.334,5.131 L12.334,0.778 C12.334,0.169 12.261,-0.010 11.747,-0.010 L7.895,-0.010 C7.602,-0.010 7.418,0.157 7.418,0.384 C7.418,0.958 8.317,1.087 8.317,2.641 L8.317,5.847 C8.317,6.492 8.280,6.743 7.969,6.743 C7.143,6.743 5.180,3.967 4.080,0.814 C3.860,0.169 3.621,-0.010 2.998,-0.010 L0.595,-0.010 C0.246,-0.010 -0.011,0.223 -0.011,0.563 C-0.011,1.190 0.741,4.092 3.695,7.979 C5.676,10.594 8.280,12.009 10.628,12.009 C12.059,12.009 12.407,11.776 12.407,11.185 L12.407,9.179 C12.407,8.678 12.609,8.463 12.903,8.463 C13.233,8.463 13.816,8.566 15.177,9.878 C16.791,11.382 16.901,12.009 17.782,12.009 L20.478,12.009 C20.753,12.009 21.010,11.884 21.010,11.436 C21.010,10.845 20.221,9.788 19.011,8.534 C18.515,7.889 17.708,7.191 17.452,6.868 C17.085,6.492 17.195,6.277 17.452,5.883 Z" class="vk"/>
</svg>
